<?xml version="1.0" encoding="UTF-8" standalone="no"?>
<!DOCTYPE svg PUBLIC "-//W3C//DTD SVG 1.1//EN" "http://www.w3.org/Graphics/SVG/1.1/DTD/svg11.dtd">
<svg xmlns="http://www.w3.org/2000/svg" version="1.1" viewBox="0.00 0.00 500.00 500.00">
<g stroke-width="2.00" fill="none" stroke-linecap="butt">
<path stroke="#9eabfb" vector-effect="non-scaling-stroke" d="
  M 61.47 60.86
  C 62.26 61.15 62.90 61.25 63.75 61.25
  Q 99.55 61.33 142.37 61.57
  Q 155.95 61.64 169.15 61.11
  A 1.28 1.27 87.8 0 0 170.37 59.78
  Q 170.31 58.46 169.02 58.39
  Q 162.07 58.02 156.50 58.02
  Q 109.50 58.08 61.39 58.40
  A 0.41 0.41 0.0 0 1 60.98 57.99
  L 61.22 38.24
  A 0.43 0.42 3.1 0 1 61.69 37.82
  Q 62.71 37.95 63.68 37.96
  Q 110.72 38.19 157.92 38.17
  Q 162.59 38.17 167.04 37.95
  Q 168.29 37.89 168.14 36.65
  L 168.08 36.14
  Q 167.96 35.08 166.89 35.08
  L 58.97 35.07
  Q 58.32 35.07 58.29 35.71
  Q 57.80 46.46 58.43 57.59
  A 0.67 0.67 0.0 0 1 57.75 58.30
  L 35.83 58.08
  A 0.84 0.84 0.0 0 0 34.98 58.94
  Q 35.31 72.36 35.19 85.51
  Q 34.85 123.95 35.14 146.01
  Q 35.19 149.51 35.37 153.01
  A 0.84 0.84 0.0 0 0 36.27 153.80
  L 36.71 153.77
  Q 37.60 153.71 37.64 152.82
  Q 37.79 149.77 37.82 146.85
  Q 38.22 106.63 37.94 61.92
  A 0.56 0.55 89.5 0 1 38.48 61.36
  L 58.26 61.05
  A 0.25 0.25 0.0 0 1 58.51 61.30
  Q 58.37 105.43 58.54 152.12
  Q 58.54 152.81 58.86 153.22
  Q 59.36 153.87 60.28 153.52
  Q 60.71 153.35 60.72 152.89
  C 60.89 148.49 61.21 144.37 61.21 140.03
  Q 61.24 97.70 61.03 62.05
  Q 61.03 61.70 60.94 61.35
  Q 60.75 60.60 61.47 60.86"
/>
<path stroke="#9eabfb" vector-effect="non-scaling-stroke" d="
  M 441.96 61.15
  Q 451.81 61.57 461.38 61.06
  A 0.52 0.51 89.0 0 1 461.92 61.59
  Q 461.49 106.34 461.77 152.21
  A 1.82 1.81 -83.2 0 0 463.14 153.96
  Q 463.27 154.00 463.39 153.96
  A 2.10 2.07 82.4 0 0 464.91 151.94
  Q 465.19 104.29 464.74 58.67
  A 0.53 0.53 0.0 0 0 464.22 58.15
  C 456.66 58.08 449.17 57.81 441.77 58.35
  A 0.58 0.58 0.0 0 1 441.17 57.64
  Q 441.62 55.73 441.66 53.91
  Q 441.81 45.96 441.73 35.97
  Q 441.72 35.03 440.78 35.03
  L 332.71 35.15
  Q 331.82 35.15 331.76 36.04
  L 331.70 36.96
  A 1.03 1.02 -87.9 0 0 332.72 38.06
  Q 379.06 38.14 424.75 38.15
  Q 431.16 38.15 438.05 37.88
  A 0.61 0.61 0.0 0 1 438.68 38.49
  L 438.67 57.82
  A 0.38 0.37 -89.3 0 1 438.29 58.20
  Q 382.82 57.91 338.39 58.10
  Q 334.74 58.11 330.77 58.34
  Q 329.62 58.41 329.40 59.53
  L 329.31 59.98
  A 0.92 0.91 7.0 0 0 330.17 61.07
  Q 341.01 61.54 352.74 61.54
  Q 391.39 61.54 429.49 61.38
  Q 433.53 61.36 438.17 61.03
  A 0.59 0.59 0.0 0 1 438.80 61.63
  Q 438.20 105.17 438.80 152.31
  Q 438.81 153.35 439.82 153.60
  Q 440.50 153.77 441.26 152.81
  A 1.39 1.37 64.9 0 0 441.55 151.99
  Q 441.83 120.53 441.75 80.80
  C 441.74 74.41 441.35 68.09 441.43 61.65
  Q 441.44 61.12 441.96 61.15"
/>
<path stroke="#a9b8ff" vector-effect="non-scaling-stroke" d="
  M 330.91 110.80
  L 336.97 114.61
  Q 338.24 115.40 338.24 116.90
  L 338.24 310.75
  A 0.51 0.51 0.0 0 0 338.75 311.26
  L 369.19 311.27
  Q 370.40 311.27 370.40 310.06
  L 370.41 306.65
  Q 370.41 305.25 369.02 305.25
  L 345.02 305.24
  A 0.72 0.72 0.0 0 1 344.30 304.52
  L 344.28 112.98
  A 0.95 0.94 -73.4 0 0 343.86 112.19
  Q 322.14 97.87 299.12 82.85
  C 297.40 81.72 295.38 81.54 293.39 81.81
  Q 250.32 87.58 204.22 93.87
  A 3.14 3.13 86.1 0 0 201.51 96.98
  L 201.50 141.21
  A 0.92 0.91 -86.0 0 0 202.28 142.12
  Q 227.88 145.59 253.54 149.06
  Q 262.22 150.24 262.23 159.42
  Q 262.35 239.20 262.17 306.89
  Q 262.17 308.53 261.87 310.32
  Q 261.76 310.96 262.41 310.96
  L 296.85 311.28
  A 2.20 2.20 0.0 0 0 299.05 309.40
  Q 299.30 307.73 299.31 305.75
  Q 299.89 160.41 299.28 93.25
  Q 299.27 92.44 299.31 91.61
  A 0.75 0.74 17.7 0 1 300.46 91.02
  L 308.51 96.17
  A 2.14 2.13 -73.7 0 1 309.49 97.97
  L 309.51 310.07
  Q 309.51 310.88 310.32 310.90
  L 314.97 311.04
  Q 315.75 311.06 315.75 310.28
  L 315.75 101.59
  A 0.44 0.44 0.0 0 1 316.44 101.23
  L 323.25 105.90
  Q 324.00 106.41 324.00 107.32
  L 324.00 310.25
  Q 324.00 310.99 324.75 310.99
  L 329.26 310.99
  Q 330.01 310.98 330.01 310.24
  L 330.00 111.30
  Q 330.00 110.24 330.91 110.80"
/>
<path stroke="#a9b8ff" vector-effect="non-scaling-stroke" d="
  M 185.24 155.76
  Q 185.30 228.56 185.29 307.07
  Q 185.29 308.59 185.50 310.13
  Q 185.57 310.66 186.09 310.77
  Q 188.01 311.21 189.72 311.20
  Q 221.02 311.07 253.73 310.43
  Q 256.01 310.38 256.01 308.10
  Q 255.96 234.26 256.02 159.69
  Q 256.02 158.43 255.80 157.31
  A 2.44 2.44 0.0 0 0 253.72 155.35
  L 188.74 146.58
  A 4.94 4.89 32.0 0 0 185.41 147.33
  L 154.12 167.90
  Q 152.98 168.65 152.98 170.01
  L 153.02 305.77
  Q 153.02 306.05 152.73 306.05
  L 130.39 305.98
  Q 129.76 305.97 129.79 306.61
  L 130.02 310.50
  A 0.73 0.73 0.0 0 0 130.75 311.19
  L 157.94 311.30
  A 0.61 0.61 0.0 0 0 158.55 310.66
  Q 158.26 302.32 158.31 292.02
  Q 158.59 235.13 158.42 173.62
  Q 158.41 171.72 159.96 170.62
  L 161.66 169.41
  Q 163.27 168.26 163.27 170.24
  L 163.34 309.70
  Q 163.34 310.56 164.20 310.54
  L 167.74 310.48
  Q 168.70 310.47 168.70 309.51
  L 168.73 166.46
  A 2.74 2.73 -16.5 0 1 169.99 164.16
  L 172.21 162.74
  Q 173.53 161.89 173.53 163.46
  L 173.55 309.76
  Q 173.55 310.47 174.26 310.47
  L 178.25 310.49
  A 0.73 0.72 -89.6 0 0 178.98 309.76
  L 178.99 159.64
  A 2.66 2.66 0.0 0 1 180.26 157.37
  L 184.01 155.07
  Q 185.24 154.32 185.24 155.76"
/>
<path stroke="#9eabfb" vector-effect="non-scaling-stroke" d="
  M 200.76 349.22
  A 0.53 0.53 0.0 0 1 199.94 348.76
  L 200.11 340.94
  Q 200.14 339.48 198.69 339.35
  L 198.16 339.30
  Q 195.81 339.10 195.85 341.46
  L 196.29 368.23
  A 0.73 0.72 -89.2 0 0 196.98 368.95
  L 199.33 369.04
  A 0.62 0.62 0.0 0 0 199.98 368.42
  L 200.03 352.77
  A 1.43 1.42 -4.8 0 1 201.22 351.37
  L 202.71 351.11
  Q 204.33 350.82 204.34 352.47
  L 204.46 368.23
  Q 204.46 369.04 205.27 369.05
  L 207.52 369.10
  Q 208.30 369.11 208.30 368.34
  Q 208.37 358.40 208.17 351.11
  C 208.04 346.56 203.04 347.80 200.76 349.22"
/>
<path stroke="#9eabfb" vector-effect="non-scaling-stroke" d="
  M 173.68 353.18
  L 174.79 352.27
  Q 175.25 351.89 175.50 351.35
  C 177.35 347.39 177.05 341.34 171.93 340.07
  C 168.98 339.34 165.70 339.51 162.67 339.53
  Q 161.92 339.53 161.92 340.28
  L 162.12 368.24
  Q 162.13 368.75 162.64 368.77
  Q 167.73 369.00 171.53 368.73
  Q 175.93 368.42 176.94 363.59
  C 177.57 360.55 177.44 354.92 173.82 353.86
  A 0.39 0.39 0.0 0 1 173.68 353.18"
/>
<path stroke="#9eabfb" vector-effect="non-scaling-stroke" d="
  M 249.01 343.57
  Q 250.85 342.30 253.22 342.81
  C 255.78 343.36 255.41 347.33 255.19 349.23
  Q 255.08 350.20 256.04 350.26
  L 257.50 350.35
  A 1.30 1.29 3.8 0 0 258.88 349.15
  Q 259.04 347.00 258.61 344.77
  C 257.58 339.44 252.04 338.52 247.74 340.27
  C 242.98 342.20 243.57 350.83 243.74 354.94
  C 243.89 358.51 243.63 361.99 244.86 365.39
  C 246.26 369.26 251.09 369.61 254.56 368.78
  C 258.54 367.82 259.07 362.46 258.96 359.04
  Q 258.92 358.06 257.94 358.03
  L 256.07 357.97
  Q 255.33 357.94 255.31 358.68
  L 255.16 362.74
  Q 255.04 366.21 251.56 366.19
  Q 251.16 366.19 250.77 366.12
  Q 248.28 365.67 248.02 363.15
  Q 247.23 355.46 248.18 344.99
  A 1.98 1.98 0.0 0 1 249.01 343.57"
/>
<path stroke="#9eabfb" vector-effect="non-scaling-stroke" d="
  M 294.20 351.23
  A 1.28 1.28 0.0 0 1 294.98 352.41
  L 295.03 368.17
  A 0.87 0.87 0.0 0 0 295.92 369.04
  L 298.02 369.01
  Q 298.77 368.99 298.78 368.23
  L 298.95 352.02
  A 0.76 0.75 82.1 0 1 299.48 351.31
  L 301.36 350.73
  Q 301.85 350.57 302.05 350.10
  Q 302.44 349.19 301.77 348.53
  C 301.20 347.97 300.40 348.03 299.68 347.87
  Q 298.97 347.70 298.92 346.97
  Q 298.84 345.73 299.21 344.58
  Q 299.42 343.93 300.11 343.94
  Q 300.74 343.96 301.32 343.75
  Q 301.79 343.58 301.91 343.10
  Q 302.44 341.05 300.48 340.78
  C 297.64 340.40 295.31 341.63 295.12 344.57
  Q 295.04 345.78 294.79 346.95
  Q 294.68 347.47 294.22 347.73
  L 292.54 348.72
  A 1.04 1.04 0.0 0 0 292.66 350.58
  L 294.20 351.23"
/>
<path stroke="#9eabfb" vector-effect="non-scaling-stroke" d="
  M 216.0200 341.8730
  A 0.85 0.85 0.0 0 0 215.1626 341.0305
  L 212.9627 341.0497
  A 0.85 0.85 0.0 0 0 212.1201 341.9071
  L 212.1400 344.1870
  A 0.85 0.85 0.0 0 0 212.9974 345.0295
  L 215.1973 345.0103
  A 0.85 0.85 0.0 0 0 216.0399 344.1529
  L 216.0200 341.8730"
/>
<path stroke="#9eabfb" vector-effect="non-scaling-stroke" d="
  M 336.21 347.06
  L 336.22 343.08
  Q 336.22 341.94 335.08 341.98
  L 333.28 342.05
  Q 331.91 342.10 332.02 343.47
  L 332.27 346.60
  A 1.26 1.24 62.9 0 1 331.98 347.53
  Q 331.54 348.05 330.84 348.24
  Q 330.15 348.43 329.89 349.10
  Q 329.59 349.85 330.16 350.36
  A 1.23 1.22 69.5 0 0 330.81 350.66
  Q 332.38 350.86 332.30 352.50
  Q 331.94 360.11 332.66 366.13
  C 333.01 369.05 336.28 369.35 338.55 369.14
  Q 339.14 369.08 339.28 368.51
  Q 339.55 367.45 338.80 366.65
  A 1.29 1.23 73.0 0 0 338.16 366.29
  L 336.77 366.00
  Q 336.18 365.87 336.18 365.27
  L 336.15 352.00
  Q 336.15 350.61 337.53 350.74
  Q 338.94 350.87 339.45 349.76
  A 0.97 0.96 -65.5 0 0 338.98 348.49
  Q 338.04 348.04 337.03 347.96
  Q 336.20 347.89 336.21 347.06"
/>
<path stroke="#a9b8ff" vector-effect="non-scaling-stroke" d="
  M 61.42 441.35
  C 96.35 441.43 132.70 441.42 169.24 441.21
  Q 170.12 441.21 170.21 440.33
  Q 170.23 440.15 170.23 439.98
  Q 170.21 438.78 169.02 438.78
  L 61.47 438.78
  A 0.47 0.47 0.0 0 1 61.00 438.31
  Q 61.23 396.76 61.19 355.30
  C 61.18 352.51 60.72 349.87 60.76 347.08
  A 0.72 0.71 3.0 0 0 60.10 346.36
  L 59.23 346.29
  Q 58.45 346.23 58.45 347.02
  L 58.45 437.94
  Q 58.45 439.00 57.39 438.95
  Q 47.97 438.55 38.93 439.04
  Q 37.94 439.09 37.94 438.10
  L 38.06 346.82
  Q 38.06 345.79 37.06 346.06
  L 36.21 346.29
  Q 35.36 346.52 35.37 347.40
  C 35.40 350.71 35.02 354.42 35.02 357.55
  Q 35.04 399.10 35.37 441.23
  A 0.35 0.35 0.0 0 0 35.73 441.58
  L 58.13 441.09
  A 0.53 0.53 0.0 0 1 58.67 441.72
  Q 58.39 443.17 58.39 444.79
  Q 58.36 454.06 58.34 464.40
  A 0.32 0.31 -0.0 0 0 58.66 464.71
  L 167.30 464.74
  A 0.93 0.92 86.4 0 0 168.21 463.70
  L 168.15 463.19
  A 1.08 1.08 0.0 0 0 167.08 462.25
  L 62.01 462.25
  A 1.00 1.00 0.0 0 1 61.01 461.26
  L 60.95 441.82
  A 0.47 0.47 0.0 0 1 61.42 441.35"
/>
<path stroke="#a9b8ff" vector-effect="non-scaling-stroke" d="
  M 460.99 438.95
  Q 451.50 438.41 441.87 439.14
  Q 441.35 439.18 441.35 438.65
  Q 441.83 394.43 441.59 347.40
  Q 441.59 346.56 440.76 346.46
  L 439.59 346.32
  Q 438.74 346.22 438.73 347.07
  Q 438.44 388.48 438.85 434.60
  Q 438.87 436.49 439.08 438.33
  A 0.64 0.64 0.0 0 1 438.42 439.05
  Q 435.04 438.91 431.73 438.89
  Q 380.65 438.61 330.70 438.87
  Q 330.13 438.87 329.87 439.38
  Q 329.61 439.90 329.72 440.48
  Q 329.87 441.24 330.64 441.25
  C 366.73 441.65 402.94 441.41 438.27 441.22
  A 0.70 0.70 0.0 0 1 438.97 441.93
  L 438.87 461.67
  A 0.55 0.54 -90.0 0 1 438.33 462.22
  L 332.62 462.23
  Q 331.71 462.23 331.48 463.12
  Q 331.30 463.81 332.68 464.46
  A 2.07 1.97 55.8 0 0 333.51 464.64
  L 441.29 464.80
  A 0.30 0.30 0.0 0 0 441.59 464.49
  L 441.38 442.23
  A 0.77 0.77 0.0 0 1 442.12 441.45
  Q 452.48 441.11 463.51 441.59
  Q 464.82 441.64 464.83 440.33
  Q 465.06 396.19 464.92 352.30
  C 464.92 350.65 464.59 349.01 464.73 347.36
  Q 464.82 346.29 463.76 346.15
  L 462.91 346.04
  Q 461.71 345.88 461.71 347.09
  L 461.81 438.16
  A 0.79 0.78 -88.6 0 1 460.99 438.95"
/>
<path stroke="#9eabfb" vector-effect="non-scaling-stroke" d="
  M 188.71 367.55
  Q 189.35 369.80 192.16 368.90
  Q 192.68 368.73 192.64 368.18
  Q 192.27 362.61 192.49 356.38
  C 192.66 351.43 191.66 347.42 185.57 347.83
  C 182.30 348.05 180.43 350.56 180.45 353.67
  A 1.21 1.21 0.0 0 0 181.02 354.68
  Q 182.26 355.43 183.66 354.55
  Q 184.10 354.28 184.16 353.77
  L 184.29 352.57
  A 2.02 2.00 6.8 0 1 186.54 350.81
  C 188.72 351.09 188.67 353.77 188.26 355.34
  Q 188.11 355.92 187.57 356.20
  C 183.46 358.32 179.41 359.93 180.49 365.60
  C 181.23 369.53 185.81 370.49 188.19 367.44
  Q 188.55 366.98 188.71 367.55"
/>
<path stroke="#9eabfb" vector-effect="non-scaling-stroke" d="
  M 215.9565 348.8535
  A 0.92 0.92 0.0 0 0 215.0333 347.9367
  L 213.1133 347.9434
  A 0.92 0.92 0.0 0 0 212.1965 348.8666
  L 212.2635 368.0465
  A 0.92 0.92 0.0 0 0 213.1867 368.9633
  L 215.1067 368.9566
  A 0.92 0.92 0.0 0 0 216.0235 368.0334
  L 215.9565 348.8535"
/>
<path stroke="#9eabfb" vector-effect="non-scaling-stroke" d="
  M 284.04 348.46
  C 282.58 348.86 281.35 348.41 279.93 348.05
  Q 278.01 347.56 278.01 349.53
  L 278.00 367.99
  A 1.01 1.01 0.0 0 0 278.99 369.00
  L 281.07 369.04
  A 0.86 0.85 -89.3 0 0 281.94 368.18
  L 281.98 353.16
  A 1.88 1.88 0.0 0 1 283.32 351.37
  L 284.22 351.09
  Q 285.78 350.62 285.90 352.25
  Q 286.47 360.23 286.16 368.30
  A 0.62 0.62 0.0 0 0 286.77 368.95
  L 289.49 369.00
  Q 290.05 369.01 290.06 368.46
  Q 290.23 360.06 290.09 351.25
  C 290.02 347.14 286.77 347.72 284.04 348.46"
/>
<path stroke="#9eabfb" vector-effect="non-scaling-stroke" d="
  M 315.9775 353.4911
  A 5.61 5.61 0.0 0 0 310.3871 347.8615
  L 309.5471 347.8586
  A 5.61 5.61 0.0 0 0 303.9176 353.4490
  L 303.8825 363.5089
  A 5.61 5.61 0.0 0 0 309.4729 369.1385
  L 310.3129 369.1414
  A 5.61 5.61 0.0 0 0 315.9424 363.5510
  L 315.9775 353.4911"
/>
<path stroke="#9eabfb" vector-effect="non-scaling-stroke" d="
  M 324.72 349.25
  A 0.65 0.64 -43.0 0 1 323.83 349.22
  Q 321.44 346.76 319.93 348.33
  A 1.46 1.42 -23.7 0 0 319.53 349.32
  L 319.58 368.03
  Q 319.58 368.98 320.53 368.98
  L 322.40 368.99
  Q 323.29 368.99 323.31 368.10
  L 323.55 353.71
  A 1.48 1.47 85.5 0 1 324.77 352.28
  L 327.77 351.76
  Q 328.27 351.67 328.53 351.24
  Q 329.20 350.14 328.77 348.83
  A 1.06 1.06 0.0 0 0 327.87 348.10
  Q 326.19 347.93 324.72 349.25"
/>
<path stroke="#9eabfb" vector-effect="non-scaling-stroke" d="
  M 228.58 367.84
  Q 229.39 369.50 231.45 369.07
  Q 232.02 368.95 232.01 368.37
  Q 231.89 361.66 231.76 354.13
  C 231.72 351.52 230.87 348.57 227.89 348.07
  Q 221.46 347.02 219.94 352.64
  A 1.71 1.70 -66.4 0 0 220.68 354.53
  Q 221.96 355.33 223.27 354.46
  Q 223.72 354.16 223.77 353.62
  C 223.93 351.75 224.69 349.87 227.04 350.92
  Q 227.43 351.10 227.58 351.50
  Q 228.31 353.49 228.08 355.38
  A 1.18 1.17 85.1 0 1 227.25 356.37
  C 222.94 357.67 219.16 360.31 220.05 365.51
  C 220.83 370.02 224.79 369.36 227.86 367.61
  Q 228.34 367.34 228.58 367.84"
/>
<path stroke="#9eabfb" vector-effect="non-scaling-stroke" d="
  M 274.4775 353.5510
  A 5.60 5.60 0.0 0 0 268.8971 347.9315
  L 268.0571 347.9286
  A 5.60 5.60 0.0 0 0 262.4376 353.5090
  L 262.4025 363.5490
  A 5.60 5.60 0.0 0 0 267.9829 369.1685
  L 268.8229 369.1714
  A 5.60 5.60 0.0 0 0 274.4424 363.5910
  L 274.4775 353.5510"
/>
<path stroke="#9eabfb" vector-effect="non-scaling-stroke" d="
  M 202.02 404.00
  L 201.78 404.18
  Q 201.03 404.73 201.96 404.75
  L 204.25 404.81
  Q 205.13 404.84 204.50 404.22
  C 204.00 403.72 203.74 402.94 203.76 402.25
  Q 203.93 395.81 203.77 389.07
  Q 203.76 388.38 203.46 387.79
  Q 203.27 387.39 202.76 387.57
  Q 202.58 387.63 201.77 387.92
  Q 201.30 388.08 201.62 388.46
  Q 202.18 389.15 202.22 390.11
  Q 202.51 398.41 202.34 403.40
  Q 202.33 403.78 202.02 404.00"
/>
<path stroke="#9eabfb" vector-effect="non-scaling-stroke" d="
  M 155.68 404.03
  L 154.46 404.40
  Q 153.42 404.72 154.50 404.85
  Q 157.95 405.28 160.64 404.81
  C 163.09 404.38 164.90 405.37 167.26 404.67
  Q 167.89 404.49 167.24 404.39
  L 166.39 404.27
  Q 165.85 404.19 165.84 403.64
  L 165.79 388.26
  Q 165.79 387.73 165.26 387.69
  L 164.32 387.62
  Q 164.00 387.59 164.01 387.92
  L 164.45 403.50
  Q 164.47 404.12 163.87 404.28
  Q 161.46 404.95 158.97 404.09
  Q 158.46 403.91 158.29 403.40
  L 153.35 388.77
  Q 152.78 387.10 152.20 388.76
  L 147.23 403.01
  A 1.01 0.97 -4.5 0 1 146.75 403.55
  L 145.04 404.39
  Q 144.42 404.69 145.11 404.71
  Q 148.04 404.79 150.76 404.93
  Q 150.83 404.93 150.82 404.87
  L 150.81 404.62
  Q 150.80 404.25 150.43 404.27
  Q 147.94 404.41 148.61 401.63
  Q 149.09 399.68 151.09 399.80
  L 154.67 400.01
  A 1.00 0.99 84.4 0 1 155.58 400.76
  L 156.18 403.14
  Q 156.36 403.83 155.68 404.03"
/>
<path stroke="#9eabfb" vector-effect="non-scaling-stroke" d="
  M 244.02 403.42
  L 244.00 389.30
  Q 244.00 388.64 244.66 388.54
  Q 246.27 388.31 247.69 388.81
  A 1.34 1.32 86.4 0 1 248.44 389.48
  Q 249.24 391.18 249.41 393.16
  Q 249.44 393.44 249.71 393.42
  L 250.04 393.41
  Q 250.24 393.40 250.23 393.20
  L 249.92 388.46
  A 0.71 0.71 0.0 0 0 249.21 387.79
  L 237.26 387.89
  A 0.93 0.93 0.0 0 0 236.36 388.63
  Q 235.94 390.75 236.36 393.03
  Q 236.53 393.93 236.81 393.06
  Q 237.06 392.27 237.10 391.42
  Q 237.20 389.55 238.92 388.82
  Q 239.75 388.46 240.66 388.33
  Q 242.26 388.10 242.25 389.72
  L 242.17 403.35
  Q 242.16 403.85 241.74 404.12
  Q 240.88 404.68 239.72 404.44
  Q 239.70 404.44 239.70 404.46
  L 239.70 404.72
  Q 239.70 405.01 239.99 405.00
  Q 243.31 404.97 246.27 404.97
  Q 246.44 404.97 246.53 404.81
  Q 246.56 404.77 246.55 404.72
  Q 246.52 404.50 246.30 404.44
  Q 245.48 404.20 244.68 404.13
  Q 244.02 404.07 244.02 403.42"
/>
<path stroke="#9eabfb" vector-effect="non-scaling-stroke" d="
  M 197.5430 390.0443
  A 1.12 0.94 12.6 0 0 196.6551 388.8826
  A 1.12 0.94 12.6 0 0 195.3570 389.5557
  A 1.12 0.94 12.6 0 0 196.2449 390.7174
  A 1.12 0.94 12.6 0 0 197.5430 390.0443"
/>
<path stroke="#9eabfb" vector-effect="non-scaling-stroke" d="
  M 342.5154 389.6694
  A 1.11 0.94 -5.2 0 0 341.3248 388.8339
  A 1.11 0.94 -5.2 0 0 340.3046 389.8706
  A 1.11 0.94 -5.2 0 0 341.4952 390.7061
  A 1.11 0.94 -5.2 0 0 342.5154 389.6694"
/>
<path stroke="#9eabfb" vector-effect="non-scaling-stroke" d="
  M 256.39 399.32
  Q 256.20 399.34 256.05 399.23
  Q 255.85 399.09 255.67 399.25
  Q 255.29 399.59 256.64 399.95
  A 1.46 1.24 -38.2 0 0 257.16 399.97
  L 260.82 399.37
  Q 261.42 399.27 261.28 398.68
  C 260.75 396.52 259.98 393.67 257.21 393.92
  C 251.00 394.47 251.71 405.76 257.66 405.16
  Q 260.34 404.89 260.89 402.39
  Q 261.29 400.56 260.38 402.20
  C 258.13 406.26 254.76 404.55 254.72 400.60
  Q 254.72 400.20 254.94 399.87
  Q 255.20 399.47 254.99 399.05
  C 254.30 397.70 255.10 395.85 256.09 394.86
  A 1.19 1.18 28.1 0 1 257.17 394.54
  Q 259.19 394.96 259.31 397.62
  Q 259.38 398.94 258.07 399.13
  Q 257.21 399.25 256.39 399.32"
/>
<path stroke="#9eabfb" vector-effect="non-scaling-stroke" d="
  M 277.03 395.12
  C 278.19 396.68 277.81 401.07 277.68 403.23
  Q 277.65 403.78 277.30 404.18
  Q 276.89 404.64 277.49 404.77
  Q 278.74 405.06 279.88 404.95
  Q 280.53 404.89 280.05 404.45
  C 279.37 403.83 279.00 403.20 279.12 402.24
  Q 279.54 398.76 278.80 395.30
  Q 278.69 394.81 278.29 394.51
  Q 276.51 393.20 274.65 394.35
  Q 274.00 394.75 274.74 394.56
  Q 275.28 394.41 275.88 394.47
  Q 276.59 394.54 277.03 395.12"
/>
<path stroke="#9eabfb" vector-effect="non-scaling-stroke" d="
  M 319.57 395.40
  Q 319.38 395.00 319.78 394.82
  Q 322.32 393.64 323.74 395.72
  Q 324.08 396.21 323.96 396.80
  C 323.59 398.72 324.38 401.55 323.02 402.99
  Q 322.72 403.30 323.12 403.43
  Q 324.10 403.77 324.73 404.59
  A 1.09 1.09 0.0 0 0 325.99 404.93
  L 326.25 404.83
  Q 327.07 404.51 326.33 404.01
  Q 324.99 403.12 325.25 401.44
  C 325.54 399.59 325.29 397.62 325.03 395.77
  Q 324.95 395.18 324.50 394.79
  Q 322.72 393.23 319.83 394.12
  C 318.71 394.46 318.32 395.51 318.29 396.54
  A 1.26 1.25 -79.1 0 0 319.11 397.76
  L 319.76 398.00
  Q 321.03 398.47 320.45 397.25
  L 319.57 395.40"
/>
<path stroke="#9eabfb" vector-effect="non-scaling-stroke" d="
  M 350.6310 405.1391
  A 5.67 4.62 91.0 0 0 355.3493 399.5506
  A 5.67 4.62 91.0 0 0 350.8290 393.8009
  A 5.67 4.62 91.0 0 0 346.1107 399.3894
  A 5.67 4.62 91.0 0 0 350.6310 405.1391"
/>
<path stroke="#9eabfb" vector-effect="non-scaling-stroke" d="
  M 175.95 409.98
  Q 175.82 410.03 175.77 410.15
  Q 175.62 410.49 175.99 410.51
  L 178.00 410.64
  Q 178.66 410.68 178.55 410.03
  C 177.76 405.46 178.14 400.41 178.29 395.72
  Q 178.31 395.08 177.68 395.19
  Q 177.51 395.22 177.40 395.33
  Q 176.93 395.74 176.50 395.30
  Q 174.57 393.33 171.46 394.44
  Q 171.06 394.58 170.85 394.95
  C 169.25 397.87 168.83 403.81 172.86 405.20
  Q 173.25 405.34 173.59 405.12
  Q 174.16 404.76 173.54 404.52
  C 170.77 403.44 171.18 398.72 171.67 396.28
  Q 172.05 394.37 174.14 394.79
  Q 175.99 395.15 176.33 396.67
  Q 177.15 400.27 175.95 403.81
  Q 175.80 404.23 176.05 404.61
  Q 177.61 407.06 176.16 409.80
  Q 176.09 409.94 175.95 409.98"
/>
<path stroke="#9eabfb" vector-effect="non-scaling-stroke" d="
  M 190.86 402.46
  C 191.15 399.99 190.96 397.18 190.63 394.64
  Q 190.57 394.16 190.10 394.01
  Q 189.50 393.83 188.88 393.93
  Q 188.42 394.00 188.66 394.41
  C 190.14 396.94 189.45 401.29 188.55 403.92
  Q 188.36 404.48 188.94 404.57
  Q 190.25 404.78 191.49 404.78
  Q 192.35 404.77 191.67 404.25
  Q 191.25 403.92 191.02 403.42
  Q 190.81 402.97 190.86 402.46"
/>
<path stroke="#a9b8ff" vector-effect="non-scaling-stroke" d="
  M 195.28 404.72
  L 197.19 405.05
  Q 197.88 405.17 197.77 404.48
  Q 197.01 399.56 197.31 394.64
  Q 197.34 394.06 196.77 394.03
  Q 195.99 393.98 195.26 394.24
  Q 194.51 394.50 195.21 394.88
  Q 195.46 395.02 195.60 395.26
  Q 195.90 395.76 195.94 396.33
  Q 196.13 399.75 195.84 403.19
  Q 195.80 403.69 195.45 404.05
  Q 195.34 404.16 195.19 404.22
  Q 194.33 404.56 195.28 404.72"
/>
<path stroke="#9eabfb" vector-effect="non-scaling-stroke" d="
  M 216.30 398.73
  C 215.93 396.80 215.10 394.02 212.66 393.96
  Q 209.00 393.88 208.25 397.26
  C 207.70 399.71 207.71 404.17 210.99 404.75
  Q 212.95 405.09 211.18 404.18
  Q 209.89 403.52 209.86 401.79
  Q 209.81 399.62 209.81 397.52
  Q 209.82 395.31 211.99 394.51
  A 0.89 0.87 53.8 0 1 212.84 394.65
  Q 215.01 396.37 214.17 398.92
  Q 214.03 399.36 214.43 399.57
  Q 214.98 399.85 215.62 399.73
  A 0.85 0.85 0.0 0 0 216.30 398.73"
/>
<path stroke="#9eabfb" vector-effect="non-scaling-stroke" d="
  M 221.78 404.73
  Q 222.01 404.67 221.97 404.44
  Q 221.29 400.06 222.29 395.45
  Q 222.43 394.84 221.86 394.57
  Q 220.79 394.07 219.63 394.16
  Q 218.77 394.22 219.41 394.80
  C 219.80 395.14 220.09 395.54 220.14 396.07
  Q 220.65 400.83 219.53 404.61
  Q 219.46 404.86 219.72 404.89
  Q 220.74 405.00 221.78 404.73"
/>
<path stroke="#9eabfb" vector-effect="non-scaling-stroke" d="
  M 224.33 394.31
  L 225.25 397.00
  A 0.23 0.23 0.0 0 0 225.54 397.14
  L 225.66 397.10
  A 1.50 1.47 71.0 0 0 226.56 395.21
  L 226.46 394.92
  A 1.50 1.47 71.0 0 0 224.58 393.98
  L 224.47 394.02
  A 0.23 0.23 0.0 0 0 224.33 394.31"
/>
<path stroke="#9eabfb" vector-effect="non-scaling-stroke" d="
  M 266.69 403.54
  Q 266.44 400.01 266.89 396.32
  Q 266.96 395.79 267.31 395.40
  Q 267.41 395.29 267.54 395.23
  Q 268.36 394.80 267.47 394.58
  Q 265.98 394.22 264.57 394.17
  Q 263.78 394.14 264.28 394.75
  L 264.70 395.26
  Q 265.16 395.82 265.15 396.54
  L 265.07 403.53
  Q 265.06 403.82 264.84 404.02
  Q 264.72 404.13 264.59 404.23
  Q 263.80 404.81 264.78 404.86
  C 266.92 404.96 268.94 404.42 271.05 404.82
  Q 272.47 405.09 273.75 404.85
  Q 274.41 404.72 273.80 404.46
  L 273.53 404.35
  Q 273.06 404.14 273.03 403.64
  Q 272.78 399.69 273.34 395.98
  Q 273.41 395.52 273.06 395.21
  Q 271.03 393.39 268.70 394.40
  A 0.13 0.13 0.0 0 0 268.77 394.65
  C 270.38 394.38 271.61 395.41 271.45 397.01
  Q 271.14 400.30 271.48 403.40
  A 1.07 1.06 -3.1 0 1 270.42 404.58
  L 267.78 404.56
  Q 266.76 404.56 266.69 403.54"
/>
<path stroke="#9eabfb" vector-effect="non-scaling-stroke" d="
  M 284.31 400.30
  Q 284.65 404.83 283.97 410.09
  Q 283.89 410.75 284.55 410.66
  Q 285.19 410.58 285.78 410.71
  Q 286.42 410.85 286.21 410.23
  Q 285.21 407.29 286.35 404.28
  Q 286.53 403.81 286.38 403.32
  Q 285.36 400.09 286.13 396.59
  A 2.56 2.56 0.0 0 1 288.83 394.58
  Q 290.49 394.71 290.82 396.41
  C 291.31 398.91 291.87 404.51 288.01 404.83
  Q 287.91 404.84 287.92 404.94
  L 287.98 405.22
  Q 287.99 405.28 288.05 405.28
  Q 291.20 405.29 292.23 402.64
  Q 293.22 400.07 292.64 397.11
  C 292.23 395.04 290.34 393.50 288.17 394.22
  Q 286.05 394.92 283.98 394.03
  Q 283.54 393.83 283.11 394.10
  Q 282.67 394.38 283.14 394.63
  C 285.48 395.85 284.16 398.25 284.31 400.30"
/>
<path stroke="#9eabfb" vector-effect="non-scaling-stroke" d="
  M 310.48 403.20
  Q 310.36 399.95 310.82 396.66
  Q 311.18 394.08 308.66 394.02
  A 0.48 0.47 -11.5 0 0 308.21 394.69
  C 308.54 395.41 308.96 396.01 308.97 396.83
  Q 309.03 399.97 308.79 403.30
  Q 308.76 403.75 308.45 404.07
  Q 308.40 404.12 308.34 404.16
  Q 307.51 404.76 308.53 404.83
  Q 309.79 404.91 311.13 404.87
  Q 311.72 404.85 311.28 404.45
  L 310.92 404.13
  Q 310.50 403.76 310.48 403.20"
/>
<path stroke="#9eabfb" vector-effect="non-scaling-stroke" d="
  M 342.34 403.30
  Q 342.31 399.57 342.32 395.23
  Q 342.33 394.75 342.01 394.39
  Q 341.36 393.65 340.44 394.20
  Q 339.97 394.47 340.31 394.89
  Q 340.96 395.70 340.92 396.73
  Q 340.81 399.74 340.89 403.05
  Q 340.90 403.36 340.76 403.64
  Q 340.55 404.05 340.11 404.25
  Q 339.35 404.60 340.17 404.72
  Q 341.76 404.96 343.42 404.74
  Q 344.44 404.60 343.46 404.31
  L 343.00 404.17
  Q 342.34 403.98 342.34 403.30"
/>
<path stroke="#9eabfb" vector-effect="non-scaling-stroke" d="
  M 184.77 403.39
  A 1.77 1.73 -61.4 0 1 184.51 402.47
  L 184.52 394.92
  Q 184.52 394.32 183.92 394.32
  L 181.98 394.29
  Q 181.41 394.29 181.84 394.66
  L 182.52 395.24
  Q 183.02 395.66 183.01 396.32
  C 182.98 398.44 182.46 402.99 184.14 404.58
  Q 184.94 405.34 186.00 405.06
  Q 186.77 404.86 186.04 404.53
  Q 185.28 404.19 184.77 403.39"
/>
<path stroke="#9eabfb" vector-effect="non-scaling-stroke" d="
  M 300.2594 405.0900
  A 5.57 4.63 89.8 0 0 304.8700 399.5038
  A 5.57 4.63 89.8 0 0 300.2206 393.9500
  A 5.57 4.63 89.8 0 0 295.6100 399.5362
  A 5.57 4.63 89.8 0 0 300.2594 405.0900"
/>
<path stroke="#a9b8ff" vector-effect="non-scaling-stroke" d="
  M 312.96 394.71
  Q 313.51 395.37 313.57 396.21
  A 0.92 0.92 0.0 0 0 315.19 396.74
  Q 315.62 396.25 315.53 395.53
  Q 315.43 394.68 314.59 394.50
  L 313.27 394.21
  Q 312.38 394.01 312.96 394.71"
/>
<path stroke="#9eabfb" vector-effect="non-scaling-stroke" d="
  M 332.42 403.35
  Q 332.36 400.50 332.68 397.67
  Q 332.84 396.26 332.47 394.89
  Q 332.38 394.55 332.05 394.44
  Q 331.04 394.08 329.99 394.26
  Q 329.27 394.38 329.85 394.83
  L 330.56 395.38
  Q 331.09 395.79 331.06 396.46
  L 330.74 403.75
  A 0.58 0.57 88.3 0 1 330.23 404.30
  Q 329.88 404.33 329.92 404.58
  Q 329.99 405.05 330.47 405.02
  L 332.94 404.84
  Q 333.27 404.82 333.16 404.51
  Q 333.09 404.33 332.95 404.25
  Q 332.43 403.95 332.42 403.35"
/>
<path stroke="#9eabfb" vector-effect="non-scaling-stroke" d="
  M 335.63 395.78
  Q 335.36 396.29 335.62 396.81
  A 0.66 0.66 0.0 0 0 336.61 397.03
  Q 337.53 396.33 337.59 394.93
  A 0.63 0.62 0.8 0 0 336.94 394.27
  L 334.77 394.36
  Q 333.56 394.41 334.73 394.72
  L 335.21 394.85
  A 0.66 0.65 21.0 0 1 335.63 395.78"
/>
<path stroke="#9eabfb" vector-effect="non-scaling-stroke" d="
  M 211.36 399.16
  Q 211.20 399.16 211.09 399.03
  Q 210.82 398.68 210.83 399.13
  Q 210.85 399.60 211.30 399.74
  Q 211.99 399.96 212.68 399.81
  Q 213.64 399.60 212.69 399.36
  Q 212.03 399.18 211.36 399.16"
/>
<path stroke="#9eabfb" vector-effect="non-scaling-stroke" d="
  M 319.58 403.63
  Q 318.68 401.53 320.39 400.08
  Q 320.81 399.72 321.35 399.77
  Q 321.61 399.80 321.84 399.62
  Q 322.16 399.36 321.75 399.30
  C 318.71 398.85 316.51 401.36 318.07 404.17
  C 318.74 405.38 320.50 405.27 321.49 404.65
  Q 322.45 404.04 321.32 404.08
  L 320.33 404.11
  A 0.78 0.78 0.0 0 1 319.58 403.63"
/>
<path stroke="#9eabfb" vector-effect="non-scaling-stroke" d="
  M 214.05 404.19
  L 212.50 404.58
  Q 212.16 404.67 212.51 404.70
  Q 216.05 404.98 216.01 401.86
  Q 216.00 400.57 215.53 401.77
  L 214.86 403.48
  Q 214.64 404.04 214.05 404.19"
/>
<path stroke="#a9b8ff" vector-effect="non-scaling-stroke" d="
  M 285.5094 96.9769
  A 0.76 0.76 0.0 0 0 284.7468 96.2195
  L 272.9869 96.2606
  A 0.76 0.76 0.0 0 0 272.2295 97.0232
  L 272.2706 108.7831
  A 0.76 0.76 0.0 0 0 273.0332 109.5405
  L 284.7931 109.4994
  A 0.76 0.76 0.0 0 0 285.5505 108.7368
  L 285.5094 96.9769"
/>
<path stroke="#a9b8ff" vector-effect="non-scaling-stroke" d="
  M 235.8196 111.0584
  A 0.83 0.83 0.0 0 0 234.9882 110.2298
  L 223.3282 110.2502
  A 0.83 0.83 0.0 0 0 222.4996 111.0816
  L 222.5204 122.9816
  A 0.83 0.83 0.0 0 0 223.3518 123.8102
  L 235.0118 123.7898
  A 0.83 0.83 0.0 0 0 235.8404 122.9584
  L 235.8196 111.0584"
/>
<path stroke="#a9b8ff" vector-effect="non-scaling-stroke" d="
  M 285.5203 138.9216
  A 0.73 0.73 0.0 0 0 284.7916 138.1903
  L 272.9716 138.1697
  A 0.73 0.73 0.0 0 0 272.2403 138.8984
  L 272.2197 150.7384
  A 0.73 0.73 0.0 0 0 272.9484 151.4697
  L 284.7684 151.4903
  A 0.73 0.73 0.0 0 0 285.4997 150.7616
  L 285.5203 138.9216"
/>
<path stroke="#a9b8ff" vector-effect="non-scaling-stroke" d="
  M 214.2192 171.3885
  A 0.47 0.47 0.0 0 0 213.7484 170.9193
  L 201.4484 170.9407
  A 0.47 0.47 0.0 0 0 200.9792 171.4116
  L 201.0008 183.7715
  A 0.47 0.47 0.0 0 0 201.4716 184.2407
  L 213.7716 184.2193
  A 0.47 0.47 0.0 0 0 214.2408 183.7484
  L 214.2192 171.3885"
/>
<path stroke="#a9b8ff" vector-effect="non-scaling-stroke" d="
  M 244.0298 207.7984
  A 0.83 0.83 0.0 0 0 243.1983 206.9698
  L 231.4984 206.9902
  A 0.83 0.83 0.0 0 0 230.6698 207.8217
  L 230.6902 219.5216
  A 0.83 0.83 0.0 0 0 231.5217 220.3502
  L 243.2216 220.3298
  A 0.83 0.83 0.0 0 0 244.0502 219.4983
  L 244.0298 207.7984"
/>
<path stroke="#a9b8ff" vector-effect="non-scaling-stroke" d="
  M 214.24 243.21
  A 0.26 0.26 0.0 0 0 213.98 242.95
  L 201.24 242.95
  A 0.26 0.26 0.0 0 0 200.98 243.21
  L 200.98 255.95
  A 0.26 0.26 0.0 0 0 201.24 256.21
  L 213.98 256.21
  A 0.26 0.26 0.0 0 0 214.24 255.95
  L 214.24 243.21"
/>
<path stroke="#a9b8ff" vector-effect="non-scaling-stroke" d="
  M 244.0196 279.2633
  A 1.02 1.02 0.0 0 0 243.0032 278.2398
  L 231.7033 278.2003
  A 1.02 1.02 0.0 0 0 230.6797 279.2168
  L 230.6404 290.4967
  A 1.02 1.02 0.0 0 0 231.6568 291.5202
  L 242.9567 291.5597
  A 1.02 1.02 0.0 0 0 243.9803 290.5432
  L 244.0196 279.2633"
/>
<path stroke="#9eabfb" vector-effect="non-scaling-stroke" d="
  M 166.27 343.61
  L 166.09 351.13
  A 0.80 0.80 0.0 0 0 166.87 351.94
  L 169.12 352.00
  A 3.88 3.77 -88.6 0 0 172.98 348.21
  L 173.02 346.85
  A 3.88 3.77 -88.6 0 0 169.34 342.88
  L 167.09 342.83
  A 0.80 0.80 0.0 0 0 166.27 343.61"
/>
<path stroke="#9eabfb" vector-effect="non-scaling-stroke" d="
  M 165.97 356.12
  L 166.05 365.28
  A 0.98 0.98 0.0 0 0 167.04 366.25
  L 169.06 366.24
  A 4.40 4.27 -0.5 0 0 173.42 361.93
  L 173.40 359.35
  A 4.40 4.27 -0.5 0 0 168.96 355.12
  L 166.94 355.13
  A 0.98 0.98 0.0 0 0 165.97 356.12"
/>
<path stroke="#9eabfb" vector-effect="non-scaling-stroke" d="
  M 188.52 360.08
  A 1.03 1.03 0.0 0 0 186.74 359.27
  L 184.53 361.61
  A 1.03 1.03 0.0 0 0 184.25 362.39
  L 184.42 365.00
  A 1.03 1.03 0.0 0 0 185.57 365.95
  L 187.15 365.77
  A 1.03 1.03 0.0 0 0 188.05 364.84
  L 188.52 360.08"
/>
<path stroke="#9eabfb" vector-effect="non-scaling-stroke" d="
  M 312.1100 352.9614
  A 2.06 2.06 0.0 0 0 310.0321 350.9194
  L 309.8321 350.9212
  A 2.06 2.06 0.0 0 0 307.7902 352.9991
  L 307.8900 364.4386
  A 2.06 2.06 0.0 0 0 309.9679 366.4806
  L 310.1679 366.4788
  A 2.06 2.06 0.0 0 0 312.2098 364.4009
  L 312.1100 352.9614"
/>
<path stroke="#9eabfb" vector-effect="non-scaling-stroke" d="
  M 226.98 365.56
  A 0.80 0.80 0.0 0 0 227.64 364.87
  L 228.27 359.33
  A 0.80 0.80 0.0 0 0 226.91 358.67
  L 223.67 361.89
  A 0.80 0.80 0.0 0 0 223.45 362.59
  L 223.90 365.28
  A 0.80 0.80 0.0 0 0 224.82 365.94
  L 226.98 365.56"
/>
<path stroke="#9eabfb" vector-effect="non-scaling-stroke" d="
  M 270.6998 352.8779
  A 2.16 2.16 0.0 0 0 268.5474 350.7103
  L 268.3874 350.7098
  A 2.16 2.16 0.0 0 0 266.2199 352.8622
  L 266.1802 364.2421
  A 2.16 2.16 0.0 0 0 268.3326 366.4097
  L 268.4926 366.4102
  A 2.16 2.16 0.0 0 0 270.6601 364.2578
  L 270.6998 352.8779"
/>
<path stroke="#9eabfb" vector-effect="non-scaling-stroke" d="
  M 149.78 398.79
  A 0.33 0.33 0.0 0 0 150.10 399.23
  L 154.35 399.04
  A 0.33 0.33 0.0 0 0 154.65 398.60
  L 152.57 392.44
  A 0.33 0.33 0.0 0 0 151.95 392.44
  L 149.78 398.79"
/>
<path stroke="#9eabfb" vector-effect="non-scaling-stroke" d="
  M 350.7190 404.5900
  A 5.14 2.88 89.9 0 0 353.5900 399.4450
  A 5.14 2.88 89.9 0 0 350.7010 394.3100
  A 5.14 2.88 89.9 0 0 347.8300 399.4550
  A 5.14 2.88 89.9 0 0 350.7190 404.5900"
/>
<path stroke="#9eabfb" vector-effect="non-scaling-stroke" d="
  M 300.2711 404.6300
  A 5.11 2.90 90.1 0 0 303.1800 399.5251
  A 5.11 2.90 90.1 0 0 300.2889 394.4100
  A 5.11 2.90 90.1 0 0 297.3800 399.5149
  A 5.11 2.90 90.1 0 0 300.2711 404.6300"
/>
</g>
<path fill="#5271ff" d="
  M 0.00 0.00
  L 500.00 0.00
  L 500.00 500.00
  L 0.00 500.00
  L 0.00 0.00
  Z
  M 61.47 60.86
  C 62.26 61.15 62.90 61.25 63.75 61.25
  Q 99.55 61.33 142.37 61.57
  Q 155.95 61.64 169.15 61.11
  A 1.28 1.27 87.8 0 0 170.37 59.78
  Q 170.31 58.46 169.02 58.39
  Q 162.07 58.02 156.50 58.02
  Q 109.50 58.08 61.39 58.40
  A 0.41 0.41 0.0 0 1 60.98 57.99
  L 61.22 38.24
  A 0.43 0.42 3.1 0 1 61.69 37.82
  Q 62.71 37.95 63.68 37.96
  Q 110.72 38.19 157.92 38.17
  Q 162.59 38.17 167.04 37.95
  Q 168.29 37.89 168.14 36.65
  L 168.08 36.14
  Q 167.96 35.08 166.89 35.08
  L 58.97 35.07
  Q 58.32 35.07 58.29 35.71
  Q 57.80 46.46 58.43 57.59
  A 0.67 0.67 0.0 0 1 57.75 58.30
  L 35.83 58.08
  A 0.84 0.84 0.0 0 0 34.98 58.94
  Q 35.31 72.36 35.19 85.51
  Q 34.85 123.95 35.14 146.01
  Q 35.19 149.51 35.37 153.01
  A 0.84 0.84 0.0 0 0 36.27 153.80
  L 36.71 153.77
  Q 37.60 153.71 37.64 152.82
  Q 37.79 149.77 37.82 146.85
  Q 38.22 106.63 37.94 61.92
  A 0.56 0.55 89.5 0 1 38.48 61.36
  L 58.26 61.05
  A 0.25 0.25 0.0 0 1 58.51 61.30
  Q 58.37 105.43 58.54 152.12
  Q 58.54 152.81 58.86 153.22
  Q 59.36 153.87 60.28 153.52
  Q 60.71 153.35 60.72 152.89
  C 60.89 148.49 61.21 144.37 61.21 140.03
  Q 61.24 97.70 61.03 62.05
  Q 61.03 61.70 60.94 61.35
  Q 60.75 60.60 61.47 60.86
  Z
  M 441.96 61.15
  Q 451.81 61.57 461.38 61.06
  A 0.52 0.51 89.0 0 1 461.92 61.59
  Q 461.49 106.34 461.77 152.21
  A 1.82 1.81 -83.2 0 0 463.14 153.96
  Q 463.27 154.00 463.39 153.96
  A 2.10 2.07 82.4 0 0 464.91 151.94
  Q 465.19 104.29 464.74 58.67
  A 0.53 0.53 0.0 0 0 464.22 58.15
  C 456.66 58.08 449.17 57.81 441.77 58.35
  A 0.58 0.58 0.0 0 1 441.17 57.64
  Q 441.62 55.73 441.66 53.91
  Q 441.81 45.96 441.73 35.97
  Q 441.72 35.03 440.78 35.03
  L 332.71 35.15
  Q 331.82 35.15 331.76 36.04
  L 331.70 36.96
  A 1.03 1.02 -87.9 0 0 332.72 38.06
  Q 379.06 38.14 424.75 38.15
  Q 431.16 38.15 438.05 37.88
  A 0.61 0.61 0.0 0 1 438.68 38.49
  L 438.67 57.82
  A 0.38 0.37 -89.3 0 1 438.29 58.20
  Q 382.82 57.91 338.39 58.10
  Q 334.74 58.11 330.77 58.34
  Q 329.62 58.41 329.40 59.53
  L 329.31 59.98
  A 0.92 0.91 7.0 0 0 330.17 61.07
  Q 341.01 61.54 352.74 61.54
  Q 391.39 61.54 429.49 61.38
  Q 433.53 61.36 438.17 61.03
  A 0.59 0.59 0.0 0 1 438.80 61.63
  Q 438.20 105.17 438.80 152.31
  Q 438.81 153.35 439.82 153.60
  Q 440.50 153.77 441.26 152.81
  A 1.39 1.37 64.9 0 0 441.55 151.99
  Q 441.83 120.53 441.75 80.80
  C 441.74 74.41 441.35 68.09 441.43 61.65
  Q 441.44 61.12 441.96 61.15
  Z
  M 330.91 110.80
  L 336.97 114.61
  Q 338.24 115.40 338.24 116.90
  L 338.24 310.75
  A 0.51 0.51 0.0 0 0 338.75 311.26
  L 369.19 311.27
  Q 370.40 311.27 370.40 310.06
  L 370.41 306.65
  Q 370.41 305.25 369.02 305.25
  L 345.02 305.24
  A 0.72 0.72 0.0 0 1 344.30 304.52
  L 344.28 112.98
  A 0.95 0.94 -73.4 0 0 343.86 112.19
  Q 322.14 97.87 299.12 82.85
  C 297.40 81.72 295.38 81.54 293.39 81.81
  Q 250.32 87.58 204.22 93.87
  A 3.14 3.13 86.1 0 0 201.51 96.98
  L 201.50 141.21
  A 0.92 0.91 -86.0 0 0 202.28 142.12
  Q 227.88 145.59 253.54 149.06
  Q 262.22 150.24 262.23 159.42
  Q 262.35 239.20 262.17 306.89
  Q 262.17 308.53 261.87 310.32
  Q 261.76 310.96 262.41 310.96
  L 296.85 311.28
  A 2.20 2.20 0.0 0 0 299.05 309.40
  Q 299.30 307.73 299.31 305.75
  Q 299.89 160.41 299.28 93.25
  Q 299.27 92.44 299.31 91.61
  A 0.75 0.74 17.7 0 1 300.46 91.02
  L 308.51 96.17
  A 2.14 2.13 -73.7 0 1 309.49 97.97
  L 309.51 310.07
  Q 309.51 310.88 310.32 310.90
  L 314.97 311.04
  Q 315.75 311.06 315.75 310.28
  L 315.75 101.59
  A 0.44 0.44 0.0 0 1 316.44 101.23
  L 323.25 105.90
  Q 324.00 106.41 324.00 107.32
  L 324.00 310.25
  Q 324.00 310.99 324.75 310.99
  L 329.26 310.99
  Q 330.01 310.98 330.01 310.24
  L 330.00 111.30
  Q 330.00 110.24 330.91 110.80
  Z
  M 185.24 155.76
  Q 185.30 228.56 185.29 307.07
  Q 185.29 308.59 185.50 310.13
  Q 185.57 310.66 186.09 310.77
  Q 188.01 311.21 189.72 311.20
  Q 221.02 311.07 253.73 310.43
  Q 256.01 310.38 256.01 308.10
  Q 255.96 234.26 256.02 159.69
  Q 256.02 158.43 255.80 157.31
  A 2.44 2.44 0.0 0 0 253.72 155.35
  L 188.74 146.58
  A 4.94 4.89 32.0 0 0 185.41 147.33
  L 154.12 167.90
  Q 152.98 168.65 152.98 170.01
  L 153.02 305.77
  Q 153.02 306.05 152.73 306.05
  L 130.39 305.98
  Q 129.76 305.97 129.79 306.61
  L 130.02 310.50
  A 0.73 0.73 0.0 0 0 130.75 311.19
  L 157.94 311.30
  A 0.61 0.61 0.0 0 0 158.55 310.66
  Q 158.26 302.32 158.31 292.02
  Q 158.59 235.13 158.42 173.62
  Q 158.41 171.72 159.96 170.62
  L 161.66 169.41
  Q 163.27 168.26 163.27 170.24
  L 163.34 309.70
  Q 163.34 310.56 164.20 310.54
  L 167.74 310.48
  Q 168.70 310.47 168.70 309.51
  L 168.73 166.46
  A 2.74 2.73 -16.5 0 1 169.99 164.16
  L 172.21 162.74
  Q 173.53 161.89 173.53 163.46
  L 173.55 309.76
  Q 173.55 310.47 174.26 310.47
  L 178.25 310.49
  A 0.73 0.72 -89.6 0 0 178.98 309.76
  L 178.99 159.64
  A 2.66 2.66 0.0 0 1 180.26 157.37
  L 184.01 155.07
  Q 185.24 154.32 185.24 155.76
  Z
  M 200.76 349.22
  A 0.53 0.53 0.0 0 1 199.94 348.76
  L 200.11 340.94
  Q 200.14 339.48 198.69 339.35
  L 198.16 339.30
  Q 195.81 339.10 195.85 341.46
  L 196.29 368.23
  A 0.73 0.72 -89.2 0 0 196.98 368.95
  L 199.33 369.04
  A 0.62 0.62 0.0 0 0 199.98 368.42
  L 200.03 352.77
  A 1.43 1.42 -4.8 0 1 201.22 351.37
  L 202.71 351.11
  Q 204.33 350.82 204.34 352.47
  L 204.46 368.23
  Q 204.46 369.04 205.27 369.05
  L 207.52 369.10
  Q 208.30 369.11 208.30 368.34
  Q 208.37 358.40 208.17 351.11
  C 208.04 346.56 203.04 347.80 200.76 349.22
  Z
  M 173.68 353.18
  L 174.79 352.27
  Q 175.25 351.89 175.50 351.35
  C 177.35 347.39 177.05 341.34 171.93 340.07
  C 168.98 339.34 165.70 339.51 162.67 339.53
  Q 161.92 339.53 161.92 340.28
  L 162.12 368.24
  Q 162.13 368.75 162.64 368.77
  Q 167.73 369.00 171.53 368.73
  Q 175.93 368.42 176.94 363.59
  C 177.57 360.55 177.44 354.92 173.82 353.86
  A 0.39 0.39 0.0 0 1 173.68 353.18
  Z
  M 249.01 343.57
  Q 250.85 342.30 253.22 342.81
  C 255.78 343.36 255.41 347.33 255.19 349.23
  Q 255.08 350.20 256.04 350.26
  L 257.50 350.35
  A 1.30 1.29 3.8 0 0 258.88 349.15
  Q 259.04 347.00 258.61 344.77
  C 257.58 339.44 252.04 338.52 247.74 340.27
  C 242.98 342.20 243.57 350.83 243.74 354.94
  C 243.89 358.51 243.63 361.99 244.86 365.39
  C 246.26 369.26 251.09 369.61 254.56 368.78
  C 258.54 367.82 259.07 362.46 258.96 359.04
  Q 258.92 358.06 257.94 358.03
  L 256.07 357.97
  Q 255.33 357.94 255.31 358.68
  L 255.16 362.74
  Q 255.04 366.21 251.56 366.19
  Q 251.16 366.19 250.77 366.12
  Q 248.28 365.67 248.02 363.15
  Q 247.23 355.46 248.18 344.99
  A 1.98 1.98 0.0 0 1 249.01 343.57
  Z
  M 294.20 351.23
  A 1.28 1.28 0.0 0 1 294.98 352.41
  L 295.03 368.17
  A 0.87 0.87 0.0 0 0 295.92 369.04
  L 298.02 369.01
  Q 298.77 368.99 298.78 368.23
  L 298.95 352.02
  A 0.76 0.75 82.1 0 1 299.48 351.31
  L 301.36 350.73
  Q 301.85 350.57 302.05 350.10
  Q 302.44 349.19 301.77 348.53
  C 301.20 347.97 300.40 348.03 299.68 347.87
  Q 298.97 347.70 298.92 346.97
  Q 298.84 345.73 299.21 344.58
  Q 299.42 343.93 300.11 343.94
  Q 300.74 343.96 301.32 343.75
  Q 301.79 343.58 301.91 343.10
  Q 302.44 341.05 300.48 340.78
  C 297.64 340.40 295.31 341.63 295.12 344.57
  Q 295.04 345.78 294.79 346.95
  Q 294.68 347.47 294.22 347.73
  L 292.54 348.72
  A 1.04 1.04 0.0 0 0 292.66 350.58
  L 294.20 351.23
  Z
  M 216.0200 341.8730
  A 0.85 0.85 0.0 0 0 215.1626 341.0305
  L 212.9627 341.0497
  A 0.85 0.85 0.0 0 0 212.1201 341.9071
  L 212.1400 344.1870
  A 0.85 0.85 0.0 0 0 212.9974 345.0295
  L 215.1973 345.0103
  A 0.85 0.85 0.0 0 0 216.0399 344.1529
  L 216.0200 341.8730
  Z
  M 336.21 347.06
  L 336.22 343.08
  Q 336.22 341.94 335.08 341.98
  L 333.28 342.05
  Q 331.91 342.10 332.02 343.47
  L 332.27 346.60
  A 1.26 1.24 62.9 0 1 331.98 347.53
  Q 331.54 348.05 330.84 348.24
  Q 330.15 348.43 329.89 349.10
  Q 329.59 349.85 330.16 350.36
  A 1.23 1.22 69.5 0 0 330.81 350.66
  Q 332.38 350.86 332.30 352.50
  Q 331.94 360.11 332.66 366.13
  C 333.01 369.05 336.28 369.35 338.55 369.14
  Q 339.14 369.08 339.28 368.51
  Q 339.55 367.45 338.80 366.65
  A 1.29 1.23 73.0 0 0 338.16 366.29
  L 336.77 366.00
  Q 336.18 365.87 336.18 365.27
  L 336.15 352.00
  Q 336.15 350.61 337.53 350.74
  Q 338.94 350.87 339.45 349.76
  A 0.97 0.96 -65.5 0 0 338.98 348.49
  Q 338.04 348.04 337.03 347.96
  Q 336.20 347.89 336.21 347.06
  Z
  M 61.42 441.35
  C 96.35 441.43 132.70 441.42 169.24 441.21
  Q 170.12 441.21 170.21 440.33
  Q 170.23 440.15 170.23 439.98
  Q 170.21 438.78 169.02 438.78
  L 61.47 438.78
  A 0.47 0.47 0.0 0 1 61.00 438.31
  Q 61.23 396.76 61.19 355.30
  C 61.18 352.51 60.72 349.87 60.76 347.08
  A 0.72 0.71 3.0 0 0 60.10 346.36
  L 59.23 346.29
  Q 58.45 346.23 58.45 347.02
  L 58.45 437.94
  Q 58.45 439.00 57.39 438.95
  Q 47.97 438.55 38.93 439.04
  Q 37.94 439.09 37.94 438.10
  L 38.06 346.82
  Q 38.06 345.79 37.06 346.06
  L 36.21 346.29
  Q 35.36 346.52 35.37 347.40
  C 35.40 350.71 35.02 354.42 35.02 357.55
  Q 35.04 399.10 35.37 441.23
  A 0.35 0.35 0.0 0 0 35.73 441.58
  L 58.13 441.09
  A 0.53 0.53 0.0 0 1 58.67 441.72
  Q 58.39 443.17 58.39 444.79
  Q 58.36 454.06 58.34 464.40
  A 0.32 0.31 -0.0 0 0 58.66 464.71
  L 167.30 464.74
  A 0.93 0.92 86.4 0 0 168.21 463.70
  L 168.15 463.19
  A 1.08 1.08 0.0 0 0 167.08 462.25
  L 62.01 462.25
  A 1.00 1.00 0.0 0 1 61.01 461.26
  L 60.95 441.82
  A 0.47 0.47 0.0 0 1 61.42 441.35
  Z
  M 460.99 438.95
  Q 451.50 438.41 441.87 439.14
  Q 441.35 439.18 441.35 438.65
  Q 441.83 394.43 441.59 347.40
  Q 441.59 346.56 440.76 346.46
  L 439.59 346.32
  Q 438.74 346.22 438.73 347.07
  Q 438.44 388.48 438.85 434.60
  Q 438.87 436.49 439.08 438.33
  A 0.64 0.64 0.0 0 1 438.42 439.05
  Q 435.04 438.91 431.73 438.89
  Q 380.65 438.61 330.70 438.87
  Q 330.13 438.87 329.87 439.38
  Q 329.61 439.90 329.72 440.48
  Q 329.87 441.24 330.64 441.25
  C 366.73 441.65 402.94 441.41 438.27 441.22
  A 0.70 0.70 0.0 0 1 438.97 441.93
  L 438.87 461.67
  A 0.55 0.54 -90.0 0 1 438.33 462.22
  L 332.62 462.23
  Q 331.71 462.23 331.48 463.12
  Q 331.30 463.81 332.68 464.46
  A 2.07 1.97 55.8 0 0 333.51 464.64
  L 441.29 464.80
  A 0.30 0.30 0.0 0 0 441.59 464.49
  L 441.38 442.23
  A 0.77 0.77 0.0 0 1 442.12 441.45
  Q 452.48 441.11 463.51 441.59
  Q 464.82 441.64 464.83 440.33
  Q 465.06 396.19 464.92 352.30
  C 464.92 350.65 464.59 349.01 464.73 347.36
  Q 464.82 346.29 463.76 346.15
  L 462.91 346.04
  Q 461.71 345.88 461.71 347.09
  L 461.81 438.16
  A 0.79 0.78 -88.6 0 1 460.99 438.95
  Z
  M 188.71 367.55
  Q 189.35 369.80 192.16 368.90
  Q 192.68 368.73 192.64 368.18
  Q 192.27 362.61 192.49 356.38
  C 192.66 351.43 191.66 347.42 185.57 347.83
  C 182.30 348.05 180.43 350.56 180.45 353.67
  A 1.21 1.21 0.0 0 0 181.02 354.68
  Q 182.26 355.43 183.66 354.55
  Q 184.10 354.28 184.16 353.77
  L 184.29 352.57
  A 2.02 2.00 6.8 0 1 186.54 350.81
  C 188.72 351.09 188.67 353.77 188.26 355.34
  Q 188.11 355.92 187.57 356.20
  C 183.46 358.32 179.41 359.93 180.49 365.60
  C 181.23 369.53 185.81 370.49 188.19 367.44
  Q 188.55 366.98 188.71 367.55
  Z
  M 215.9565 348.8535
  A 0.92 0.92 0.0 0 0 215.0333 347.9367
  L 213.1133 347.9434
  A 0.92 0.92 0.0 0 0 212.1965 348.8666
  L 212.2635 368.0465
  A 0.92 0.92 0.0 0 0 213.1867 368.9633
  L 215.1067 368.9566
  A 0.92 0.92 0.0 0 0 216.0235 368.0334
  L 215.9565 348.8535
  Z
  M 284.04 348.46
  C 282.58 348.86 281.35 348.41 279.93 348.05
  Q 278.01 347.56 278.01 349.53
  L 278.00 367.99
  A 1.01 1.01 0.0 0 0 278.99 369.00
  L 281.07 369.04
  A 0.86 0.85 -89.3 0 0 281.94 368.18
  L 281.98 353.16
  A 1.88 1.88 0.0 0 1 283.32 351.37
  L 284.22 351.09
  Q 285.78 350.62 285.90 352.25
  Q 286.47 360.23 286.16 368.30
  A 0.62 0.62 0.0 0 0 286.77 368.95
  L 289.49 369.00
  Q 290.05 369.01 290.06 368.46
  Q 290.23 360.06 290.09 351.25
  C 290.02 347.14 286.77 347.72 284.04 348.46
  Z
  M 315.9775 353.4911
  A 5.61 5.61 0.0 0 0 310.3871 347.8615
  L 309.5471 347.8586
  A 5.61 5.61 0.0 0 0 303.9176 353.4490
  L 303.8825 363.5089
  A 5.61 5.61 0.0 0 0 309.4729 369.1385
  L 310.3129 369.1414
  A 5.61 5.61 0.0 0 0 315.9424 363.5510
  L 315.9775 353.4911
  Z
  M 324.72 349.25
  A 0.65 0.64 -43.0 0 1 323.83 349.22
  Q 321.44 346.76 319.93 348.33
  A 1.46 1.42 -23.7 0 0 319.53 349.32
  L 319.58 368.03
  Q 319.58 368.98 320.53 368.98
  L 322.40 368.99
  Q 323.29 368.99 323.31 368.10
  L 323.55 353.71
  A 1.48 1.47 85.5 0 1 324.77 352.28
  L 327.77 351.76
  Q 328.27 351.67 328.53 351.24
  Q 329.20 350.14 328.77 348.83
  A 1.06 1.06 0.0 0 0 327.87 348.10
  Q 326.19 347.93 324.72 349.25
  Z
  M 228.58 367.84
  Q 229.39 369.50 231.45 369.07
  Q 232.02 368.95 232.01 368.37
  Q 231.89 361.66 231.76 354.13
  C 231.72 351.52 230.87 348.57 227.89 348.07
  Q 221.46 347.02 219.94 352.64
  A 1.71 1.70 -66.4 0 0 220.68 354.53
  Q 221.96 355.33 223.27 354.46
  Q 223.72 354.16 223.77 353.62
  C 223.93 351.75 224.69 349.87 227.04 350.92
  Q 227.43 351.10 227.58 351.50
  Q 228.31 353.49 228.08 355.38
  A 1.18 1.17 85.1 0 1 227.25 356.37
  C 222.94 357.67 219.16 360.31 220.05 365.51
  C 220.83 370.02 224.79 369.36 227.86 367.61
  Q 228.34 367.34 228.58 367.84
  Z
  M 274.4775 353.5510
  A 5.60 5.60 0.0 0 0 268.8971 347.9315
  L 268.0571 347.9286
  A 5.60 5.60 0.0 0 0 262.4376 353.5090
  L 262.4025 363.5490
  A 5.60 5.60 0.0 0 0 267.9829 369.1685
  L 268.8229 369.1714
  A 5.60 5.60 0.0 0 0 274.4424 363.5910
  L 274.4775 353.5510
  Z
  M 202.02 404.00
  L 201.78 404.18
  Q 201.03 404.73 201.96 404.75
  L 204.25 404.81
  Q 205.13 404.84 204.50 404.22
  C 204.00 403.72 203.74 402.94 203.76 402.25
  Q 203.93 395.81 203.77 389.07
  Q 203.76 388.38 203.46 387.79
  Q 203.27 387.39 202.76 387.57
  Q 202.58 387.63 201.77 387.92
  Q 201.30 388.08 201.62 388.46
  Q 202.18 389.15 202.22 390.11
  Q 202.51 398.41 202.34 403.40
  Q 202.33 403.78 202.02 404.00
  Z
  M 155.68 404.03
  L 154.46 404.40
  Q 153.42 404.72 154.50 404.85
  Q 157.95 405.28 160.64 404.81
  C 163.09 404.38 164.90 405.37 167.26 404.67
  Q 167.89 404.49 167.24 404.39
  L 166.39 404.27
  Q 165.85 404.19 165.84 403.64
  L 165.79 388.26
  Q 165.79 387.73 165.26 387.69
  L 164.32 387.62
  Q 164.00 387.59 164.01 387.92
  L 164.45 403.50
  Q 164.47 404.12 163.87 404.28
  Q 161.46 404.95 158.97 404.09
  Q 158.46 403.91 158.29 403.40
  L 153.35 388.77
  Q 152.78 387.10 152.20 388.76
  L 147.23 403.01
  A 1.01 0.97 -4.5 0 1 146.75 403.55
  L 145.04 404.39
  Q 144.42 404.69 145.11 404.71
  Q 148.04 404.79 150.76 404.93
  Q 150.83 404.93 150.82 404.87
  L 150.81 404.62
  Q 150.80 404.25 150.43 404.27
  Q 147.94 404.41 148.61 401.63
  Q 149.09 399.68 151.09 399.80
  L 154.67 400.01
  A 1.00 0.99 84.4 0 1 155.58 400.76
  L 156.18 403.14
  Q 156.36 403.83 155.68 404.03
  Z
  M 244.02 403.42
  L 244.00 389.30
  Q 244.00 388.64 244.66 388.54
  Q 246.27 388.31 247.69 388.81
  A 1.34 1.32 86.4 0 1 248.44 389.48
  Q 249.24 391.18 249.41 393.16
  Q 249.44 393.44 249.71 393.42
  L 250.04 393.41
  Q 250.24 393.40 250.23 393.20
  L 249.92 388.46
  A 0.71 0.71 0.0 0 0 249.21 387.79
  L 237.26 387.89
  A 0.93 0.93 0.0 0 0 236.36 388.63
  Q 235.94 390.75 236.36 393.03
  Q 236.53 393.93 236.81 393.06
  Q 237.06 392.27 237.10 391.42
  Q 237.20 389.55 238.92 388.82
  Q 239.75 388.46 240.66 388.33
  Q 242.26 388.10 242.25 389.72
  L 242.17 403.35
  Q 242.16 403.85 241.74 404.12
  Q 240.88 404.68 239.72 404.44
  Q 239.70 404.44 239.70 404.46
  L 239.70 404.72
  Q 239.70 405.01 239.99 405.00
  Q 243.31 404.97 246.27 404.97
  Q 246.44 404.97 246.53 404.81
  Q 246.56 404.77 246.55 404.72
  Q 246.52 404.50 246.30 404.44
  Q 245.48 404.20 244.68 404.13
  Q 244.02 404.07 244.02 403.42
  Z
  M 197.5430 390.0443
  A 1.12 0.94 12.6 0 0 196.6551 388.8826
  A 1.12 0.94 12.6 0 0 195.3570 389.5557
  A 1.12 0.94 12.6 0 0 196.2449 390.7174
  A 1.12 0.94 12.6 0 0 197.5430 390.0443
  Z
  M 342.5154 389.6694
  A 1.11 0.94 -5.2 0 0 341.3248 388.8339
  A 1.11 0.94 -5.2 0 0 340.3046 389.8706
  A 1.11 0.94 -5.2 0 0 341.4952 390.7061
  A 1.11 0.94 -5.2 0 0 342.5154 389.6694
  Z
  M 256.39 399.32
  Q 256.20 399.34 256.05 399.23
  Q 255.85 399.09 255.67 399.25
  Q 255.29 399.59 256.64 399.95
  A 1.46 1.24 -38.2 0 0 257.16 399.97
  L 260.82 399.37
  Q 261.42 399.27 261.28 398.68
  C 260.75 396.52 259.98 393.67 257.21 393.92
  C 251.00 394.47 251.71 405.76 257.66 405.16
  Q 260.34 404.89 260.89 402.39
  Q 261.29 400.56 260.38 402.20
  C 258.13 406.26 254.76 404.55 254.72 400.60
  Q 254.72 400.20 254.94 399.87
  Q 255.20 399.47 254.99 399.05
  C 254.30 397.70 255.10 395.85 256.09 394.86
  A 1.19 1.18 28.1 0 1 257.17 394.54
  Q 259.19 394.96 259.31 397.62
  Q 259.38 398.94 258.07 399.13
  Q 257.21 399.25 256.39 399.32
  Z
  M 277.03 395.12
  C 278.19 396.68 277.81 401.07 277.68 403.23
  Q 277.65 403.78 277.30 404.18
  Q 276.89 404.64 277.49 404.77
  Q 278.74 405.06 279.88 404.95
  Q 280.53 404.89 280.05 404.45
  C 279.37 403.83 279.00 403.20 279.12 402.24
  Q 279.54 398.76 278.80 395.30
  Q 278.69 394.81 278.29 394.51
  Q 276.51 393.20 274.65 394.35
  Q 274.00 394.75 274.74 394.56
  Q 275.28 394.41 275.88 394.47
  Q 276.59 394.54 277.03 395.12
  Z
  M 319.57 395.40
  Q 319.38 395.00 319.78 394.82
  Q 322.32 393.64 323.74 395.72
  Q 324.08 396.21 323.96 396.80
  C 323.59 398.72 324.38 401.55 323.02 402.99
  Q 322.72 403.30 323.12 403.43
  Q 324.10 403.77 324.73 404.59
  A 1.09 1.09 0.0 0 0 325.99 404.93
  L 326.25 404.83
  Q 327.07 404.51 326.33 404.01
  Q 324.99 403.12 325.25 401.44
  C 325.54 399.59 325.29 397.62 325.03 395.77
  Q 324.95 395.18 324.50 394.79
  Q 322.72 393.23 319.83 394.12
  C 318.71 394.46 318.32 395.51 318.29 396.54
  A 1.26 1.25 -79.1 0 0 319.11 397.76
  L 319.76 398.00
  Q 321.03 398.47 320.45 397.25
  L 319.57 395.40
  Z
  M 350.6310 405.1391
  A 5.67 4.62 91.0 0 0 355.3493 399.5506
  A 5.67 4.62 91.0 0 0 350.8290 393.8009
  A 5.67 4.62 91.0 0 0 346.1107 399.3894
  A 5.67 4.62 91.0 0 0 350.6310 405.1391
  Z
  M 175.95 409.98
  Q 175.82 410.03 175.77 410.15
  Q 175.62 410.49 175.99 410.51
  L 178.00 410.64
  Q 178.66 410.68 178.55 410.03
  C 177.76 405.46 178.14 400.41 178.29 395.72
  Q 178.31 395.08 177.68 395.19
  Q 177.51 395.22 177.40 395.33
  Q 176.93 395.74 176.50 395.30
  Q 174.57 393.33 171.46 394.44
  Q 171.06 394.58 170.85 394.95
  C 169.25 397.87 168.83 403.81 172.86 405.20
  Q 173.25 405.34 173.59 405.12
  Q 174.16 404.76 173.54 404.52
  C 170.77 403.44 171.18 398.72 171.67 396.28
  Q 172.05 394.37 174.14 394.79
  Q 175.99 395.15 176.33 396.67
  Q 177.15 400.27 175.95 403.81
  Q 175.80 404.23 176.05 404.61
  Q 177.61 407.06 176.16 409.80
  Q 176.09 409.94 175.95 409.98
  Z
  M 190.86 402.46
  C 191.15 399.99 190.96 397.18 190.63 394.64
  Q 190.57 394.16 190.10 394.01
  Q 189.50 393.83 188.88 393.93
  Q 188.42 394.00 188.66 394.41
  C 190.14 396.94 189.45 401.29 188.55 403.92
  Q 188.36 404.48 188.94 404.57
  Q 190.25 404.78 191.49 404.78
  Q 192.35 404.77 191.67 404.25
  Q 191.25 403.92 191.02 403.42
  Q 190.81 402.97 190.86 402.46
  Z
  M 195.28 404.72
  L 197.19 405.05
  Q 197.88 405.17 197.77 404.48
  Q 197.01 399.56 197.31 394.64
  Q 197.34 394.06 196.77 394.03
  Q 195.99 393.98 195.26 394.24
  Q 194.51 394.50 195.21 394.88
  Q 195.46 395.02 195.60 395.26
  Q 195.90 395.76 195.94 396.33
  Q 196.13 399.75 195.84 403.19
  Q 195.80 403.69 195.45 404.05
  Q 195.34 404.16 195.19 404.22
  Q 194.33 404.56 195.28 404.72
  Z
  M 216.30 398.73
  C 215.93 396.80 215.10 394.02 212.66 393.96
  Q 209.00 393.88 208.25 397.26
  C 207.70 399.71 207.71 404.17 210.99 404.75
  Q 212.95 405.09 211.18 404.18
  Q 209.89 403.52 209.86 401.79
  Q 209.81 399.62 209.81 397.52
  Q 209.82 395.31 211.99 394.51
  A 0.89 0.87 53.8 0 1 212.84 394.65
  Q 215.01 396.37 214.17 398.92
  Q 214.03 399.36 214.43 399.57
  Q 214.98 399.85 215.62 399.73
  A 0.85 0.85 0.0 0 0 216.30 398.73
  Z
  M 221.78 404.73
  Q 222.01 404.67 221.97 404.44
  Q 221.29 400.06 222.29 395.45
  Q 222.43 394.84 221.86 394.57
  Q 220.79 394.07 219.63 394.16
  Q 218.77 394.22 219.41 394.80
  C 219.80 395.14 220.09 395.54 220.14 396.07
  Q 220.65 400.83 219.53 404.61
  Q 219.46 404.86 219.72 404.89
  Q 220.74 405.00 221.78 404.73
  Z
  M 224.33 394.31
  L 225.25 397.00
  A 0.23 0.23 0.0 0 0 225.54 397.14
  L 225.66 397.10
  A 1.50 1.47 71.0 0 0 226.56 395.21
  L 226.46 394.92
  A 1.50 1.47 71.0 0 0 224.58 393.98
  L 224.47 394.02
  A 0.23 0.23 0.0 0 0 224.33 394.31
  Z
  M 266.69 403.54
  Q 266.44 400.01 266.89 396.32
  Q 266.96 395.79 267.31 395.40
  Q 267.41 395.29 267.54 395.23
  Q 268.36 394.80 267.47 394.58
  Q 265.98 394.22 264.57 394.17
  Q 263.78 394.14 264.28 394.75
  L 264.70 395.26
  Q 265.16 395.82 265.15 396.54
  L 265.07 403.53
  Q 265.06 403.82 264.84 404.02
  Q 264.72 404.13 264.59 404.23
  Q 263.80 404.81 264.78 404.86
  C 266.92 404.96 268.94 404.42 271.05 404.82
  Q 272.47 405.09 273.75 404.85
  Q 274.41 404.72 273.80 404.46
  L 273.53 404.35
  Q 273.06 404.14 273.03 403.64
  Q 272.78 399.69 273.34 395.98
  Q 273.41 395.52 273.06 395.21
  Q 271.03 393.39 268.70 394.40
  A 0.13 0.13 0.0 0 0 268.77 394.65
  C 270.38 394.38 271.61 395.41 271.45 397.01
  Q 271.14 400.30 271.48 403.40
  A 1.07 1.06 -3.1 0 1 270.42 404.58
  L 267.78 404.56
  Q 266.76 404.56 266.69 403.54
  Z
  M 284.31 400.30
  Q 284.65 404.83 283.97 410.09
  Q 283.89 410.75 284.55 410.66
  Q 285.19 410.58 285.78 410.71
  Q 286.42 410.85 286.21 410.23
  Q 285.21 407.29 286.35 404.28
  Q 286.53 403.81 286.38 403.32
  Q 285.36 400.09 286.13 396.59
  A 2.56 2.56 0.0 0 1 288.83 394.58
  Q 290.49 394.71 290.82 396.41
  C 291.31 398.91 291.87 404.51 288.01 404.83
  Q 287.91 404.84 287.92 404.94
  L 287.98 405.22
  Q 287.99 405.28 288.05 405.28
  Q 291.20 405.29 292.23 402.64
  Q 293.22 400.07 292.64 397.11
  C 292.23 395.04 290.34 393.50 288.17 394.22
  Q 286.05 394.92 283.98 394.03
  Q 283.54 393.83 283.11 394.10
  Q 282.67 394.38 283.14 394.63
  C 285.48 395.85 284.16 398.25 284.31 400.30
  Z
  M 310.48 403.20
  Q 310.36 399.95 310.82 396.66
  Q 311.18 394.08 308.66 394.02
  A 0.48 0.47 -11.5 0 0 308.21 394.69
  C 308.54 395.41 308.96 396.01 308.97 396.83
  Q 309.03 399.97 308.79 403.30
  Q 308.76 403.75 308.45 404.07
  Q 308.40 404.12 308.34 404.16
  Q 307.51 404.76 308.53 404.83
  Q 309.79 404.91 311.13 404.87
  Q 311.72 404.85 311.28 404.45
  L 310.92 404.13
  Q 310.50 403.76 310.48 403.20
  Z
  M 342.34 403.30
  Q 342.31 399.57 342.32 395.23
  Q 342.33 394.75 342.01 394.39
  Q 341.36 393.65 340.44 394.20
  Q 339.97 394.47 340.31 394.89
  Q 340.96 395.70 340.92 396.73
  Q 340.81 399.74 340.89 403.05
  Q 340.90 403.36 340.76 403.64
  Q 340.55 404.05 340.11 404.25
  Q 339.35 404.60 340.17 404.72
  Q 341.76 404.96 343.42 404.74
  Q 344.44 404.60 343.46 404.31
  L 343.00 404.17
  Q 342.34 403.98 342.34 403.30
  Z
  M 184.77 403.39
  A 1.77 1.73 -61.4 0 1 184.51 402.47
  L 184.52 394.92
  Q 184.52 394.32 183.92 394.32
  L 181.98 394.29
  Q 181.41 394.29 181.84 394.66
  L 182.52 395.24
  Q 183.02 395.66 183.01 396.32
  C 182.98 398.44 182.46 402.99 184.14 404.58
  Q 184.94 405.34 186.00 405.06
  Q 186.77 404.86 186.04 404.53
  Q 185.28 404.19 184.77 403.39
  Z
  M 300.2594 405.0900
  A 5.57 4.63 89.8 0 0 304.8700 399.5038
  A 5.57 4.63 89.8 0 0 300.2206 393.9500
  A 5.57 4.63 89.8 0 0 295.6100 399.5362
  A 5.57 4.63 89.8 0 0 300.2594 405.0900
  Z
  M 312.96 394.71
  Q 313.51 395.37 313.57 396.21
  A 0.92 0.92 0.0 0 0 315.19 396.74
  Q 315.62 396.25 315.53 395.53
  Q 315.43 394.68 314.59 394.50
  L 313.27 394.21
  Q 312.38 394.01 312.96 394.71
  Z
  M 332.42 403.35
  Q 332.36 400.50 332.68 397.67
  Q 332.84 396.26 332.47 394.89
  Q 332.38 394.55 332.05 394.44
  Q 331.04 394.08 329.99 394.26
  Q 329.27 394.38 329.85 394.83
  L 330.56 395.38
  Q 331.09 395.79 331.06 396.46
  L 330.74 403.75
  A 0.58 0.57 88.3 0 1 330.23 404.30
  Q 329.88 404.33 329.92 404.58
  Q 329.99 405.05 330.47 405.02
  L 332.94 404.84
  Q 333.27 404.82 333.16 404.51
  Q 333.09 404.33 332.95 404.25
  Q 332.43 403.95 332.42 403.35
  Z
  M 335.63 395.78
  Q 335.36 396.29 335.62 396.81
  A 0.66 0.66 0.0 0 0 336.61 397.03
  Q 337.53 396.33 337.59 394.93
  A 0.63 0.62 0.8 0 0 336.94 394.27
  L 334.77 394.36
  Q 333.56 394.41 334.73 394.72
  L 335.21 394.85
  A 0.66 0.65 21.0 0 1 335.63 395.78
  Z
  M 211.36 399.16
  Q 211.20 399.16 211.09 399.03
  Q 210.82 398.68 210.83 399.13
  Q 210.85 399.60 211.30 399.74
  Q 211.99 399.96 212.68 399.81
  Q 213.64 399.60 212.69 399.36
  Q 212.03 399.18 211.36 399.16
  Z
  M 319.58 403.63
  Q 318.68 401.53 320.39 400.08
  Q 320.81 399.72 321.35 399.77
  Q 321.61 399.80 321.84 399.62
  Q 322.16 399.36 321.75 399.30
  C 318.71 398.85 316.51 401.36 318.07 404.17
  C 318.74 405.38 320.50 405.27 321.49 404.65
  Q 322.45 404.04 321.32 404.08
  L 320.33 404.11
  A 0.78 0.78 0.0 0 1 319.58 403.63
  Z
  M 214.05 404.19
  L 212.50 404.58
  Q 212.16 404.67 212.51 404.70
  Q 216.05 404.98 216.01 401.86
  Q 216.00 400.57 215.53 401.77
  L 214.86 403.48
  Q 214.64 404.04 214.05 404.19
  Z"
/>
<path fill="#e9e4f6" d="
  M 60.94 61.35
  Q 61.03 61.70 61.03 62.05
  Q 61.24 97.70 61.21 140.03
  C 61.21 144.37 60.89 148.49 60.72 152.89
  Q 60.71 153.35 60.28 153.52
  Q 59.36 153.87 58.86 153.22
  Q 58.54 152.81 58.54 152.12
  Q 58.37 105.43 58.51 61.30
  A 0.25 0.25 0.0 0 0 58.26 61.05
  L 38.48 61.36
  A 0.56 0.55 89.5 0 0 37.94 61.92
  Q 38.22 106.63 37.82 146.85
  Q 37.79 149.77 37.64 152.82
  Q 37.60 153.71 36.71 153.77
  L 36.27 153.80
  A 0.84 0.84 0.0 0 1 35.37 153.01
  Q 35.19 149.51 35.14 146.01
  Q 34.85 123.95 35.19 85.51
  Q 35.31 72.36 34.98 58.94
  A 0.84 0.84 0.0 0 1 35.83 58.08
  L 57.75 58.30
  A 0.67 0.67 0.0 0 0 58.43 57.59
  Q 57.80 46.46 58.29 35.71
  Q 58.32 35.07 58.97 35.07
  L 166.89 35.08
  Q 167.96 35.08 168.08 36.14
  L 168.14 36.65
  Q 168.29 37.89 167.04 37.95
  Q 162.59 38.17 157.92 38.17
  Q 110.72 38.19 63.68 37.96
  Q 62.71 37.95 61.69 37.82
  A 0.43 0.42 3.1 0 0 61.22 38.24
  L 60.98 57.99
  A 0.41 0.41 0.0 0 0 61.39 58.40
  Q 109.50 58.08 156.50 58.02
  Q 162.07 58.02 169.02 58.39
  Q 170.31 58.46 170.37 59.78
  A 1.28 1.27 87.8 0 1 169.15 61.11
  Q 155.95 61.64 142.37 61.57
  Q 99.55 61.33 63.75 61.25
  C 62.90 61.25 62.26 61.15 61.47 60.86
  Q 60.75 60.60 60.94 61.35
  Z"
/>
<path fill="#e9e4f6" d="
  M 441.43 61.65
  C 441.35 68.09 441.74 74.41 441.75 80.80
  Q 441.83 120.53 441.55 151.99
  A 1.39 1.37 64.9 0 1 441.26 152.81
  Q 440.50 153.77 439.82 153.60
  Q 438.81 153.35 438.80 152.31
  Q 438.20 105.17 438.80 61.63
  A 0.59 0.59 0.0 0 0 438.17 61.03
  Q 433.53 61.36 429.49 61.38
  Q 391.39 61.54 352.74 61.54
  Q 341.01 61.54 330.17 61.07
  A 0.92 0.91 7.0 0 1 329.31 59.98
  L 329.40 59.53
  Q 329.62 58.41 330.77 58.34
  Q 334.74 58.11 338.39 58.10
  Q 382.82 57.91 438.29 58.20
  A 0.38 0.37 -89.3 0 0 438.67 57.82
  L 438.68 38.49
  A 0.61 0.61 0.0 0 0 438.05 37.88
  Q 431.16 38.15 424.75 38.15
  Q 379.06 38.14 332.72 38.06
  A 1.03 1.02 -87.9 0 1 331.70 36.96
  L 331.76 36.04
  Q 331.82 35.15 332.71 35.15
  L 440.78 35.03
  Q 441.72 35.03 441.73 35.97
  Q 441.81 45.96 441.66 53.91
  Q 441.62 55.73 441.17 57.64
  A 0.58 0.58 0.0 0 0 441.77 58.35
  C 449.17 57.81 456.66 58.08 464.22 58.15
  A 0.53 0.53 0.0 0 1 464.74 58.67
  Q 465.19 104.29 464.91 151.94
  A 2.10 2.07 82.4 0 1 463.39 153.96
  Q 463.27 154.00 463.14 153.96
  A 1.82 1.81 -83.2 0 1 461.77 152.21
  Q 461.49 106.34 461.92 61.59
  A 0.52 0.51 89.0 0 0 461.38 61.06
  Q 451.81 61.57 441.96 61.15
  Q 441.44 61.12 441.43 61.65
  Z"
/>
<path fill="#ffffff" d="
  M 330.91 110.80
  Q 330.00 110.24 330.00 111.30
  L 330.01 310.24
  Q 330.01 310.98 329.26 310.99
  L 324.75 310.99
  Q 324.00 310.99 324.00 310.25
  L 324.00 107.32
  Q 324.00 106.41 323.25 105.90
  L 316.44 101.23
  A 0.44 0.44 0.0 0 0 315.75 101.59
  L 315.75 310.28
  Q 315.75 311.06 314.97 311.04
  L 310.32 310.90
  Q 309.51 310.88 309.51 310.07
  L 309.49 97.97
  A 2.14 2.13 -73.7 0 0 308.51 96.17
  L 300.46 91.02
  A 0.75 0.74 17.7 0 0 299.31 91.61
  Q 299.27 92.44 299.28 93.25
  Q 299.89 160.41 299.31 305.75
  Q 299.30 307.73 299.05 309.40
  A 2.20 2.20 0.0 0 1 296.85 311.28
  L 262.41 310.96
  Q 261.76 310.96 261.87 310.32
  Q 262.17 308.53 262.17 306.89
  Q 262.35 239.20 262.23 159.42
  Q 262.22 150.24 253.54 149.06
  Q 227.88 145.59 202.28 142.12
  A 0.92 0.91 -86.0 0 1 201.50 141.21
  L 201.51 96.98
  A 3.14 3.13 86.1 0 1 204.22 93.87
  Q 250.32 87.58 293.39 81.81
  C 295.38 81.54 297.40 81.72 299.12 82.85
  Q 322.14 97.87 343.86 112.19
  A 0.95 0.94 -73.4 0 1 344.28 112.98
  L 344.30 304.52
  A 0.72 0.72 0.0 0 0 345.02 305.24
  L 369.02 305.25
  Q 370.41 305.25 370.41 306.65
  L 370.40 310.06
  Q 370.40 311.27 369.19 311.27
  L 338.75 311.26
  A 0.51 0.51 0.0 0 1 338.24 310.75
  L 338.24 116.90
  Q 338.24 115.40 336.97 114.61
  L 330.91 110.80
  Z
  M 285.5094 96.9769
  A 0.76 0.76 0.0 0 0 284.7468 96.2195
  L 272.9869 96.2606
  A 0.76 0.76 0.0 0 0 272.2295 97.0232
  L 272.2706 108.7831
  A 0.76 0.76 0.0 0 0 273.0332 109.5405
  L 284.7931 109.4994
  A 0.76 0.76 0.0 0 0 285.5505 108.7368
  L 285.5094 96.9769
  Z
  M 235.8196 111.0584
  A 0.83 0.83 0.0 0 0 234.9882 110.2298
  L 223.3282 110.2502
  A 0.83 0.83 0.0 0 0 222.4996 111.0816
  L 222.5204 122.9816
  A 0.83 0.83 0.0 0 0 223.3518 123.8102
  L 235.0118 123.7898
  A 0.83 0.83 0.0 0 0 235.8404 122.9584
  L 235.8196 111.0584
  Z
  M 285.5203 138.9216
  A 0.73 0.73 0.0 0 0 284.7916 138.1903
  L 272.9716 138.1697
  A 0.73 0.73 0.0 0 0 272.2403 138.8984
  L 272.2197 150.7384
  A 0.73 0.73 0.0 0 0 272.9484 151.4697
  L 284.7684 151.4903
  A 0.73 0.73 0.0 0 0 285.4997 150.7616
  L 285.5203 138.9216
  Z"
/>
<rect fill="#5271ff" x="-6.64" y="-6.64" transform="translate(278.89,102.88) rotate(-0.2)" width="13.28" height="13.28" rx="0.76"/>
<rect fill="#5271ff" x="-6.66" y="-6.78" transform="translate(229.17,117.02) rotate(-0.1)" width="13.32" height="13.56" rx="0.83"/>
<rect fill="#5271ff" x="-6.64" y="-6.65" transform="translate(278.87,144.83) rotate(0.1)" width="13.28" height="13.30" rx="0.73"/>
<path fill="#ffffff" d="
  M 185.24 155.76
  Q 185.24 154.32 184.01 155.07
  L 180.26 157.37
  A 2.66 2.66 0.0 0 0 178.99 159.64
  L 178.98 309.76
  A 0.73 0.72 -89.6 0 1 178.25 310.49
  L 174.26 310.47
  Q 173.55 310.47 173.55 309.76
  L 173.53 163.46
  Q 173.53 161.89 172.21 162.74
  L 169.99 164.16
  A 2.74 2.73 -16.5 0 0 168.73 166.46
  L 168.70 309.51
  Q 168.70 310.47 167.74 310.48
  L 164.20 310.54
  Q 163.34 310.56 163.34 309.70
  L 163.27 170.24
  Q 163.27 168.26 161.66 169.41
  L 159.96 170.62
  Q 158.41 171.72 158.42 173.62
  Q 158.59 235.13 158.31 292.02
  Q 158.26 302.32 158.55 310.66
  A 0.61 0.61 0.0 0 1 157.94 311.30
  L 130.75 311.19
  A 0.73 0.73 0.0 0 1 130.02 310.50
  L 129.79 306.61
  Q 129.76 305.97 130.39 305.98
  L 152.73 306.05
  Q 153.02 306.05 153.02 305.77
  L 152.98 170.01
  Q 152.98 168.65 154.12 167.90
  L 185.41 147.33
  A 4.94 4.89 32.0 0 1 188.74 146.58
  L 253.72 155.35
  A 2.44 2.44 0.0 0 1 255.80 157.31
  Q 256.02 158.43 256.02 159.69
  Q 255.96 234.26 256.01 308.10
  Q 256.01 310.38 253.73 310.43
  Q 221.02 311.07 189.72 311.20
  Q 188.01 311.21 186.09 310.77
  Q 185.57 310.66 185.50 310.13
  Q 185.29 308.59 185.29 307.07
  Q 185.30 228.56 185.24 155.76
  Z
  M 214.2192 171.3885
  A 0.47 0.47 0.0 0 0 213.7484 170.9193
  L 201.4484 170.9407
  A 0.47 0.47 0.0 0 0 200.9792 171.4116
  L 201.0008 183.7715
  A 0.47 0.47 0.0 0 0 201.4716 184.2407
  L 213.7716 184.2193
  A 0.47 0.47 0.0 0 0 214.2408 183.7484
  L 214.2192 171.3885
  Z
  M 244.0298 207.7984
  A 0.83 0.83 0.0 0 0 243.1983 206.9698
  L 231.4984 206.9902
  A 0.83 0.83 0.0 0 0 230.6698 207.8217
  L 230.6902 219.5216
  A 0.83 0.83 0.0 0 0 231.5217 220.3502
  L 243.2216 220.3298
  A 0.83 0.83 0.0 0 0 244.0502 219.4983
  L 244.0298 207.7984
  Z
  M 214.24 243.21
  A 0.26 0.26 0.0 0 0 213.98 242.95
  L 201.24 242.95
  A 0.26 0.26 0.0 0 0 200.98 243.21
  L 200.98 255.95
  A 0.26 0.26 0.0 0 0 201.24 256.21
  L 213.98 256.21
  A 0.26 0.26 0.0 0 0 214.24 255.95
  L 214.24 243.21
  Z
  M 244.0196 279.2633
  A 1.02 1.02 0.0 0 0 243.0032 278.2398
  L 231.7033 278.2003
  A 1.02 1.02 0.0 0 0 230.6797 279.2168
  L 230.6404 290.4967
  A 1.02 1.02 0.0 0 0 231.6568 291.5202
  L 242.9567 291.5597
  A 1.02 1.02 0.0 0 0 243.9803 290.5432
  L 244.0196 279.2633
  Z"
/>
<rect fill="#5271ff" x="-6.62" y="-6.65" transform="translate(207.61,177.58) rotate(-0.1)" width="13.24" height="13.30" rx="0.47"/>
<rect fill="#5271ff" x="-6.68" y="-6.68" transform="translate(237.36,213.66) rotate(-0.1)" width="13.36" height="13.36" rx="0.83"/>
<rect fill="#5271ff" x="200.98" y="242.95" width="13.26" height="13.26" rx="0.26"/>
<rect fill="#5271ff" x="-6.67" y="-6.66" transform="translate(237.33,284.88) rotate(0.2)" width="13.34" height="13.32" rx="1.02"/>
<path fill="#e9e4f6" d="
  M 200.76 349.22
  C 203.04 347.80 208.04 346.56 208.17 351.11
  Q 208.37 358.40 208.30 368.34
  Q 208.30 369.11 207.52 369.10
  L 205.27 369.05
  Q 204.46 369.04 204.46 368.23
  L 204.34 352.47
  Q 204.33 350.82 202.71 351.11
  L 201.22 351.37
  A 1.43 1.42 -4.8 0 0 200.03 352.77
  L 199.98 368.42
  A 0.62 0.62 0.0 0 1 199.33 369.04
  L 196.98 368.95
  A 0.73 0.72 -89.2 0 1 196.29 368.23
  L 195.85 341.46
  Q 195.81 339.10 198.16 339.30
  L 198.69 339.35
  Q 200.14 339.48 200.11 340.94
  L 199.94 348.76
  A 0.53 0.53 0.0 0 0 200.76 349.22
  Z"
/>
<path fill="#e9e4f6" d="
  M 173.82 353.86
  C 177.44 354.92 177.57 360.55 176.94 363.59
  Q 175.93 368.42 171.53 368.73
  Q 167.73 369.00 162.64 368.77
  Q 162.13 368.75 162.12 368.24
  L 161.92 340.28
  Q 161.92 339.53 162.67 339.53
  C 165.70 339.51 168.98 339.34 171.93 340.07
  C 177.05 341.34 177.35 347.39 175.50 351.35
  Q 175.25 351.89 174.79 352.27
  L 173.68 353.18
  A 0.39 0.39 0.0 0 0 173.82 353.86
  Z
  M 166.27 343.61
  L 166.09 351.13
  A 0.80 0.80 0.0 0 0 166.87 351.94
  L 169.12 352.00
  A 3.88 3.77 -88.6 0 0 172.98 348.21
  L 173.02 346.85
  A 3.88 3.77 -88.6 0 0 169.34 342.88
  L 167.09 342.83
  A 0.80 0.80 0.0 0 0 166.27 343.61
  Z
  M 165.97 356.12
  L 166.05 365.28
  A 0.98 0.98 0.0 0 0 167.04 366.25
  L 169.06 366.24
  A 4.40 4.27 -0.5 0 0 173.42 361.93
  L 173.40 359.35
  A 4.40 4.27 -0.5 0 0 168.96 355.12
  L 166.94 355.13
  A 0.98 0.98 0.0 0 0 165.97 356.12
  Z"
/>
<path fill="#e9e4f6" d="
  M 249.01 343.57
  A 1.98 1.98 0.0 0 0 248.18 344.99
  Q 247.23 355.46 248.02 363.15
  Q 248.28 365.67 250.77 366.12
  Q 251.16 366.19 251.56 366.19
  Q 255.04 366.21 255.16 362.74
  L 255.31 358.68
  Q 255.33 357.94 256.07 357.97
  L 257.94 358.03
  Q 258.92 358.06 258.96 359.04
  C 259.07 362.46 258.54 367.82 254.56 368.78
  C 251.09 369.61 246.26 369.26 244.86 365.39
  C 243.63 361.99 243.89 358.51 243.74 354.94
  C 243.57 350.83 242.98 342.20 247.74 340.27
  C 252.04 338.52 257.58 339.44 258.61 344.77
  Q 259.04 347.00 258.88 349.15
  A 1.30 1.29 3.8 0 1 257.50 350.35
  L 256.04 350.26
  Q 255.08 350.20 255.19 349.23
  C 255.41 347.33 255.78 343.36 253.22 342.81
  Q 250.85 342.30 249.01 343.57
  Z"
/>
<path fill="#e9e4f6" d="
  M 294.20 351.23
  L 292.66 350.58
  A 1.04 1.04 0.0 0 1 292.54 348.72
  L 294.22 347.73
  Q 294.68 347.47 294.79 346.95
  Q 295.04 345.78 295.12 344.57
  C 295.31 341.63 297.64 340.40 300.48 340.78
  Q 302.44 341.05 301.91 343.10
  Q 301.79 343.58 301.32 343.75
  Q 300.74 343.96 300.11 343.94
  Q 299.42 343.93 299.21 344.58
  Q 298.84 345.73 298.92 346.97
  Q 298.97 347.70 299.68 347.87
  C 300.40 348.03 301.20 347.97 301.77 348.53
  Q 302.44 349.19 302.05 350.10
  Q 301.85 350.57 301.36 350.73
  L 299.48 351.31
  A 0.76 0.75 82.1 0 0 298.95 352.02
  L 298.78 368.23
  Q 298.77 368.99 298.02 369.01
  L 295.92 369.04
  A 0.87 0.87 0.0 0 1 295.03 368.17
  L 294.98 352.41
  A 1.28 1.28 0.0 0 0 294.20 351.23
  Z"
/>
<rect fill="#e9e4f6" x="-1.95" y="-1.99" transform="translate(214.08,343.03) rotate(-0.5)" width="3.90" height="3.98" rx="0.85"/>
<path fill="#e9e4f6" d="
  M 337.03 347.96
  Q 338.04 348.04 338.98 348.49
  A 0.97 0.96 -65.5 0 1 339.45 349.76
  Q 338.94 350.87 337.53 350.74
  Q 336.15 350.61 336.15 352.00
  L 336.18 365.27
  Q 336.18 365.87 336.77 366.00
  L 338.16 366.29
  A 1.29 1.23 73.0 0 1 338.80 366.65
  Q 339.55 367.45 339.28 368.51
  Q 339.14 369.08 338.55 369.14
  C 336.28 369.35 333.01 369.05 332.66 366.13
  Q 331.94 360.11 332.30 352.50
  Q 332.38 350.86 330.81 350.66
  A 1.23 1.22 69.5 0 1 330.16 350.36
  Q 329.59 349.85 329.89 349.10
  Q 330.15 348.43 330.84 348.24
  Q 331.54 348.05 331.98 347.53
  A 1.26 1.24 62.9 0 0 332.27 346.60
  L 332.02 343.47
  Q 331.91 342.10 333.28 342.05
  L 335.08 341.98
  Q 336.22 341.94 336.22 343.08
  L 336.21 347.06
  Q 336.20 347.89 337.03 347.96
  Z"
/>
<path fill="#5271ff" d="
  M 166.27 343.61
  A 0.80 0.80 0.0 0 1 167.09 342.83
  L 169.34 342.88
  A 3.88 3.77 -88.6 0 1 173.02 346.85
  L 172.98 348.21
  A 3.88 3.77 -88.6 0 1 169.12 352.00
  L 166.87 351.94
  A 0.80 0.80 0.0 0 1 166.09 351.13
  L 166.27 343.61
  Z"
/>
<path fill="#ffffff" d="
  M 61.42 441.35
  A 0.47 0.47 0.0 0 0 60.95 441.82
  L 61.01 461.26
  A 1.00 1.00 0.0 0 0 62.01 462.25
  L 167.08 462.25
  A 1.08 1.08 0.0 0 1 168.15 463.19
  L 168.21 463.70
  A 0.93 0.92 86.4 0 1 167.30 464.74
  L 58.66 464.71
  A 0.32 0.31 -0.0 0 1 58.34 464.40
  Q 58.36 454.06 58.39 444.79
  Q 58.39 443.17 58.67 441.72
  A 0.53 0.53 0.0 0 0 58.13 441.09
  L 35.73 441.58
  A 0.35 0.35 0.0 0 1 35.37 441.23
  Q 35.04 399.10 35.02 357.55
  C 35.02 354.42 35.40 350.71 35.37 347.40
  Q 35.36 346.52 36.21 346.29
  L 37.06 346.06
  Q 38.06 345.79 38.06 346.82
  L 37.94 438.10
  Q 37.94 439.09 38.93 439.04
  Q 47.97 438.55 57.39 438.95
  Q 58.45 439.00 58.45 437.94
  L 58.45 347.02
  Q 58.45 346.23 59.23 346.29
  L 60.10 346.36
  A 0.72 0.71 3.0 0 1 60.76 347.08
  C 60.72 349.87 61.18 352.51 61.19 355.30
  Q 61.23 396.76 61.00 438.31
  A 0.47 0.47 0.0 0 0 61.47 438.78
  L 169.02 438.78
  Q 170.21 438.78 170.23 439.98
  Q 170.23 440.15 170.21 440.33
  Q 170.12 441.21 169.24 441.21
  C 132.70 441.42 96.35 441.43 61.42 441.35
  Z"
/>
<path fill="#ffffff" d="
  M 460.99 438.95
  A 0.79 0.78 -88.6 0 0 461.81 438.16
  L 461.71 347.09
  Q 461.71 345.88 462.91 346.04
  L 463.76 346.15
  Q 464.82 346.29 464.73 347.36
  C 464.59 349.01 464.92 350.65 464.92 352.30
  Q 465.06 396.19 464.83 440.33
  Q 464.82 441.64 463.51 441.59
  Q 452.48 441.11 442.12 441.45
  A 0.77 0.77 0.0 0 0 441.38 442.23
  L 441.59 464.49
  A 0.30 0.30 0.0 0 1 441.29 464.80
  L 333.51 464.64
  A 2.07 1.97 55.8 0 1 332.68 464.46
  Q 331.30 463.81 331.48 463.12
  Q 331.71 462.23 332.62 462.23
  L 438.33 462.22
  A 0.55 0.54 -90.0 0 0 438.87 461.67
  L 438.97 441.93
  A 0.70 0.70 0.0 0 0 438.27 441.22
  C 402.94 441.41 366.73 441.65 330.64 441.25
  Q 329.87 441.24 329.72 440.48
  Q 329.61 439.90 329.87 439.38
  Q 330.13 438.87 330.70 438.87
  Q 380.65 438.61 431.73 438.89
  Q 435.04 438.91 438.42 439.05
  A 0.64 0.64 0.0 0 0 439.08 438.33
  Q 438.87 436.49 438.85 434.60
  Q 438.44 388.48 438.73 347.07
  Q 438.74 346.22 439.59 346.32
  L 440.76 346.46
  Q 441.59 346.56 441.59 347.40
  Q 441.83 394.43 441.35 438.65
  Q 441.35 439.18 441.87 439.14
  Q 451.50 438.41 460.99 438.95
  Z"
/>
<path fill="#e9e4f6" d="
  M 188.19 367.44
  C 185.81 370.49 181.23 369.53 180.49 365.60
  C 179.41 359.93 183.46 358.32 187.57 356.20
  Q 188.11 355.92 188.26 355.34
  C 188.67 353.77 188.72 351.09 186.54 350.81
  A 2.02 2.00 6.8 0 0 184.29 352.57
  L 184.16 353.77
  Q 184.10 354.28 183.66 354.55
  Q 182.26 355.43 181.02 354.68
  A 1.21 1.21 0.0 0 1 180.45 353.67
  C 180.43 350.56 182.30 348.05 185.57 347.83
  C 191.66 347.42 192.66 351.43 192.49 356.38
  Q 192.27 362.61 192.64 368.18
  Q 192.68 368.73 192.16 368.90
  Q 189.35 369.80 188.71 367.55
  Q 188.55 366.98 188.19 367.44
  Z
  M 188.52 360.08
  A 1.03 1.03 0.0 0 0 186.74 359.27
  L 184.53 361.61
  A 1.03 1.03 0.0 0 0 184.25 362.39
  L 184.42 365.00
  A 1.03 1.03 0.0 0 0 185.57 365.95
  L 187.15 365.77
  A 1.03 1.03 0.0 0 0 188.05 364.84
  L 188.52 360.08
  Z"
/>
<rect fill="#e9e4f6" x="-1.88" y="-10.51" transform="translate(214.11,358.45) rotate(-0.2)" width="3.76" height="21.02" rx="0.92"/>
<path fill="#e9e4f6" d="
  M 284.04 348.46
  C 286.77 347.72 290.02 347.14 290.09 351.25
  Q 290.23 360.06 290.06 368.46
  Q 290.05 369.01 289.49 369.00
  L 286.77 368.95
  A 0.62 0.62 0.0 0 1 286.16 368.30
  Q 286.47 360.23 285.90 352.25
  Q 285.78 350.62 284.22 351.09
  L 283.32 351.37
  A 1.88 1.88 0.0 0 0 281.98 353.16
  L 281.94 368.18
  A 0.86 0.85 -89.3 0 1 281.07 369.04
  L 278.99 369.00
  A 1.01 1.01 0.0 0 1 278.00 367.99
  L 278.01 349.53
  Q 278.01 347.56 279.93 348.05
  C 281.35 348.41 282.58 348.86 284.04 348.46
  Z"
/>
<path fill="#e9e4f6" d="
  M 315.9424 363.5510
  A 5.61 5.61 0.0 0 1 310.3129 369.1414
  L 309.4729 369.1385
  A 5.61 5.61 0.0 0 1 303.8825 363.5089
  L 303.9176 353.4490
  A 5.61 5.61 0.0 0 1 309.5471 347.8586
  L 310.3871 347.8615
  A 5.61 5.61 0.0 0 1 315.9775 353.4911
  L 315.9424 363.5510
  Z
  M 312.1100 352.9614
  A 2.06 2.06 0.0 0 0 310.0321 350.9194
  L 309.8321 350.9212
  A 2.06 2.06 0.0 0 0 307.7902 352.9991
  L 307.8900 364.4386
  A 2.06 2.06 0.0 0 0 309.9679 366.4806
  L 310.1679 366.4788
  A 2.06 2.06 0.0 0 0 312.2098 364.4009
  L 312.1100 352.9614
  Z"
/>
<path fill="#e9e4f6" d="
  M 324.72 349.25
  Q 326.19 347.93 327.87 348.10
  A 1.06 1.06 0.0 0 1 328.77 348.83
  Q 329.20 350.14 328.53 351.24
  Q 328.27 351.67 327.77 351.76
  L 324.77 352.28
  A 1.48 1.47 85.5 0 0 323.55 353.71
  L 323.31 368.10
  Q 323.29 368.99 322.40 368.99
  L 320.53 368.98
  Q 319.58 368.98 319.58 368.03
  L 319.53 349.32
  A 1.46 1.42 -23.7 0 1 319.93 348.33
  Q 321.44 346.76 323.83 349.22
  A 0.65 0.64 -43.0 0 0 324.72 349.25
  Z"
/>
<path fill="#e9e4f6" d="
  M 227.86 367.61
  C 224.79 369.36 220.83 370.02 220.05 365.51
  C 219.16 360.31 222.94 357.67 227.25 356.37
  A 1.18 1.17 85.1 0 0 228.08 355.38
  Q 228.31 353.49 227.58 351.50
  Q 227.43 351.10 227.04 350.92
  C 224.69 349.87 223.93 351.75 223.77 353.62
  Q 223.72 354.16 223.27 354.46
  Q 221.96 355.33 220.68 354.53
  A 1.71 1.70 -66.4 0 1 219.94 352.64
  Q 221.46 347.02 227.89 348.07
  C 230.87 348.57 231.72 351.52 231.76 354.13
  Q 231.89 361.66 232.01 368.37
  Q 232.02 368.95 231.45 369.07
  Q 229.39 369.50 228.58 367.84
  Q 228.34 367.34 227.86 367.61
  Z
  M 226.98 365.56
  A 0.80 0.80 0.0 0 0 227.64 364.87
  L 228.27 359.33
  A 0.80 0.80 0.0 0 0 226.91 358.67
  L 223.67 361.89
  A 0.80 0.80 0.0 0 0 223.45 362.59
  L 223.90 365.28
  A 0.80 0.80 0.0 0 0 224.82 365.94
  L 226.98 365.56
  Z"
/>
<path fill="#e9e4f6" d="
  M 274.4424 363.5910
  A 5.60 5.60 0.0 0 1 268.8229 369.1714
  L 267.9829 369.1685
  A 5.60 5.60 0.0 0 1 262.4025 363.5490
  L 262.4376 353.5090
  A 5.60 5.60 0.0 0 1 268.0571 347.9286
  L 268.8971 347.9315
  A 5.60 5.60 0.0 0 1 274.4775 353.5510
  L 274.4424 363.5910
  Z
  M 270.6998 352.8779
  A 2.16 2.16 0.0 0 0 268.5474 350.7103
  L 268.3874 350.7098
  A 2.16 2.16 0.0 0 0 266.2199 352.8622
  L 266.1802 364.2421
  A 2.16 2.16 0.0 0 0 268.3326 366.4097
  L 268.4926 366.4102
  A 2.16 2.16 0.0 0 0 270.6601 364.2578
  L 270.6998 352.8779
  Z"
/>
<rect fill="#5271ff" x="-2.24" y="-7.85" transform="translate(268.44,358.56) rotate(0.2)" width="4.48" height="15.70" rx="2.16"/>
<rect fill="#5271ff" x="-2.16" y="-7.78" transform="translate(310.00,358.70) rotate(-0.5)" width="4.32" height="15.56" rx="2.06"/>
<path fill="#5271ff" d="
  M 165.97 356.12
  A 0.98 0.98 0.0 0 1 166.94 355.13
  L 168.96 355.12
  A 4.40 4.27 -0.5 0 1 173.40 359.35
  L 173.42 361.93
  A 4.40 4.27 -0.5 0 1 169.06 366.24
  L 167.04 366.25
  A 0.98 0.98 0.0 0 1 166.05 365.28
  L 165.97 356.12
  Z"
/>
<path fill="#5271ff" d="
  M 226.98 365.56
  L 224.82 365.94
  A 0.80 0.80 0.0 0 1 223.90 365.28
  L 223.45 362.59
  A 0.80 0.80 0.0 0 1 223.67 361.89
  L 226.91 358.67
  A 0.80 0.80 0.0 0 1 228.27 359.33
  L 227.64 364.87
  A 0.80 0.80 0.0 0 1 226.98 365.56
  Z"
/>
<path fill="#5271ff" d="
  M 188.52 360.08
  L 188.05 364.84
  A 1.03 1.03 0.0 0 1 187.15 365.77
  L 185.57 365.95
  A 1.03 1.03 0.0 0 1 184.42 365.00
  L 184.25 362.39
  A 1.03 1.03 0.0 0 1 184.53 361.61
  L 186.74 359.27
  A 1.03 1.03 0.0 0 1 188.52 360.08
  Z"
/>
<path fill="#e9e4f6" d="
  M 202.34 403.40
  Q 202.51 398.41 202.22 390.11
  Q 202.18 389.15 201.62 388.46
  Q 201.30 388.08 201.77 387.92
  Q 202.58 387.63 202.76 387.57
  Q 203.27 387.39 203.46 387.79
  Q 203.76 388.38 203.77 389.07
  Q 203.93 395.81 203.76 402.25
  C 203.74 402.94 204.00 403.72 204.50 404.22
  Q 205.13 404.84 204.25 404.81
  L 201.96 404.75
  Q 201.03 404.73 201.78 404.18
  L 202.02 404.00
  Q 202.33 403.78 202.34 403.40
  Z"
/>
<path fill="#e9e4f6" d="
  M 156.18 403.14
  L 155.58 400.76
  A 1.00 0.99 84.4 0 0 154.67 400.01
  L 151.09 399.80
  Q 149.09 399.68 148.61 401.63
  Q 147.94 404.41 150.43 404.27
  Q 150.80 404.25 150.81 404.62
  L 150.82 404.87
  Q 150.83 404.93 150.76 404.93
  Q 148.04 404.79 145.11 404.71
  Q 144.42 404.69 145.04 404.39
  L 146.75 403.55
  A 1.01 0.97 -4.5 0 0 147.23 403.01
  L 152.20 388.76
  Q 152.78 387.10 153.35 388.77
  L 158.29 403.40
  Q 158.46 403.91 158.97 404.09
  Q 161.46 404.95 163.87 404.28
  Q 164.47 404.12 164.45 403.50
  L 164.01 387.92
  Q 164.00 387.59 164.32 387.62
  L 165.26 387.69
  Q 165.79 387.73 165.79 388.26
  L 165.84 403.64
  Q 165.85 404.19 166.39 404.27
  L 167.24 404.39
  Q 167.89 404.49 167.26 404.67
  C 164.90 405.37 163.09 404.38 160.64 404.81
  Q 157.95 405.28 154.50 404.85
  Q 153.42 404.72 154.46 404.40
  L 155.68 404.03
  Q 156.36 403.83 156.18 403.14
  Z
  M 149.78 398.79
  A 0.33 0.33 0.0 0 0 150.10 399.23
  L 154.35 399.04
  A 0.33 0.33 0.0 0 0 154.65 398.60
  L 152.57 392.44
  A 0.33 0.33 0.0 0 0 151.95 392.44
  L 149.78 398.79
  Z"
/>
<path fill="#e9e4f6" d="
  M 244.68 404.13
  Q 245.48 404.20 246.30 404.44
  Q 246.52 404.50 246.55 404.72
  Q 246.56 404.77 246.53 404.81
  Q 246.44 404.97 246.27 404.97
  Q 243.31 404.97 239.99 405.00
  Q 239.70 405.01 239.70 404.72
  L 239.70 404.46
  Q 239.70 404.44 239.72 404.44
  Q 240.88 404.68 241.74 404.12
  Q 242.16 403.85 242.17 403.35
  L 242.25 389.72
  Q 242.26 388.10 240.66 388.33
  Q 239.75 388.46 238.92 388.82
  Q 237.20 389.55 237.10 391.42
  Q 237.06 392.27 236.81 393.06
  Q 236.53 393.93 236.36 393.03
  Q 235.94 390.75 236.36 388.63
  A 0.93 0.93 0.0 0 1 237.26 387.89
  L 249.21 387.79
  A 0.71 0.71 0.0 0 1 249.92 388.46
  L 250.23 393.20
  Q 250.24 393.40 250.04 393.41
  L 249.71 393.42
  Q 249.44 393.44 249.41 393.16
  Q 249.24 391.18 248.44 389.48
  A 1.34 1.32 86.4 0 0 247.69 388.81
  Q 246.27 388.31 244.66 388.54
  Q 244.00 388.64 244.00 389.30
  L 244.02 403.42
  Q 244.02 404.07 244.68 404.13
  Z"
/>
<ellipse fill="#e9e4f6" cx="0.00" cy="0.00" transform="translate(196.45,389.80) rotate(12.6)" rx="1.12" ry="0.94"/>
<ellipse fill="#e9e4f6" cx="0.00" cy="0.00" transform="translate(341.41,389.77) rotate(-5.2)" rx="1.11" ry="0.94"/>
<path fill="#5271ff" d="
  M 149.78 398.79
  L 151.95 392.44
  A 0.33 0.33 0.0 0 1 152.57 392.44
  L 154.65 398.60
  A 0.33 0.33 0.0 0 1 154.35 399.04
  L 150.10 399.23
  A 0.33 0.33 0.0 0 1 149.78 398.79
  Z"
/>
<path fill="#e9e4f6" d="
  M 256.39 399.32
  Q 257.21 399.25 258.07 399.13
  Q 259.38 398.94 259.31 397.62
  Q 259.19 394.96 257.17 394.54
  A 1.19 1.18 28.1 0 0 256.09 394.86
  C 255.10 395.85 254.30 397.70 254.99 399.05
  Q 255.20 399.47 254.94 399.87
  Q 254.72 400.20 254.72 400.60
  C 254.76 404.55 258.13 406.26 260.38 402.20
  Q 261.29 400.56 260.89 402.39
  Q 260.34 404.89 257.66 405.16
  C 251.71 405.76 251.00 394.47 257.21 393.92
  C 259.98 393.67 260.75 396.52 261.28 398.68
  Q 261.42 399.27 260.82 399.37
  L 257.16 399.97
  A 1.46 1.24 -38.2 0 1 256.64 399.95
  Q 255.29 399.59 255.67 399.25
  Q 255.85 399.09 256.05 399.23
  Q 256.20 399.34 256.39 399.32
  Z"
/>
<path fill="#e9e4f6" d="
  M 277.03 395.12
  Q 276.59 394.54 275.88 394.47
  Q 275.28 394.41 274.74 394.56
  Q 274.00 394.75 274.65 394.35
  Q 276.51 393.20 278.29 394.51
  Q 278.69 394.81 278.80 395.30
  Q 279.54 398.76 279.12 402.24
  C 279.00 403.20 279.37 403.83 280.05 404.45
  Q 280.53 404.89 279.88 404.95
  Q 278.74 405.06 277.49 404.77
  Q 276.89 404.64 277.30 404.18
  Q 277.65 403.78 277.68 403.23
  C 277.81 401.07 278.19 396.68 277.03 395.12
  Z"
/>
<path fill="#e9e4f6" d="
  M 319.57 395.40
  L 320.45 397.25
  Q 321.03 398.47 319.76 398.00
  L 319.11 397.76
  A 1.26 1.25 -79.1 0 1 318.29 396.54
  C 318.32 395.51 318.71 394.46 319.83 394.12
  Q 322.72 393.23 324.50 394.79
  Q 324.95 395.18 325.03 395.77
  C 325.29 397.62 325.54 399.59 325.25 401.44
  Q 324.99 403.12 326.33 404.01
  Q 327.07 404.51 326.25 404.83
  L 325.99 404.93
  A 1.09 1.09 0.0 0 1 324.73 404.59
  Q 324.10 403.77 323.12 403.43
  Q 322.72 403.30 323.02 402.99
  C 324.38 401.55 323.59 398.72 323.96 396.80
  Q 324.08 396.21 323.74 395.72
  Q 322.32 393.64 319.78 394.82
  Q 319.38 395.00 319.57 395.40
  Z"
/>
<path fill="#e9e4f6" d="
  M 350.6310 405.1391
  A 5.67 4.62 91.0 0 1 346.1107 399.3894
  A 5.67 4.62 91.0 0 1 350.8290 393.8009
  A 5.67 4.62 91.0 0 1 355.3493 399.5506
  A 5.67 4.62 91.0 0 1 350.6310 405.1391
  Z
  M 350.7190 404.5900
  A 5.14 2.88 89.9 0 0 353.5900 399.4450
  A 5.14 2.88 89.9 0 0 350.7010 394.3100
  A 5.14 2.88 89.9 0 0 347.8300 399.4550
  A 5.14 2.88 89.9 0 0 350.7190 404.5900
  Z"
/>
<path fill="#e9e4f6" d="
  M 176.16 409.80
  Q 177.61 407.06 176.05 404.61
  Q 175.80 404.23 175.95 403.81
  Q 177.15 400.27 176.33 396.67
  Q 175.99 395.15 174.14 394.79
  Q 172.05 394.37 171.67 396.28
  C 171.18 398.72 170.77 403.44 173.54 404.52
  Q 174.16 404.76 173.59 405.12
  Q 173.25 405.34 172.86 405.20
  C 168.83 403.81 169.25 397.87 170.85 394.95
  Q 171.06 394.58 171.46 394.44
  Q 174.57 393.33 176.50 395.30
  Q 176.93 395.74 177.40 395.33
  Q 177.51 395.22 177.68 395.19
  Q 178.31 395.08 178.29 395.72
  C 178.14 400.41 177.76 405.46 178.55 410.03
  Q 178.66 410.68 178.00 410.64
  L 175.99 410.51
  Q 175.62 410.49 175.77 410.15
  Q 175.82 410.03 175.95 409.98
  Q 176.09 409.94 176.16 409.80
  Z"
/>
<path fill="#e9e4f6" d="
  M 190.63 394.64
  C 190.96 397.18 191.15 399.99 190.86 402.46
  Q 190.81 402.97 191.02 403.42
  Q 191.25 403.92 191.67 404.25
  Q 192.35 404.77 191.49 404.78
  Q 190.25 404.78 188.94 404.57
  Q 188.36 404.48 188.55 403.92
  C 189.45 401.29 190.14 396.94 188.66 394.41
  Q 188.42 394.00 188.88 393.93
  Q 189.50 393.83 190.10 394.01
  Q 190.57 394.16 190.63 394.64
  Z"
/>
<path fill="#ffffff" d="
  M 195.28 404.72
  Q 194.33 404.56 195.19 404.22
  Q 195.34 404.16 195.45 404.05
  Q 195.80 403.69 195.84 403.19
  Q 196.13 399.75 195.94 396.33
  Q 195.90 395.76 195.60 395.26
  Q 195.46 395.02 195.21 394.88
  Q 194.51 394.50 195.26 394.24
  Q 195.99 393.98 196.77 394.03
  Q 197.34 394.06 197.31 394.64
  Q 197.01 399.56 197.77 404.48
  Q 197.88 405.17 197.19 405.05
  L 195.28 404.72
  Z"
/>
<path fill="#e9e4f6" d="
  M 216.30 398.73
  A 0.85 0.85 0.0 0 1 215.62 399.73
  Q 214.98 399.85 214.43 399.57
  Q 214.03 399.36 214.17 398.92
  Q 215.01 396.37 212.84 394.65
  A 0.89 0.87 53.8 0 0 211.99 394.51
  Q 209.82 395.31 209.81 397.52
  Q 209.81 399.62 209.86 401.79
  Q 209.89 403.52 211.18 404.18
  Q 212.95 405.09 210.99 404.75
  C 207.71 404.17 207.70 399.71 208.25 397.26
  Q 209.00 393.88 212.66 393.96
  C 215.10 394.02 215.93 396.80 216.30 398.73
  Z"
/>
<path fill="#e9e4f6" d="
  M 221.78 404.73
  Q 220.74 405.00 219.72 404.89
  Q 219.46 404.86 219.53 404.61
  Q 220.65 400.83 220.14 396.07
  C 220.09 395.54 219.80 395.14 219.41 394.80
  Q 218.77 394.22 219.63 394.16
  Q 220.79 394.07 221.86 394.57
  Q 222.43 394.84 222.29 395.45
  Q 221.29 400.06 221.97 404.44
  Q 222.01 404.67 221.78 404.73
  Z"
/>
<path fill="#e9e4f6" d="
  M 224.33 394.31
  A 0.23 0.23 0.0 0 1 224.47 394.02
  L 224.58 393.98
  A 1.50 1.47 71.0 0 1 226.46 394.92
  L 226.56 395.21
  A 1.50 1.47 71.0 0 1 225.66 397.10
  L 225.54 397.14
  A 0.23 0.23 0.0 0 1 225.25 397.00
  L 224.33 394.31
  Z"
/>
<path fill="#e9e4f6" d="
  M 266.69 403.54
  Q 266.76 404.56 267.78 404.56
  L 270.42 404.58
  A 1.07 1.06 -3.1 0 0 271.48 403.40
  Q 271.14 400.30 271.45 397.01
  C 271.61 395.41 270.38 394.38 268.77 394.65
  A 0.13 0.13 0.0 0 1 268.70 394.40
  Q 271.03 393.39 273.06 395.21
  Q 273.41 395.52 273.34 395.98
  Q 272.78 399.69 273.03 403.64
  Q 273.06 404.14 273.53 404.35
  L 273.80 404.46
  Q 274.41 404.72 273.75 404.85
  Q 272.47 405.09 271.05 404.82
  C 268.94 404.42 266.92 404.96 264.78 404.86
  Q 263.80 404.81 264.59 404.23
  Q 264.72 404.13 264.84 404.02
  Q 265.06 403.82 265.07 403.53
  L 265.15 396.54
  Q 265.16 395.82 264.70 395.26
  L 264.28 394.75
  Q 263.78 394.14 264.57 394.17
  Q 265.98 394.22 267.47 394.58
  Q 268.36 394.80 267.54 395.23
  Q 267.41 395.29 267.31 395.40
  Q 266.96 395.79 266.89 396.32
  Q 266.44 400.01 266.69 403.54
  Z"
/>
<path fill="#e9e4f6" d="
  M 284.31 400.30
  C 284.16 398.25 285.48 395.85 283.14 394.63
  Q 282.67 394.38 283.11 394.10
  Q 283.54 393.83 283.98 394.03
  Q 286.05 394.92 288.17 394.22
  C 290.34 393.50 292.23 395.04 292.64 397.11
  Q 293.22 400.07 292.23 402.64
  Q 291.20 405.29 288.05 405.28
  Q 287.99 405.28 287.98 405.22
  L 287.92 404.94
  Q 287.91 404.84 288.01 404.83
  C 291.87 404.51 291.31 398.91 290.82 396.41
  Q 290.49 394.71 288.83 394.58
  A 2.56 2.56 0.0 0 0 286.13 396.59
  Q 285.36 400.09 286.38 403.32
  Q 286.53 403.81 286.35 404.28
  Q 285.21 407.29 286.21 410.23
  Q 286.42 410.85 285.78 410.71
  Q 285.19 410.58 284.55 410.66
  Q 283.89 410.75 283.97 410.09
  Q 284.65 404.83 284.31 400.30
  Z"
/>
<path fill="#e9e4f6" d="
  M 310.92 404.13
  L 311.28 404.45
  Q 311.72 404.85 311.13 404.87
  Q 309.79 404.91 308.53 404.83
  Q 307.51 404.76 308.34 404.16
  Q 308.40 404.12 308.45 404.07
  Q 308.76 403.75 308.79 403.30
  Q 309.03 399.97 308.97 396.83
  C 308.96 396.01 308.54 395.41 308.21 394.69
  A 0.48 0.47 -11.5 0 1 308.66 394.02
  Q 311.18 394.08 310.82 396.66
  Q 310.36 399.95 310.48 403.20
  Q 310.50 403.76 310.92 404.13
  Z"
/>
<path fill="#e9e4f6" d="
  M 343.00 404.17
  L 343.46 404.31
  Q 344.44 404.60 343.42 404.74
  Q 341.76 404.96 340.17 404.72
  Q 339.35 404.60 340.11 404.25
  Q 340.55 404.05 340.76 403.64
  Q 340.90 403.36 340.89 403.05
  Q 340.81 399.74 340.92 396.73
  Q 340.96 395.70 340.31 394.89
  Q 339.97 394.47 340.44 394.20
  Q 341.36 393.65 342.01 394.39
  Q 342.33 394.75 342.32 395.23
  Q 342.31 399.57 342.34 403.30
  Q 342.34 403.98 343.00 404.17
  Z"
/>
<path fill="#e9e4f6" d="
  M 184.77 403.39
  Q 185.28 404.19 186.04 404.53
  Q 186.77 404.86 186.00 405.06
  Q 184.94 405.34 184.14 404.58
  C 182.46 402.99 182.98 398.44 183.01 396.32
  Q 183.02 395.66 182.52 395.24
  L 181.84 394.66
  Q 181.41 394.29 181.98 394.29
  L 183.92 394.32
  Q 184.52 394.32 184.52 394.92
  L 184.51 402.47
  A 1.77 1.73 -61.4 0 0 184.77 403.39
  Z"
/>
<path fill="#e9e4f6" d="
  M 300.2594 405.0900
  A 5.57 4.63 89.8 0 1 295.6100 399.5362
  A 5.57 4.63 89.8 0 1 300.2206 393.9500
  A 5.57 4.63 89.8 0 1 304.8700 399.5038
  A 5.57 4.63 89.8 0 1 300.2594 405.0900
  Z
  M 300.2711 404.6300
  A 5.11 2.90 90.1 0 0 303.1800 399.5251
  A 5.11 2.90 90.1 0 0 300.2889 394.4100
  A 5.11 2.90 90.1 0 0 297.3800 399.5149
  A 5.11 2.90 90.1 0 0 300.2711 404.6300
  Z"
/>
<path fill="#ffffff" d="
  M 312.96 394.71
  Q 312.38 394.01 313.27 394.21
  L 314.59 394.50
  Q 315.43 394.68 315.53 395.53
  Q 315.62 396.25 315.19 396.74
  A 0.92 0.92 0.0 0 1 313.57 396.21
  Q 313.51 395.37 312.96 394.71
  Z"
/>
<path fill="#e9e4f6" d="
  M 332.95 404.25
  Q 333.09 404.33 333.16 404.51
  Q 333.27 404.82 332.94 404.84
  L 330.47 405.02
  Q 329.99 405.05 329.92 404.58
  Q 329.88 404.33 330.23 404.30
  A 0.58 0.57 88.3 0 0 330.74 403.75
  L 331.06 396.46
  Q 331.09 395.79 330.56 395.38
  L 329.85 394.83
  Q 329.27 394.38 329.99 394.26
  Q 331.04 394.08 332.05 394.44
  Q 332.38 394.55 332.47 394.89
  Q 332.84 396.26 332.68 397.67
  Q 332.36 400.50 332.42 403.35
  Q 332.43 403.95 332.95 404.25
  Z"
/>
<path fill="#e9e4f6" d="
  M 335.21 394.85
  L 334.73 394.72
  Q 333.56 394.41 334.77 394.36
  L 336.94 394.27
  A 0.63 0.62 0.8 0 1 337.59 394.93
  Q 337.53 396.33 336.61 397.03
  A 0.66 0.66 0.0 0 1 335.62 396.81
  Q 335.36 396.29 335.63 395.78
  A 0.66 0.65 21.0 0 0 335.21 394.85
  Z"
/>
<ellipse fill="#5271ff" cx="0.00" cy="0.00" transform="translate(350.71,399.45) rotate(89.9)" rx="5.14" ry="2.88"/>
<ellipse fill="#5271ff" cx="0.00" cy="0.00" transform="translate(300.28,399.52) rotate(90.1)" rx="5.11" ry="2.90"/>
<path fill="#e9e4f6" d="
  M 211.36 399.16
  Q 212.03 399.18 212.69 399.36
  Q 213.64 399.60 212.68 399.81
  Q 211.99 399.96 211.30 399.74
  Q 210.85 399.60 210.83 399.13
  Q 210.82 398.68 211.09 399.03
  Q 211.20 399.16 211.36 399.16
  Z"
/>
<path fill="#e9e4f6" d="
  M 320.33 404.11
  L 321.32 404.08
  Q 322.45 404.04 321.49 404.65
  C 320.50 405.27 318.74 405.38 318.07 404.17
  C 316.51 401.36 318.71 398.85 321.75 399.30
  Q 322.16 399.36 321.84 399.62
  Q 321.61 399.80 321.35 399.77
  Q 320.81 399.72 320.39 400.08
  Q 318.68 401.53 319.58 403.63
  A 0.78 0.78 0.0 0 0 320.33 404.11
  Z"
/>
<path fill="#e9e4f6" d="
  M 214.86 403.48
  L 215.53 401.77
  Q 216.00 400.57 216.01 401.86
  Q 216.05 404.98 212.51 404.70
  Q 212.16 404.67 212.50 404.58
  L 214.05 404.19
  Q 214.64 404.04 214.86 403.48
  Z"
/>
</svg>
