<?xml version="1.0" encoding="UTF-8" standalone="no"?>
<!DOCTYPE svg PUBLIC "-//W3C//DTD SVG 1.1//EN" "http://www.w3.org/Graphics/SVG/1.1/DTD/svg11.dtd">
<svg xmlns="http://www.w3.org/2000/svg" version="1.1" viewBox="0.00 0.00 640.00 640.00">
<g stroke-width="2.00" fill="none" stroke-linecap="butt">
<path stroke="#635b25" vector-effect="non-scaling-stroke" d="
  M 471.84 393.85
  Q 486.57 394.21 496.67 393.86
  Q 505.08 393.57 509.74 387.44
  Q 517.75 376.90 509.74 364.72
  Q 508.94 363.50 508.93 362.11
  Q 508.69 332.85 508.62 299.31
  C 508.60 290.24 509.00 280.96 508.95 271.39
  C 508.93 268.88 510.14 267.32 511.37 265.33
  C 515.51 258.64 514.47 248.87 508.53 243.61
  Q 503.08 238.78 496.73 238.77
  Q 394.89 238.61 297.50 238.74
  Q 262.62 238.79 230.27 238.60
  Q 222.87 238.56 219.26 239.07
  Q 213.80 239.83 208.50 241.77
  A 0.71 0.70 -9.7 0 1 207.54 241.10
  Q 207.64 234.67 207.64 226.11
  C 207.65 217.51 202.32 209.96 193.92 208.20
  C 189.01 207.17 182.63 207.61 177.50 208.05
  Q 165.80 209.07 154.21 215.62
  Q 135.13 226.41 125.79 247.84
  Q 118.83 263.78 117.01 281.84
  Q 114.43 307.46 118.58 331.52
  C 123.48 359.98 138.37 384.89 167.49 392.89
  C 170.18 393.63 173.18 393.79 175.99 393.85
  Q 189.04 394.15 202.80 393.75
  A 0.75 0.75 0.0 0 1 203.57 394.47
  Q 203.81 401.95 203.57 410.07
  Q 203.30 418.80 204.60 422.47
  C 206.47 427.79 211.60 431.95 217.34 431.96
  Q 334.37 432.05 456.31 431.98
  C 461.77 431.98 466.28 429.10 469.02 424.24
  Q 470.69 421.28 470.69 416.12
  Q 470.70 404.71 470.70 394.96
  Q 470.70 393.83 471.84 393.85"
/>
<path stroke="#645113" vector-effect="non-scaling-stroke" d="
  M 204.09 247.11
  Q 203.94 235.81 204.03 226.50
  C 204.11 217.49 198.13 211.42 189.30 211.24
  Q 184.84 211.15 180.51 211.40
  C 145.74 213.40 126.20 243.36 121.46 275.39
  Q 116.47 309.16 123.99 339.45
  C 129.48 361.56 143.81 383.11 166.33 389.07
  Q 172.22 390.63 183.32 390.61
  Q 338.12 390.34 495.36 390.60
  C 504.85 390.61 512.17 382.69 510.06 373.26
  C 509.48 370.65 507.81 368.39 506.37 366.18
  A 5.72 5.72 0.0 0 1 505.44 363.02
  Q 505.70 328.25 505.71 297.61
  C 505.72 288.19 505.33 279.02 505.43 269.92
  C 505.46 267.32 507.04 265.94 508.29 263.94
  C 514.42 254.18 507.08 242.21 495.98 242.21
  Q 379.19 242.29 273.75 242.18
  Q 249.88 242.16 225.25 242.36
  Q 214.84 242.44 204.55 247.39
  A 0.32 0.32 0.0 0 1 204.09 247.11"
/>
<path stroke="#e3c681" vector-effect="non-scaling-stroke" d="
  M 377.40 415.72
  Q 378.04 416.30 378.45 417.09
  Q 378.76 417.69 379.44 417.76
  L 383.04 418.11
  A 0.47 0.46 79.8 0 0 383.50 417.44
  L 377.30 404.45
  Q 376.99 403.79 376.32 403.49
  Q 372.80 401.89 371.24 405.20
  Q 368.35 411.39 365.39 417.36
  Q 365.05 418.04 365.81 418.03
  L 369.31 417.97
  Q 370.13 417.95 370.41 417.17
  L 370.79 416.11
  A 0.93 0.93 0.0 0 1 371.65 415.50
  L 376.70 415.45
  A 1.05 1.04 65.7 0 1 377.40 415.72"
/>
<path stroke="#e3c681" vector-effect="non-scaling-stroke" d="
  M 231.74 413.98
  Q 235.19 414.08 237.89 412.66
  C 241.25 410.89 240.92 405.67 237.47 404.14
  C 234.30 402.73 230.26 403.29 226.83 403.45
  Q 226.28 403.48 226.26 404.03
  Q 226.06 409.45 226.10 415.17
  Q 226.11 416.26 226.28 417.31
  Q 226.39 417.96 227.05 417.95
  L 230.02 417.87
  A 0.71 0.70 1.4 0 0 230.70 417.23
  L 230.90 414.73
  Q 230.96 413.95 231.74 413.98"
/>
<path stroke="#e3c681" vector-effect="non-scaling-stroke" d="
  M 258.94 412.39
  Q 261.27 411.10 261.02 408.07
  C 260.70 404.26 257.58 403.39 254.40 403.37
  Q 250.66 403.35 247.22 403.32
  Q 246.53 403.32 246.52 404.00
  L 246.37 417.19
  A 0.81 0.81 0.0 0 0 247.19 418.01
  L 250.49 417.99
  A 0.69 0.68 1.3 0 0 251.17 417.35
  Q 251.23 416.62 251.04 415.26
  Q 250.84 413.89 251.94 413.55
  A 1.21 1.20 62.6 0 1 253.24 413.97
  L 255.69 417.11
  Q 256.42 418.05 257.61 418.04
  L 260.50 418.02
  Q 261.75 418.02 260.99 417.02
  L 258.62 413.90
  A 1.02 1.02 0.0 0 1 258.94 412.39"
/>
<path stroke="#e3c681" vector-effect="non-scaling-stroke" d="
  M 285.1199 410.7313
  A 8.97 7.62 0.2 0 0 276.1766 403.0800
  A 8.97 7.62 0.2 0 0 267.1801 410.6687
  A 8.97 7.62 0.2 0 0 276.1234 418.3200
  A 8.97 7.62 0.2 0 0 285.1199 410.7313"
/>
<path stroke="#e3c681" vector-effect="non-scaling-stroke" d="
  M 296.40 414.79
  Q 296.46 413.97 297.29 413.98
  Q 300.01 414.01 302.59 413.14
  C 306.76 411.73 306.67 405.45 302.61 403.98
  C 299.63 402.90 295.66 403.22 292.48 403.29
  A 0.76 0.75 -0.8 0 0 291.74 404.04
  L 291.73 417.20
  Q 291.73 418.17 292.70 418.08
  L 295.19 417.86
  Q 296.15 417.78 296.23 416.81
  L 296.40 414.79"
/>
<path stroke="#e3c681" vector-effect="non-scaling-stroke" d="
  M 329.09 407.01
  L 336.21 406.75
  Q 337.14 406.72 337.29 405.80
  L 337.48 404.71
  Q 337.68 403.51 336.46 403.49
  L 324.72 403.33
  Q 324.01 403.32 324.01 404.03
  L 323.98 417.25
  A 0.77 0.77 0.0 0 0 324.75 418.02
  L 336.70 418.00
  Q 337.65 418.00 337.52 417.05
  L 337.26 415.20
  Q 337.14 414.40 336.35 414.46
  Q 333.04 414.68 329.30 414.28
  Q 328.95 414.24 328.73 414.00
  Q 328.29 413.51 328.62 412.86
  A 0.82 0.81 -77.0 0 1 329.30 412.43
  L 335.31 412.24
  Q 336.56 412.19 336.54 410.94
  L 336.54 410.32
  Q 336.52 409.12 335.32 409.07
  L 329.35 408.85
  Q 328.56 408.82 328.56 408.02
  L 328.57 407.56
  Q 328.57 407.03 329.09 407.01"
/>
<path stroke="#e3c681" vector-effect="non-scaling-stroke" d="
  M 344.08 404.37
  L 344.08 416.95
  A 1.07 1.07 0.0 0 0 345.15 418.02
  L 351.25 418.02
  A 8.67 7.22 -0.0 0 0 359.92 410.80
  L 359.92 410.52
  A 8.67 7.22 0.0 0 0 351.25 403.30
  L 345.15 403.30
  A 1.07 1.07 0.0 0 0 344.08 404.37"
/>
<path stroke="#e3c681" vector-effect="non-scaling-stroke" d="
  M 389.66 404.20
  L 389.62 417.10
  A 0.86 0.86 0.0 0 0 390.47 417.97
  L 397.08 417.99
  A 8.19 6.89 0.2 0 0 405.30 411.13
  L 405.30 410.29
  A 8.19 6.89 0.2 0 0 397.14 403.37
  L 390.53 403.35
  A 0.86 0.86 0.0 0 0 389.66 404.20"
/>
<path stroke="#e3c681" vector-effect="non-scaling-stroke" d="
  M 417.48 406.88
  L 424.19 406.79
  Q 425.42 406.78 425.45 405.56
  L 425.47 404.75
  Q 425.49 403.50 424.25 403.49
  L 412.74 403.39
  A 0.64 0.63 0.0 0 0 412.10 404.02
  L 412.06 417.44
  Q 412.06 418.06 412.69 418.06
  L 424.66 417.98
  Q 425.53 417.97 425.52 417.09
  L 425.48 415.27
  Q 425.46 414.58 424.77 414.55
  L 417.25 414.30
  Q 416.49 414.28 416.57 413.52
  L 416.61 413.13
  Q 416.67 412.54 417.27 412.51
  L 423.46 412.24
  Q 424.67 412.18 424.68 410.96
  Q 424.68 410.29 424.68 410.26
  Q 424.69 409.02 423.48 409.02
  Q 420.51 409.04 417.31 408.93
  A 0.74 0.73 0.8 0 1 416.60 408.21
  L 416.60 407.77
  A 0.89 0.88 -0.6 0 1 417.48 406.88"
/>
<path stroke="#e3c681" vector-effect="non-scaling-stroke" d="
  M 440.25 413.54
  Q 440.41 414.12 440.09 414.49
  Q 439.80 414.83 439.35 414.78
  Q 436.86 414.53 434.46 413.58
  Q 432.80 412.92 431.81 414.41
  Q 431.63 414.67 431.52 414.96
  A 1.44 1.44 0.0 0 0 432.30 416.78
  Q 438.24 419.37 443.00 417.27
  Q 445.71 416.07 445.24 412.65
  C 444.83 409.59 439.67 408.89 437.31 408.31
  A 0.96 0.95 -80.0 0 1 436.59 407.28
  L 436.63 406.91
  A 0.43 0.43 0.0 0 1 437.14 406.53
  L 442.44 407.48
  Q 443.35 407.65 443.81 406.85
  L 444.41 405.80
  Q 445.09 404.63 443.81 404.18
  C 440.10 402.88 431.79 401.90 431.80 407.80
  C 431.80 412.04 436.68 412.30 439.69 413.00
  A 0.76 0.75 88.6 0 1 440.25 413.54"
/>
<path stroke="#e3c681" vector-effect="non-scaling-stroke" d="
  M 316.6288 404.2861
  A 0.85 0.85 0.0 0 0 315.7773 403.4376
  L 312.9573 403.4425
  A 0.85 0.85 0.0 0 0 312.1088 404.2940
  L 312.1312 417.1339
  A 0.85 0.85 0.0 0 0 312.9827 417.9824
  L 315.8027 417.9775
  A 0.85 0.85 0.0 0 0 316.6512 417.1260
  L 316.6288 404.2861"
/>
<path stroke="#645113" vector-effect="non-scaling-stroke" d="
  M 181.75 349.16
  C 179.73 351.63 174.46 348.34 172.80 346.81
  Q 169.53 343.79 167.30 339.62
  C 160.79 327.43 160.28 312.52 160.08 299.07
  Q 159.88 285.27 162.74 272.90
  C 164.80 263.97 169.23 254.02 178.78 251.09
  Q 181.33 250.31 182.91 252.11
  C 185.44 254.99 188.60 258.79 192.81 255.85
  C 194.26 254.84 194.74 252.95 194.73 251.26
  Q 194.68 239.02 194.71 226.62
  C 194.71 224.19 194.09 221.18 191.08 220.88
  Q 174.73 219.25 161.81 226.15
  C 139.36 238.13 131.37 263.42 129.50 287.88
  Q 128.30 303.59 130.05 320.69
  C 132.27 342.42 141.00 367.40 162.27 377.39
  Q 169.67 380.86 175.93 381.06
  Q 181.19 381.23 189.41 381.00
  C 192.33 380.92 194.06 379.02 194.09 376.00
  Q 194.23 362.95 194.14 349.02
  C 194.11 344.62 190.06 341.66 186.24 344.74
  Q 183.72 346.77 181.75 349.16"
/>
<path stroke="#645113" vector-effect="non-scaling-stroke" d="
  M 267.36 268.51
  C 267.37 255.34 249.58 251.53 239.78 251.55
  Q 230.85 251.56 223.47 251.77
  C 215.58 251.99 200.27 256.86 200.49 267.56
  Q 200.85 285.91 200.64 306.38
  Q 200.60 310.22 199.42 313.29
  Q 196.88 319.92 194.15 326.86
  Q 191.97 332.40 197.15 334.38
  Q 197.69 334.59 198.24 334.40
  Q 199.07 334.12 199.97 334.35
  Q 200.60 334.51 200.60 335.15
  L 200.67 367.02
  A 2.13 2.08 61.6 0 1 200.35 368.14
  C 198.80 370.60 196.10 373.13 195.96 376.13
  C 195.76 380.22 198.94 381.16 202.32 381.15
  Q 215.48 381.13 229.44 381.11
  Q 231.72 381.11 233.35 379.39
  Q 233.80 378.91 234.32 379.31
  Q 236.68 381.11 240.23 381.12
  Q 253.10 381.15 265.54 381.19
  Q 268.96 381.20 271.32 379.59
  A 1.01 0.99 39.1 0 1 272.28 379.50
  Q 272.95 379.79 273.56 380.18
  C 275.31 381.30 279.46 381.16 281.39 381.15
  Q 296.45 381.00 313.96 381.22
  Q 320.82 381.31 323.23 380.21
  Q 329.47 377.37 329.87 369.68
  Q 330.16 364.00 329.98 357.01
  Q 329.91 354.08 328.64 350.73
  Q 315.48 316.03 301.62 279.36
  A 0.64 0.64 0.0 0 1 302.22 278.49
  L 317.89 278.56
  A 2.84 2.80 68.0 0 1 319.94 279.45
  Q 321.07 280.65 322.30 281.77
  C 325.27 284.48 330.31 282.63 330.36 278.44
  Q 330.52 266.68 330.42 256.21
  A 4.61 4.61 0.0 0 0 325.81 251.65
  Q 301.10 251.64 284.45 251.77
  C 279.80 251.80 275.45 256.34 273.48 260.11
  Q 272.16 262.63 272.25 265.90
  Q 272.41 271.79 272.32 277.15
  A 10.65 10.49 35.8 0 0 272.97 280.96
  L 299.98 353.49
  A 0.72 0.71 -9.8 0 1 299.30 354.45
  L 284.49 354.27
  A 2.27 2.25 -24.2 0 1 283.05 353.73
  Q 281.54 352.45 280.11 350.96
  C 276.69 347.41 271.62 349.85 271.68 354.62
  Q 271.82 363.90 271.70 372.46
  A 0.44 0.43 23.7 0 1 270.95 372.75
  C 269.21 370.92 267.26 368.92 267.26 366.20
  Q 267.33 320.25 267.36 268.51"
/>
<path stroke="#645113" vector-effect="non-scaling-stroke" d="
  M 408.05 373.84
  A 0.26 0.25 41.8 0 1 407.63 373.86
  L 403.86 368.94
  A 2.72 2.67 26.7 0 1 403.30 367.30
  Q 403.29 320.80 403.35 268.84
  C 403.36 264.71 401.65 260.61 398.29 258.15
  Q 391.51 253.18 382.47 251.99
  Q 379.84 251.64 370.38 251.60
  Q 364.45 251.57 358.79 251.87
  C 351.72 252.25 340.52 255.75 337.50 262.98
  Q 336.62 265.09 336.62 269.11
  Q 336.63 286.94 336.71 305.00
  Q 336.73 309.99 336.22 311.26
  Q 332.88 319.59 329.91 327.63
  C 328.88 330.40 330.28 334.42 333.81 334.27
  Q 334.74 334.23 335.64 334.27
  A 0.97 0.97 0.0 0 1 336.56 335.24
  L 336.62 367.28
  A 0.77 0.75 58.6 0 1 336.54 367.62
  C 334.85 370.84 328.42 377.16 334.13 380.41
  C 335.18 381.00 336.40 381.00 337.55 381.02
  Q 350.92 381.26 364.81 381.16
  Q 367.93 381.14 369.53 379.30
  Q 369.90 378.86 370.33 379.25
  Q 372.26 380.99 375.62 381.05
  Q 392.92 381.40 403.39 381.01
  C 404.41 380.97 405.55 380.72 406.32 380.00
  Q 407.59 378.81 408.86 379.85
  C 410.11 380.87 411.70 380.97 413.25 380.99
  Q 434.02 381.26 454.75 381.11
  C 457.47 381.10 460.03 379.96 460.53 377.15
  Q 462.19 367.79 464.00 358.25
  C 464.48 355.74 465.25 352.20 462.73 350.53
  C 459.27 348.25 456.79 350.61 454.43 352.89
  C 453.15 354.13 451.67 354.51 449.93 354.45
  Q 446.02 354.31 442.00 354.30
  Q 441.10 354.30 441.09 353.40
  Q 440.36 312.52 440.95 268.50
  C 441.00 264.79 442.26 262.32 444.35 259.63
  C 446.32 257.11 445.90 253.45 442.78 252.11
  Q 441.58 251.59 438.90 251.61
  Q 426.27 251.69 413.50 251.58
  C 411.82 251.56 409.62 251.70 408.48 253.15
  C 404.69 257.96 410.92 261.18 412.02 265.36
  Q 412.35 266.62 412.34 267.90
  Q 412.02 319.01 412.43 364.97
  C 412.47 368.95 409.90 370.78 408.05 373.84"
/>
<path stroke="#645113" vector-effect="non-scaling-stroke" d="
  M 467.49 380.98
  Q 473.99 381.30 496.25 381.03
  C 498.80 381.00 500.89 379.06 500.79 376.47
  C 500.64 372.26 495.96 370.17 495.94 365.73
  Q 495.79 316.10 496.02 266.14
  C 496.04 262.13 502.27 259.31 500.90 255.17
  C 499.92 252.22 497.69 251.56 494.93 251.58
  Q 480.69 251.69 468.41 251.64
  C 466.84 251.64 464.81 251.76 463.90 253.27
  C 461.69 256.99 464.26 260.18 466.41 263.01
  C 467.45 264.37 467.68 265.97 467.69 267.63
  Q 467.75 316.03 467.72 365.32
  C 467.72 369.93 463.26 372.10 463.06 375.94
  Q 462.81 380.75 467.49 380.98"
/>
<path stroke="#e3c681" vector-effect="non-scaling-stroke" d="
  M 155.03 234.69
  C 154.09 235.50 153.30 235.96 152.43 236.92
  Q 148.24 241.53 145.40 245.32
  Q 143.78 247.47 142.42 250.15
  Q 141.26 252.47 140.17 254.79
  Q 138.76 257.78 137.96 260.81
  Q 137.11 264.00 136.12 267.02
  C 135.80 268.00 135.88 268.97 135.89 269.98
  Q 135.90 270.95 135.42 271.99
  Q 134.64 273.72 134.35 275.62
  Q 133.62 280.51 133.01 285.36
  Q 132.33 290.70 132.15 295.59
  Q 131.51 312.95 135.05 331.16
  C 138.83 350.64 149.58 371.38 169.80 376.90
  C 175.74 378.52 183.34 377.86 189.78 377.82
  A 1.25 1.24 -0.0 0 0 191.02 376.59
  Q 191.14 365.43 191.12 352.33
  Q 191.12 350.34 190.93 348.34
  A 1.53 1.53 0.0 0 0 188.47 347.27
  Q 185.75 349.36 183.36 352.08
  Q 182.35 353.24 180.90 353.21
  C 166.43 352.89 160.65 334.25 158.69 322.97
  Q 154.17 297.04 159.79 271.88
  Q 162.17 261.21 168.07 254.24
  C 171.51 250.16 180.75 244.33 185.37 249.97
  Q 187.16 252.15 189.49 253.61
  A 1.35 1.35 0.0 0 0 191.55 252.47
  L 191.55 225.19
  A 1.24 1.24 0.0 0 0 190.43 223.96
  C 184.07 223.33 176.03 223.41 170.83 225.94
  C 168.93 226.87 166.83 227.23 164.88 228.20
  Q 159.43 230.92 155.03 234.69"
/>
<path stroke="#e3c681" vector-effect="non-scaling-stroke" d="
  M 297.43 275.50
  Q 306.89 275.35 318.42 275.52
  C 320.42 275.55 321.77 276.88 323.09 278.24
  Q 327.36 282.63 327.35 276.51
  L 327.31 256.72
  Q 327.30 254.99 325.57 254.98
  Q 305.82 254.79 286.80 254.82
  Q 280.52 254.83 276.96 260.49
  Q 275.42 262.94 275.49 266.28
  Q 275.60 271.49 275.66 276.44
  Q 275.70 279.22 277.09 282.87
  Q 286.85 308.57 295.25 331.27
  Q 299.25 342.07 304.29 356.22
  Q 304.73 357.46 303.42 357.47
  Q 294.59 357.53 285.37 357.68
  C 281.42 357.75 279.48 355.04 276.71 352.88
  A 1.09 1.09 0.0 0 0 274.95 353.74
  Q 274.92 365.32 274.82 376.52
  Q 274.82 376.85 274.98 377.14
  Q 275.44 377.97 276.39 377.97
  Q 297.99 378.11 318.50 377.94
  C 324.86 377.89 326.94 372.94 326.98 367.48
  Q 327.02 361.36 326.76 356.02
  Q 326.70 354.87 326.30 353.80
  L 297.05 276.06
  A 0.41 0.41 0.0 0 1 297.43 275.50"
/>
<path stroke="#e3c681" vector-effect="non-scaling-stroke" d="
  M 202.79 331.04
  A 0.91 0.91 0.0 0 1 203.73 331.95
  L 203.67 367.71
  A 3.38 3.32 62.3 0 1 203.11 369.57
  Q 201.11 372.61 199.27 375.46
  Q 198.75 376.26 198.95 377.10
  A 1.24 1.23 -6.9 0 0 200.15 378.04
  Q 214.85 378.07 229.08 378.00
  Q 230.00 377.99 230.84 377.64
  Q 232.24 377.03 231.42 375.74
  C 229.60 372.84 226.74 369.89 226.77 366.32
  Q 226.88 350.01 226.86 332.22
  A 0.79 0.79 0.0 0 1 227.65 331.43
  L 240.86 331.43
  A 0.86 0.85 -0.0 0 1 241.72 332.28
  Q 241.85 348.71 241.76 366.63
  C 241.74 369.81 239.17 372.57 237.24 375.05
  Q 236.49 376.01 236.80 377.08
  A 1.26 1.25 82.2 0 0 237.99 377.99
  Q 252.86 378.12 268.22 377.86
  Q 268.95 377.84 269.04 377.73
  A 1.69 1.62 46.5 0 0 269.05 375.74
  C 267.35 373.37 264.26 370.44 264.26 367.37
  Q 264.27 318.57 264.23 269.16
  Q 264.22 262.97 258.63 259.53
  Q 251.94 255.41 244.49 255.09
  Q 235.79 254.72 224.75 254.98
  Q 217.13 255.16 209.99 258.82
  C 206.34 260.68 203.78 263.61 203.74 267.82
  Q 203.56 288.01 203.65 308.87
  A 10.60 10.52 -35.0 0 1 202.97 312.65
  L 196.74 329.01
  A 1.59 1.59 0.0 0 0 198.27 331.17
  L 202.79 331.04"
/>
<path stroke="#645113" vector-effect="non-scaling-stroke" d="
  M 237.81 334.18
  L 230.35 334.20
  A 1.00 1.00 0.0 0 0 229.35 335.20
  L 229.39 360.06
  A 13.58 4.68 89.9 0 0 234.09 373.63
  L 234.19 373.63
  A 13.58 4.68 89.9 0 0 238.85 360.04
  L 238.81 335.18
  A 1.00 1.00 0.0 0 0 237.81 334.18"
/>
<path stroke="#e3c681" vector-effect="non-scaling-stroke" d="
  M 410.95 257.54
  C 412.36 259.71 415.24 262.66 415.26 265.22
  Q 415.58 312.17 415.25 366.75
  C 415.23 369.78 412.45 372.97 410.71 375.37
  Q 409.98 376.38 410.55 377.33
  A 1.45 1.44 74.6 0 0 411.79 378.04
  L 455.45 378.01
  A 2.00 2.00 0.0 0 0 457.42 376.37
  Q 459.42 365.67 461.27 355.96
  Q 461.48 354.85 461.33 353.70
  A 1.27 1.26 -20.8 0 0 459.36 352.82
  C 456.85 354.54 455.42 357.50 452.00 357.49
  Q 445.47 357.47 438.96 357.47
  A 0.98 0.98 0.0 0 1 437.98 356.48
  Q 438.39 311.92 438.03 267.56
  Q 438.00 264.07 439.02 262.19
  Q 440.36 259.71 442.17 257.33
  A 1.34 1.33 -61.3 0 0 441.57 255.27
  Q 440.74 254.97 439.86 254.94
  Q 425.94 254.52 412.24 254.93
  C 411.32 254.96 410.53 255.52 410.61 256.53
  A 2.14 2.12 -63.8 0 0 410.95 257.54"
/>
<path stroke="#e3c681" vector-effect="non-scaling-stroke" d="
  M 377.90 331.83
  L 377.81 367.13
  Q 377.81 368.78 376.82 370.11
  Q 374.83 372.77 373.01 375.51
  Q 372.26 376.64 373.34 377.56
  A 1.89 1.84 64.9 0 0 374.56 378.02
  L 404.08 378.02
  A 1.27 1.26 -13.0 0 0 405.22 376.20
  C 403.73 373.15 400.32 370.58 400.31 366.90
  Q 400.26 319.76 400.25 278.70
  Q 400.25 272.96 399.97 266.98
  C 399.63 259.58 387.43 255.54 381.38 255.10
  Q 374.22 254.59 361.19 254.91
  C 353.74 255.10 339.92 258.22 339.79 267.74
  Q 339.57 283.99 339.76 307.78
  Q 339.78 310.50 338.93 312.75
  Q 335.79 320.96 332.86 329.45
  A 1.23 1.22 9.5 0 0 334.02 331.07
  L 338.32 331.08
  A 1.38 1.38 0.0 0 1 339.69 332.46
  L 339.72 367.19
  A 4.95 4.91 -28.2 0 1 338.88 369.94
  Q 337.07 372.66 335.45 375.24
  Q 334.70 376.44 335.13 377.36
  A 1.04 1.04 0.0 0 0 336.05 377.95
  Q 351.91 378.15 364.95 377.93
  Q 365.95 377.91 366.76 377.67
  A 1.32 1.32 0.0 0 0 367.49 375.70
  C 365.76 373.00 362.76 369.75 362.79 366.50
  Q 362.93 348.97 362.79 332.17
  A 0.71 0.71 0.0 0 1 363.49 331.45
  L 377.33 331.26
  Q 377.90 331.26 377.90 331.83"
/>
<path stroke="#645113" vector-effect="non-scaling-stroke" d="
  M 366.31 334.33
  A 0.54 0.53 0.5 0 0 365.77 334.85
  Q 365.38 350.18 365.70 365.68
  C 365.76 368.70 367.79 370.95 369.50 373.24
  A 0.60 0.60 0.0 0 0 370.41 373.30
  C 372.11 371.59 374.82 368.59 374.80 366.30
  Q 374.69 351.00 374.73 334.89
  A 0.55 0.55 0.0 0 0 374.18 334.34
  L 366.31 334.33"
/>
<path stroke="#e3c681" vector-effect="non-scaling-stroke" d="
  M 496.45 378.05
  A 1.34 1.34 0.0 0 0 497.60 376.01
  Q 495.81 373.06 493.92 370.12
  Q 492.90 368.52 492.91 366.73
  Q 493.19 313.78 492.79 266.84
  C 492.76 262.89 495.31 260.38 497.50 257.42
  Q 498.15 256.55 497.59 255.57
  A 1.19 1.19 0.0 0 0 496.55 254.96
  Q 483.46 254.86 469.98 254.86
  Q 468.51 254.86 467.08 255.20
  A 1.25 1.25 0.0 0 0 466.29 257.06
  C 467.96 259.87 470.70 262.54 470.70 265.92
  Q 470.71 317.21 470.71 367.66
  A 3.57 3.53 63.6 0 1 470.01 369.78
  Q 467.90 372.61 466.11 376.13
  A 1.30 1.30 0.0 0 0 467.27 378.02
  L 496.45 378.05"
/>
<path stroke="#e3c681" vector-effect="non-scaling-stroke" d="
  M 241.7711 275.7969
  A 0.96 0.96 0.0 0 0 240.8095 274.8386
  L 227.7295 274.8614
  A 0.96 0.96 0.0 0 0 226.7712 275.8231
  L 226.8289 308.8831
  A 0.96 0.96 0.0 0 0 227.7905 309.8414
  L 240.8705 309.8186
  A 0.96 0.96 0.0 0 0 241.8288 308.8569
  L 241.7711 275.7969"
/>
<path stroke="#e3c681" vector-effect="non-scaling-stroke" d="
  M 377.8012 275.5538
  A 0.69 0.69 0.0 0 0 377.1088 274.8662
  L 363.4089 274.9140
  A 0.69 0.69 0.0 0 0 362.7213 275.6064
  L 362.8388 309.2662
  A 0.69 0.69 0.0 0 0 363.5312 309.9538
  L 377.2311 309.9060
  A 0.69 0.69 0.0 0 0 377.9187 309.2136
  L 377.8012 275.5538"
/>
<path stroke="#645113" vector-effect="non-scaling-stroke" d="
  M 238.8139 278.6582
  A 0.86 0.86 0.0 0 0 237.9554 277.7967
  L 230.3554 277.7834
  A 0.86 0.86 0.0 0 0 229.4939 278.6419
  L 229.4461 306.0218
  A 0.86 0.86 0.0 0 0 230.3046 306.8833
  L 237.9046 306.8966
  A 0.86 0.86 0.0 0 0 238.7661 306.0381
  L 238.8139 278.6582"
/>
<path stroke="#645113" vector-effect="non-scaling-stroke" d="
  M 374.7538 278.7479
  A 0.88 0.88 0.0 0 0 373.8753 277.8664
  L 366.5553 277.8536
  A 0.88 0.88 0.0 0 0 365.6738 278.7321
  L 365.6262 306.0121
  A 0.88 0.88 0.0 0 0 366.5047 306.8936
  L 373.8247 306.9064
  A 0.88 0.88 0.0 0 0 374.7062 306.0279
  L 374.7538 278.7479"
/>
<path stroke="#e3c681" vector-effect="non-scaling-stroke" d="
  M 375.00 409.48
  A 0.58 0.57 46.3 0 0 373.93 409.45
  L 373.08 411.59
  Q 372.90 412.02 373.37 412.10
  Q 374.31 412.27 375.33 412.10
  A 0.48 0.48 0.0 0 0 375.71 411.47
  L 375.00 409.48"
/>
<path stroke="#e3c681" vector-effect="non-scaling-stroke" d="
  M 235.3528 408.2543
  A 1.45 1.45 0.0 0 0 233.8194 406.8928
  L 232.1224 406.9936
  A 1.45 1.45 0.0 0 0 230.7609 408.5271
  L 230.8072 409.3057
  A 1.45 1.45 0.0 0 0 232.3406 410.6672
  L 234.0376 410.5664
  A 1.45 1.45 0.0 0 0 235.3991 409.0329
  L 235.3528 408.2543"
/>
<path stroke="#e3c681" vector-effect="non-scaling-stroke" d="
  M 256.2422 408.1844
  A 1.10 1.10 0.0 0 0 255.1694 407.0579
  L 252.1103 406.9831
  A 1.10 1.10 0.0 0 0 250.9837 408.0559
  L 250.9578 409.1156
  A 1.10 1.10 0.0 0 0 252.0306 410.2421
  L 255.0897 410.3169
  A 1.10 1.10 0.0 0 0 256.2163 409.2441
  L 256.2422 408.1844"
/>
<path stroke="#e3c681" vector-effect="non-scaling-stroke" d="
  M 280.17 410.69
  A 4.06 4.06 0.0 0 0 276.11 406.63
  A 4.06 4.06 0.0 0 0 272.05 410.69
  A 4.06 4.06 0.0 0 0 276.11 414.75
  A 4.06 4.06 0.0 0 0 280.17 410.69"
/>
<path stroke="#e3c681" vector-effect="non-scaling-stroke" d="
  M 296.45 407.60
  L 296.39 409.82
  A 0.78 0.78 0.0 0 0 297.14 410.62
  L 298.67 410.67
  A 2.27 1.80 1.7 0 0 301.00 408.94
  L 301.00 408.76
  A 2.27 1.80 1.7 0 0 298.79 406.89
  L 297.26 406.85
  A 0.78 0.78 0.0 0 0 296.45 407.60"
/>
<path stroke="#e3c681" vector-effect="non-scaling-stroke" d="
  M 348.77 408.09
  L 348.71 413.31
  A 1.14 1.14 0.0 0 0 349.83 414.46
  L 350.53 414.47
  A 4.56 3.59 0.7 0 0 355.14 410.94
  L 355.14 410.62
  A 4.56 3.59 0.7 0 0 350.63 406.97
  L 349.93 406.97
  A 1.14 1.14 0.0 0 0 348.77 408.09"
/>
<path stroke="#e3c681" vector-effect="non-scaling-stroke" d="
  M 394.33 408.02
  L 394.23 413.14
  A 1.14 1.14 0.0 0 0 395.34 414.31
  L 396.53 414.33
  A 4.07 3.54 1.2 0 0 400.68 410.88
  L 400.68 410.56
  A 4.07 3.54 1.2 0 0 396.69 406.93
  L 395.50 406.91
  A 1.14 1.14 0.0 0 0 394.33 408.02"
/>
</g>
<path fill="#002947" d="
  M 0.00 0.00
  L 640.00 0.00
  L 640.00 640.00
  L 0.00 640.00
  L 0.00 0.00
  Z
  M 471.84 393.85
  Q 486.57 394.21 496.67 393.86
  Q 505.08 393.57 509.74 387.44
  Q 517.75 376.90 509.74 364.72
  Q 508.94 363.50 508.93 362.11
  Q 508.69 332.85 508.62 299.31
  C 508.60 290.24 509.00 280.96 508.95 271.39
  C 508.93 268.88 510.14 267.32 511.37 265.33
  C 515.51 258.64 514.47 248.87 508.53 243.61
  Q 503.08 238.78 496.73 238.77
  Q 394.89 238.61 297.50 238.74
  Q 262.62 238.79 230.27 238.60
  Q 222.87 238.56 219.26 239.07
  Q 213.80 239.83 208.50 241.77
  A 0.71 0.70 -9.7 0 1 207.54 241.10
  Q 207.64 234.67 207.64 226.11
  C 207.65 217.51 202.32 209.96 193.92 208.20
  C 189.01 207.17 182.63 207.61 177.50 208.05
  Q 165.80 209.07 154.21 215.62
  Q 135.13 226.41 125.79 247.84
  Q 118.83 263.78 117.01 281.84
  Q 114.43 307.46 118.58 331.52
  C 123.48 359.98 138.37 384.89 167.49 392.89
  C 170.18 393.63 173.18 393.79 175.99 393.85
  Q 189.04 394.15 202.80 393.75
  A 0.75 0.75 0.0 0 1 203.57 394.47
  Q 203.81 401.95 203.57 410.07
  Q 203.30 418.80 204.60 422.47
  C 206.47 427.79 211.60 431.95 217.34 431.96
  Q 334.37 432.05 456.31 431.98
  C 461.77 431.98 466.28 429.10 469.02 424.24
  Q 470.69 421.28 470.69 416.12
  Q 470.70 404.71 470.70 394.96
  Q 470.70 393.83 471.84 393.85
  Z"
/>
<path fill="#c68d03" d="
  M 471.84 393.85
  Q 470.70 393.83 470.70 394.96
  Q 470.70 404.71 470.69 416.12
  Q 470.69 421.28 469.02 424.24
  C 466.28 429.10 461.77 431.98 456.31 431.98
  Q 334.37 432.05 217.34 431.96
  C 211.60 431.95 206.47 427.79 204.60 422.47
  Q 203.30 418.80 203.57 410.07
  Q 203.81 401.95 203.57 394.47
  A 0.75 0.75 0.0 0 0 202.80 393.75
  Q 189.04 394.15 175.99 393.85
  C 173.18 393.79 170.18 393.63 167.49 392.89
  C 138.37 384.89 123.48 359.98 118.58 331.52
  Q 114.43 307.46 117.01 281.84
  Q 118.83 263.78 125.79 247.84
  Q 135.13 226.41 154.21 215.62
  Q 165.80 209.07 177.50 208.05
  C 182.63 207.61 189.01 207.17 193.92 208.20
  C 202.32 209.96 207.65 217.51 207.64 226.11
  Q 207.64 234.67 207.54 241.10
  A 0.71 0.70 -9.7 0 0 208.50 241.77
  Q 213.80 239.83 219.26 239.07
  Q 222.87 238.56 230.27 238.60
  Q 262.62 238.79 297.50 238.74
  Q 394.89 238.61 496.73 238.77
  Q 503.08 238.78 508.53 243.61
  C 514.47 248.87 515.51 258.64 511.37 265.33
  C 510.14 267.32 508.93 268.88 508.95 271.39
  C 509.00 280.96 508.60 290.24 508.62 299.31
  Q 508.69 332.85 508.93 362.11
  Q 508.94 363.50 509.74 364.72
  Q 517.75 376.90 509.74 387.44
  Q 505.08 393.57 496.67 393.86
  Q 486.57 394.21 471.84 393.85
  Z
  M 204.09 247.11
  Q 203.94 235.81 204.03 226.50
  C 204.11 217.49 198.13 211.42 189.30 211.24
  Q 184.84 211.15 180.51 211.40
  C 145.74 213.40 126.20 243.36 121.46 275.39
  Q 116.47 309.16 123.99 339.45
  C 129.48 361.56 143.81 383.11 166.33 389.07
  Q 172.22 390.63 183.32 390.61
  Q 338.12 390.34 495.36 390.60
  C 504.85 390.61 512.17 382.69 510.06 373.26
  C 509.48 370.65 507.81 368.39 506.37 366.18
  A 5.72 5.72 0.0 0 1 505.44 363.02
  Q 505.70 328.25 505.71 297.61
  C 505.72 288.19 505.33 279.02 505.43 269.92
  C 505.46 267.32 507.04 265.94 508.29 263.94
  C 514.42 254.18 507.08 242.21 495.98 242.21
  Q 379.19 242.29 273.75 242.18
  Q 249.88 242.16 225.25 242.36
  Q 214.84 242.44 204.55 247.39
  A 0.32 0.32 0.0 0 1 204.09 247.11
  Z
  M 377.40 415.72
  Q 378.04 416.30 378.45 417.09
  Q 378.76 417.69 379.44 417.76
  L 383.04 418.11
  A 0.47 0.46 79.8 0 0 383.50 417.44
  L 377.30 404.45
  Q 376.99 403.79 376.32 403.49
  Q 372.80 401.89 371.24 405.20
  Q 368.35 411.39 365.39 417.36
  Q 365.05 418.04 365.81 418.03
  L 369.31 417.97
  Q 370.13 417.95 370.41 417.17
  L 370.79 416.11
  A 0.93 0.93 0.0 0 1 371.65 415.50
  L 376.70 415.45
  A 1.05 1.04 65.7 0 1 377.40 415.72
  Z
  M 231.74 413.98
  Q 235.19 414.08 237.89 412.66
  C 241.25 410.89 240.92 405.67 237.47 404.14
  C 234.30 402.73 230.26 403.29 226.83 403.45
  Q 226.28 403.48 226.26 404.03
  Q 226.06 409.45 226.10 415.17
  Q 226.11 416.26 226.28 417.31
  Q 226.39 417.96 227.05 417.95
  L 230.02 417.87
  A 0.71 0.70 1.4 0 0 230.70 417.23
  L 230.90 414.73
  Q 230.96 413.95 231.74 413.98
  Z
  M 258.94 412.39
  Q 261.27 411.10 261.02 408.07
  C 260.70 404.26 257.58 403.39 254.40 403.37
  Q 250.66 403.35 247.22 403.32
  Q 246.53 403.32 246.52 404.00
  L 246.37 417.19
  A 0.81 0.81 0.0 0 0 247.19 418.01
  L 250.49 417.99
  A 0.69 0.68 1.3 0 0 251.17 417.35
  Q 251.23 416.62 251.04 415.26
  Q 250.84 413.89 251.94 413.55
  A 1.21 1.20 62.6 0 1 253.24 413.97
  L 255.69 417.11
  Q 256.42 418.05 257.61 418.04
  L 260.50 418.02
  Q 261.75 418.02 260.99 417.02
  L 258.62 413.90
  A 1.02 1.02 0.0 0 1 258.94 412.39
  Z
  M 285.1199 410.7313
  A 8.97 7.62 0.2 0 0 276.1766 403.0800
  A 8.97 7.62 0.2 0 0 267.1801 410.6687
  A 8.97 7.62 0.2 0 0 276.1234 418.3200
  A 8.97 7.62 0.2 0 0 285.1199 410.7313
  Z
  M 296.40 414.79
  Q 296.46 413.97 297.29 413.98
  Q 300.01 414.01 302.59 413.14
  C 306.76 411.73 306.67 405.45 302.61 403.98
  C 299.63 402.90 295.66 403.22 292.48 403.29
  A 0.76 0.75 -0.8 0 0 291.74 404.04
  L 291.73 417.20
  Q 291.73 418.17 292.70 418.08
  L 295.19 417.86
  Q 296.15 417.78 296.23 416.81
  L 296.40 414.79
  Z
  M 329.09 407.01
  L 336.21 406.75
  Q 337.14 406.72 337.29 405.80
  L 337.48 404.71
  Q 337.68 403.51 336.46 403.49
  L 324.72 403.33
  Q 324.01 403.32 324.01 404.03
  L 323.98 417.25
  A 0.77 0.77 0.0 0 0 324.75 418.02
  L 336.70 418.00
  Q 337.65 418.00 337.52 417.05
  L 337.26 415.20
  Q 337.14 414.40 336.35 414.46
  Q 333.04 414.68 329.30 414.28
  Q 328.95 414.24 328.73 414.00
  Q 328.29 413.51 328.62 412.86
  A 0.82 0.81 -77.0 0 1 329.30 412.43
  L 335.31 412.24
  Q 336.56 412.19 336.54 410.94
  L 336.54 410.32
  Q 336.52 409.12 335.32 409.07
  L 329.35 408.85
  Q 328.56 408.82 328.56 408.02
  L 328.57 407.56
  Q 328.57 407.03 329.09 407.01
  Z
  M 344.08 404.37
  L 344.08 416.95
  A 1.07 1.07 0.0 0 0 345.15 418.02
  L 351.25 418.02
  A 8.67 7.22 -0.0 0 0 359.92 410.80
  L 359.92 410.52
  A 8.67 7.22 0.0 0 0 351.25 403.30
  L 345.15 403.30
  A 1.07 1.07 0.0 0 0 344.08 404.37
  Z
  M 389.66 404.20
  L 389.62 417.10
  A 0.86 0.86 0.0 0 0 390.47 417.97
  L 397.08 417.99
  A 8.19 6.89 0.2 0 0 405.30 411.13
  L 405.30 410.29
  A 8.19 6.89 0.2 0 0 397.14 403.37
  L 390.53 403.35
  A 0.86 0.86 0.0 0 0 389.66 404.20
  Z
  M 417.48 406.88
  L 424.19 406.79
  Q 425.42 406.78 425.45 405.56
  L 425.47 404.75
  Q 425.49 403.50 424.25 403.49
  L 412.74 403.39
  A 0.64 0.63 0.0 0 0 412.10 404.02
  L 412.06 417.44
  Q 412.06 418.06 412.69 418.06
  L 424.66 417.98
  Q 425.53 417.97 425.52 417.09
  L 425.48 415.27
  Q 425.46 414.58 424.77 414.55
  L 417.25 414.30
  Q 416.49 414.28 416.57 413.52
  L 416.61 413.13
  Q 416.67 412.54 417.27 412.51
  L 423.46 412.24
  Q 424.67 412.18 424.68 410.96
  Q 424.68 410.29 424.68 410.26
  Q 424.69 409.02 423.48 409.02
  Q 420.51 409.04 417.31 408.93
  A 0.74 0.73 0.8 0 1 416.60 408.21
  L 416.60 407.77
  A 0.89 0.88 -0.6 0 1 417.48 406.88
  Z
  M 440.25 413.54
  Q 440.41 414.12 440.09 414.49
  Q 439.80 414.83 439.35 414.78
  Q 436.86 414.53 434.46 413.58
  Q 432.80 412.92 431.81 414.41
  Q 431.63 414.67 431.52 414.96
  A 1.44 1.44 0.0 0 0 432.30 416.78
  Q 438.24 419.37 443.00 417.27
  Q 445.71 416.07 445.24 412.65
  C 444.83 409.59 439.67 408.89 437.31 408.31
  A 0.96 0.95 -80.0 0 1 436.59 407.28
  L 436.63 406.91
  A 0.43 0.43 0.0 0 1 437.14 406.53
  L 442.44 407.48
  Q 443.35 407.65 443.81 406.85
  L 444.41 405.80
  Q 445.09 404.63 443.81 404.18
  C 440.10 402.88 431.79 401.90 431.80 407.80
  C 431.80 412.04 436.68 412.30 439.69 413.00
  A 0.76 0.75 88.6 0 1 440.25 413.54
  Z
  M 316.6288 404.2861
  A 0.85 0.85 0.0 0 0 315.7773 403.4376
  L 312.9573 403.4425
  A 0.85 0.85 0.0 0 0 312.1088 404.2940
  L 312.1312 417.1339
  A 0.85 0.85 0.0 0 0 312.9827 417.9824
  L 315.8027 417.9775
  A 0.85 0.85 0.0 0 0 316.6512 417.1260
  L 316.6288 404.2861
  Z"
/>
<path fill="#011423" d="
  M 204.09 247.11
  A 0.32 0.32 0.0 0 0 204.55 247.39
  Q 214.84 242.44 225.25 242.36
  Q 249.88 242.16 273.75 242.18
  Q 379.19 242.29 495.98 242.21
  C 507.08 242.21 514.42 254.18 508.29 263.94
  C 507.04 265.94 505.46 267.32 505.43 269.92
  C 505.33 279.02 505.72 288.19 505.71 297.61
  Q 505.70 328.25 505.44 363.02
  A 5.72 5.72 0.0 0 0 506.37 366.18
  C 507.81 368.39 509.48 370.65 510.06 373.26
  C 512.17 382.69 504.85 390.61 495.36 390.60
  Q 338.12 390.34 183.32 390.61
  Q 172.22 390.63 166.33 389.07
  C 143.81 383.11 129.48 361.56 123.99 339.45
  Q 116.47 309.16 121.46 275.39
  C 126.20 243.36 145.74 213.40 180.51 211.40
  Q 184.84 211.15 189.30 211.24
  C 198.13 211.42 204.11 217.49 204.03 226.50
  Q 203.94 235.81 204.09 247.11
  Z
  M 181.75 349.16
  C 179.73 351.63 174.46 348.34 172.80 346.81
  Q 169.53 343.79 167.30 339.62
  C 160.79 327.43 160.28 312.52 160.08 299.07
  Q 159.88 285.27 162.74 272.90
  C 164.80 263.97 169.23 254.02 178.78 251.09
  Q 181.33 250.31 182.91 252.11
  C 185.44 254.99 188.60 258.79 192.81 255.85
  C 194.26 254.84 194.74 252.95 194.73 251.26
  Q 194.68 239.02 194.71 226.62
  C 194.71 224.19 194.09 221.18 191.08 220.88
  Q 174.73 219.25 161.81 226.15
  C 139.36 238.13 131.37 263.42 129.50 287.88
  Q 128.30 303.59 130.05 320.69
  C 132.27 342.42 141.00 367.40 162.27 377.39
  Q 169.67 380.86 175.93 381.06
  Q 181.19 381.23 189.41 381.00
  C 192.33 380.92 194.06 379.02 194.09 376.00
  Q 194.23 362.95 194.14 349.02
  C 194.11 344.62 190.06 341.66 186.24 344.74
  Q 183.72 346.77 181.75 349.16
  Z
  M 267.36 268.51
  C 267.37 255.34 249.58 251.53 239.78 251.55
  Q 230.85 251.56 223.47 251.77
  C 215.58 251.99 200.27 256.86 200.49 267.56
  Q 200.85 285.91 200.64 306.38
  Q 200.60 310.22 199.42 313.29
  Q 196.88 319.92 194.15 326.86
  Q 191.97 332.40 197.15 334.38
  Q 197.69 334.59 198.24 334.40
  Q 199.07 334.12 199.97 334.35
  Q 200.60 334.51 200.60 335.15
  L 200.67 367.02
  A 2.13 2.08 61.6 0 1 200.35 368.14
  C 198.80 370.60 196.10 373.13 195.96 376.13
  C 195.76 380.22 198.94 381.16 202.32 381.15
  Q 215.48 381.13 229.44 381.11
  Q 231.72 381.11 233.35 379.39
  Q 233.80 378.91 234.32 379.31
  Q 236.68 381.11 240.23 381.12
  Q 253.10 381.15 265.54 381.19
  Q 268.96 381.20 271.32 379.59
  A 1.01 0.99 39.1 0 1 272.28 379.50
  Q 272.95 379.79 273.56 380.18
  C 275.31 381.30 279.46 381.16 281.39 381.15
  Q 296.45 381.00 313.96 381.22
  Q 320.82 381.31 323.23 380.21
  Q 329.47 377.37 329.87 369.68
  Q 330.16 364.00 329.98 357.01
  Q 329.91 354.08 328.64 350.73
  Q 315.48 316.03 301.62 279.36
  A 0.64 0.64 0.0 0 1 302.22 278.49
  L 317.89 278.56
  A 2.84 2.80 68.0 0 1 319.94 279.45
  Q 321.07 280.65 322.30 281.77
  C 325.27 284.48 330.31 282.63 330.36 278.44
  Q 330.52 266.68 330.42 256.21
  A 4.61 4.61 0.0 0 0 325.81 251.65
  Q 301.10 251.64 284.45 251.77
  C 279.80 251.80 275.45 256.34 273.48 260.11
  Q 272.16 262.63 272.25 265.90
  Q 272.41 271.79 272.32 277.15
  A 10.65 10.49 35.8 0 0 272.97 280.96
  L 299.98 353.49
  A 0.72 0.71 -9.8 0 1 299.30 354.45
  L 284.49 354.27
  A 2.27 2.25 -24.2 0 1 283.05 353.73
  Q 281.54 352.45 280.11 350.96
  C 276.69 347.41 271.62 349.85 271.68 354.62
  Q 271.82 363.90 271.70 372.46
  A 0.44 0.43 23.7 0 1 270.95 372.75
  C 269.21 370.92 267.26 368.92 267.26 366.20
  Q 267.33 320.25 267.36 268.51
  Z
  M 408.05 373.84
  A 0.26 0.25 41.8 0 1 407.63 373.86
  L 403.86 368.94
  A 2.72 2.67 26.7 0 1 403.30 367.30
  Q 403.29 320.80 403.35 268.84
  C 403.36 264.71 401.65 260.61 398.29 258.15
  Q 391.51 253.18 382.47 251.99
  Q 379.84 251.64 370.38 251.60
  Q 364.45 251.57 358.79 251.87
  C 351.72 252.25 340.52 255.75 337.50 262.98
  Q 336.62 265.09 336.62 269.11
  Q 336.63 286.94 336.71 305.00
  Q 336.73 309.99 336.22 311.26
  Q 332.88 319.59 329.91 327.63
  C 328.88 330.40 330.28 334.42 333.81 334.27
  Q 334.74 334.23 335.64 334.27
  A 0.97 0.97 0.0 0 1 336.56 335.24
  L 336.62 367.28
  A 0.77 0.75 58.6 0 1 336.54 367.62
  C 334.85 370.84 328.42 377.16 334.13 380.41
  C 335.18 381.00 336.40 381.00 337.55 381.02
  Q 350.92 381.26 364.81 381.16
  Q 367.93 381.14 369.53 379.30
  Q 369.90 378.86 370.33 379.25
  Q 372.26 380.99 375.62 381.05
  Q 392.92 381.40 403.39 381.01
  C 404.41 380.97 405.55 380.72 406.32 380.00
  Q 407.59 378.81 408.86 379.85
  C 410.11 380.87 411.70 380.97 413.25 380.99
  Q 434.02 381.26 454.75 381.11
  C 457.47 381.10 460.03 379.96 460.53 377.15
  Q 462.19 367.79 464.00 358.25
  C 464.48 355.74 465.25 352.20 462.73 350.53
  C 459.27 348.25 456.79 350.61 454.43 352.89
  C 453.15 354.13 451.67 354.51 449.93 354.45
  Q 446.02 354.31 442.00 354.30
  Q 441.10 354.30 441.09 353.40
  Q 440.36 312.52 440.95 268.50
  C 441.00 264.79 442.26 262.32 444.35 259.63
  C 446.32 257.11 445.90 253.45 442.78 252.11
  Q 441.58 251.59 438.90 251.61
  Q 426.27 251.69 413.50 251.58
  C 411.82 251.56 409.62 251.70 408.48 253.15
  C 404.69 257.96 410.92 261.18 412.02 265.36
  Q 412.35 266.62 412.34 267.90
  Q 412.02 319.01 412.43 364.97
  C 412.47 368.95 409.90 370.78 408.05 373.84
  Z
  M 467.49 380.98
  Q 473.99 381.30 496.25 381.03
  C 498.80 381.00 500.89 379.06 500.79 376.47
  C 500.64 372.26 495.96 370.17 495.94 365.73
  Q 495.79 316.10 496.02 266.14
  C 496.04 262.13 502.27 259.31 500.90 255.17
  C 499.92 252.22 497.69 251.56 494.93 251.58
  Q 480.69 251.69 468.41 251.64
  C 466.84 251.64 464.81 251.76 463.90 253.27
  C 461.69 256.99 464.26 260.18 466.41 263.01
  C 467.45 264.37 467.68 265.97 467.69 267.63
  Q 467.75 316.03 467.72 365.32
  C 467.72 369.93 463.26 372.10 463.06 375.94
  Q 462.81 380.75 467.49 380.98
  Z"
/>
<path fill="#c68d03" d="
  M 181.75 349.16
  Q 183.72 346.77 186.24 344.74
  C 190.06 341.66 194.11 344.62 194.14 349.02
  Q 194.23 362.95 194.09 376.00
  C 194.06 379.02 192.33 380.92 189.41 381.00
  Q 181.19 381.23 175.93 381.06
  Q 169.67 380.86 162.27 377.39
  C 141.00 367.40 132.27 342.42 130.05 320.69
  Q 128.30 303.59 129.50 287.88
  C 131.37 263.42 139.36 238.13 161.81 226.15
  Q 174.73 219.25 191.08 220.88
  C 194.09 221.18 194.71 224.19 194.71 226.62
  Q 194.68 239.02 194.73 251.26
  C 194.74 252.95 194.26 254.84 192.81 255.85
  C 188.60 258.79 185.44 254.99 182.91 252.11
  Q 181.33 250.31 178.78 251.09
  C 169.23 254.02 164.80 263.97 162.74 272.90
  Q 159.88 285.27 160.08 299.07
  C 160.28 312.52 160.79 327.43 167.30 339.62
  Q 169.53 343.79 172.80 346.81
  C 174.46 348.34 179.73 351.63 181.75 349.16
  Z
  M 155.03 234.69
  C 154.09 235.50 153.30 235.96 152.43 236.92
  Q 148.24 241.53 145.40 245.32
  Q 143.78 247.47 142.42 250.15
  Q 141.26 252.47 140.17 254.79
  Q 138.76 257.78 137.96 260.81
  Q 137.11 264.00 136.12 267.02
  C 135.80 268.00 135.88 268.97 135.89 269.98
  Q 135.90 270.95 135.42 271.99
  Q 134.64 273.72 134.35 275.62
  Q 133.62 280.51 133.01 285.36
  Q 132.33 290.70 132.15 295.59
  Q 131.51 312.95 135.05 331.16
  C 138.83 350.64 149.58 371.38 169.80 376.90
  C 175.74 378.52 183.34 377.86 189.78 377.82
  A 1.25 1.24 -0.0 0 0 191.02 376.59
  Q 191.14 365.43 191.12 352.33
  Q 191.12 350.34 190.93 348.34
  A 1.53 1.53 0.0 0 0 188.47 347.27
  Q 185.75 349.36 183.36 352.08
  Q 182.35 353.24 180.90 353.21
  C 166.43 352.89 160.65 334.25 158.69 322.97
  Q 154.17 297.04 159.79 271.88
  Q 162.17 261.21 168.07 254.24
  C 171.51 250.16 180.75 244.33 185.37 249.97
  Q 187.16 252.15 189.49 253.61
  A 1.35 1.35 0.0 0 0 191.55 252.47
  L 191.55 225.19
  A 1.24 1.24 0.0 0 0 190.43 223.96
  C 184.07 223.33 176.03 223.41 170.83 225.94
  C 168.93 226.87 166.83 227.23 164.88 228.20
  Q 159.43 230.92 155.03 234.69
  Z"
/>
<path fill="#ffffff" d="
  M 155.03 234.69
  Q 159.43 230.92 164.88 228.20
  C 166.83 227.23 168.93 226.87 170.83 225.94
  C 176.03 223.41 184.07 223.33 190.43 223.96
  A 1.24 1.24 0.0 0 1 191.55 225.19
  L 191.55 252.47
  A 1.35 1.35 0.0 0 1 189.49 253.61
  Q 187.16 252.15 185.37 249.97
  C 180.75 244.33 171.51 250.16 168.07 254.24
  Q 162.17 261.21 159.79 271.88
  Q 154.17 297.04 158.69 322.97
  C 160.65 334.25 166.43 352.89 180.90 353.21
  Q 182.35 353.24 183.36 352.08
  Q 185.75 349.36 188.47 347.27
  A 1.53 1.53 0.0 0 1 190.93 348.34
  Q 191.12 350.34 191.12 352.33
  Q 191.14 365.43 191.02 376.59
  A 1.25 1.24 -0.0 0 1 189.78 377.82
  C 183.34 377.86 175.74 378.52 169.80 376.90
  C 149.58 371.38 138.83 350.64 135.05 331.16
  Q 131.51 312.95 132.15 295.59
  Q 132.33 290.70 133.01 285.36
  Q 133.62 280.51 134.35 275.62
  Q 134.64 273.72 135.42 271.99
  Q 135.90 270.95 135.89 269.98
  C 135.88 268.97 135.80 268.00 136.12 267.02
  Q 137.11 264.00 137.96 260.81
  Q 138.76 257.78 140.17 254.79
  Q 141.26 252.47 142.42 250.15
  Q 143.78 247.47 145.40 245.32
  Q 148.24 241.53 152.43 236.92
  C 153.30 235.96 154.09 235.50 155.03 234.69
  Z"
/>
<path fill="#c68d03" d="
  M 239.78 251.55
  C 249.58 251.53 267.37 255.34 267.36 268.51
  Q 267.33 320.25 267.26 366.20
  C 267.26 368.92 269.21 370.92 270.95 372.75
  A 0.44 0.43 23.7 0 0 271.70 372.46
  Q 271.82 363.90 271.68 354.62
  C 271.62 349.85 276.69 347.41 280.11 350.96
  Q 281.54 352.45 283.05 353.73
  A 2.27 2.25 -24.2 0 0 284.49 354.27
  L 299.30 354.45
  A 0.72 0.71 -9.8 0 0 299.98 353.49
  L 272.97 280.96
  A 10.65 10.49 35.8 0 1 272.32 277.15
  Q 272.41 271.79 272.25 265.90
  Q 272.16 262.63 273.48 260.11
  C 275.45 256.34 279.80 251.80 284.45 251.77
  Q 301.10 251.64 325.81 251.65
  A 4.61 4.61 0.0 0 1 330.42 256.21
  Q 330.52 266.68 330.36 278.44
  C 330.31 282.63 325.27 284.48 322.30 281.77
  Q 321.07 280.65 319.94 279.45
  A 2.84 2.80 68.0 0 0 317.89 278.56
  L 302.22 278.49
  A 0.64 0.64 0.0 0 0 301.62 279.36
  Q 315.48 316.03 328.64 350.73
  Q 329.91 354.08 329.98 357.01
  Q 330.16 364.00 329.87 369.68
  Q 329.47 377.37 323.23 380.21
  Q 320.82 381.31 313.96 381.22
  Q 296.45 381.00 281.39 381.15
  C 279.46 381.16 275.31 381.30 273.56 380.18
  Q 272.95 379.79 272.28 379.50
  A 1.01 0.99 39.1 0 0 271.32 379.59
  Q 268.96 381.20 265.54 381.19
  Q 253.10 381.15 240.23 381.12
  Q 236.68 381.11 234.32 379.31
  Q 233.80 378.91 233.35 379.39
  Q 231.72 381.11 229.44 381.11
  Q 215.48 381.13 202.32 381.15
  C 198.94 381.16 195.76 380.22 195.96 376.13
  C 196.10 373.13 198.80 370.60 200.35 368.14
  A 2.13 2.08 61.6 0 0 200.67 367.02
  L 200.60 335.15
  Q 200.60 334.51 199.97 334.35
  Q 199.07 334.12 198.24 334.40
  Q 197.69 334.59 197.15 334.38
  Q 191.97 332.40 194.15 326.86
  Q 196.88 319.92 199.42 313.29
  Q 200.60 310.22 200.64 306.38
  Q 200.85 285.91 200.49 267.56
  C 200.27 256.86 215.58 251.99 223.47 251.77
  Q 230.85 251.56 239.78 251.55
  Z
  M 297.43 275.50
  Q 306.89 275.35 318.42 275.52
  C 320.42 275.55 321.77 276.88 323.09 278.24
  Q 327.36 282.63 327.35 276.51
  L 327.31 256.72
  Q 327.30 254.99 325.57 254.98
  Q 305.82 254.79 286.80 254.82
  Q 280.52 254.83 276.96 260.49
  Q 275.42 262.94 275.49 266.28
  Q 275.60 271.49 275.66 276.44
  Q 275.70 279.22 277.09 282.87
  Q 286.85 308.57 295.25 331.27
  Q 299.25 342.07 304.29 356.22
  Q 304.73 357.46 303.42 357.47
  Q 294.59 357.53 285.37 357.68
  C 281.42 357.75 279.48 355.04 276.71 352.88
  A 1.09 1.09 0.0 0 0 274.95 353.74
  Q 274.92 365.32 274.82 376.52
  Q 274.82 376.85 274.98 377.14
  Q 275.44 377.97 276.39 377.97
  Q 297.99 378.11 318.50 377.94
  C 324.86 377.89 326.94 372.94 326.98 367.48
  Q 327.02 361.36 326.76 356.02
  Q 326.70 354.87 326.30 353.80
  L 297.05 276.06
  A 0.41 0.41 0.0 0 1 297.43 275.50
  Z
  M 202.79 331.04
  A 0.91 0.91 0.0 0 1 203.73 331.95
  L 203.67 367.71
  A 3.38 3.32 62.3 0 1 203.11 369.57
  Q 201.11 372.61 199.27 375.46
  Q 198.75 376.26 198.95 377.10
  A 1.24 1.23 -6.9 0 0 200.15 378.04
  Q 214.85 378.07 229.08 378.00
  Q 230.00 377.99 230.84 377.64
  Q 232.24 377.03 231.42 375.74
  C 229.60 372.84 226.74 369.89 226.77 366.32
  Q 226.88 350.01 226.86 332.22
  A 0.79 0.79 0.0 0 1 227.65 331.43
  L 240.86 331.43
  A 0.86 0.85 -0.0 0 1 241.72 332.28
  Q 241.85 348.71 241.76 366.63
  C 241.74 369.81 239.17 372.57 237.24 375.05
  Q 236.49 376.01 236.80 377.08
  A 1.26 1.25 82.2 0 0 237.99 377.99
  Q 252.86 378.12 268.22 377.86
  Q 268.95 377.84 269.04 377.73
  A 1.69 1.62 46.5 0 0 269.05 375.74
  C 267.35 373.37 264.26 370.44 264.26 367.37
  Q 264.27 318.57 264.23 269.16
  Q 264.22 262.97 258.63 259.53
  Q 251.94 255.41 244.49 255.09
  Q 235.79 254.72 224.75 254.98
  Q 217.13 255.16 209.99 258.82
  C 206.34 260.68 203.78 263.61 203.74 267.82
  Q 203.56 288.01 203.65 308.87
  A 10.60 10.52 -35.0 0 1 202.97 312.65
  L 196.74 329.01
  A 1.59 1.59 0.0 0 0 198.27 331.17
  L 202.79 331.04
  Z
  M 237.81 334.18
  L 230.35 334.20
  A 1.00 1.00 0.0 0 0 229.35 335.20
  L 229.39 360.06
  A 13.58 4.68 89.9 0 0 234.09 373.63
  L 234.19 373.63
  A 13.58 4.68 89.9 0 0 238.85 360.04
  L 238.81 335.18
  A 1.00 1.00 0.0 0 0 237.81 334.18
  Z"
/>
<path fill="#c68d03" d="
  M 408.05 373.84
  C 409.90 370.78 412.47 368.95 412.43 364.97
  Q 412.02 319.01 412.34 267.90
  Q 412.35 266.62 412.02 265.36
  C 410.92 261.18 404.69 257.96 408.48 253.15
  C 409.62 251.70 411.82 251.56 413.50 251.58
  Q 426.27 251.69 438.90 251.61
  Q 441.58 251.59 442.78 252.11
  C 445.90 253.45 446.32 257.11 444.35 259.63
  C 442.26 262.32 441.00 264.79 440.95 268.50
  Q 440.36 312.52 441.09 353.40
  Q 441.10 354.30 442.00 354.30
  Q 446.02 354.31 449.93 354.45
  C 451.67 354.51 453.15 354.13 454.43 352.89
  C 456.79 350.61 459.27 348.25 462.73 350.53
  C 465.25 352.20 464.48 355.74 464.00 358.25
  Q 462.19 367.79 460.53 377.15
  C 460.03 379.96 457.47 381.10 454.75 381.11
  Q 434.02 381.26 413.25 380.99
  C 411.70 380.97 410.11 380.87 408.86 379.85
  Q 407.59 378.81 406.32 380.00
  C 405.55 380.72 404.41 380.97 403.39 381.01
  Q 392.92 381.40 375.62 381.05
  Q 372.26 380.99 370.33 379.25
  Q 369.90 378.86 369.53 379.30
  Q 367.93 381.14 364.81 381.16
  Q 350.92 381.26 337.55 381.02
  C 336.40 381.00 335.18 381.00 334.13 380.41
  C 328.42 377.16 334.85 370.84 336.54 367.62
  A 0.77 0.75 58.6 0 0 336.62 367.28
  L 336.56 335.24
  A 0.97 0.97 0.0 0 0 335.64 334.27
  Q 334.74 334.23 333.81 334.27
  C 330.28 334.42 328.88 330.40 329.91 327.63
  Q 332.88 319.59 336.22 311.26
  Q 336.73 309.99 336.71 305.00
  Q 336.63 286.94 336.62 269.11
  Q 336.62 265.09 337.50 262.98
  C 340.52 255.75 351.72 252.25 358.79 251.87
  Q 364.45 251.57 370.38 251.60
  Q 379.84 251.64 382.47 251.99
  Q 391.51 253.18 398.29 258.15
  C 401.65 260.61 403.36 264.71 403.35 268.84
  Q 403.29 320.80 403.30 367.30
  A 2.72 2.67 26.7 0 0 403.86 368.94
  L 407.63 373.86
  A 0.26 0.25 41.8 0 0 408.05 373.84
  Z
  M 410.95 257.54
  C 412.36 259.71 415.24 262.66 415.26 265.22
  Q 415.58 312.17 415.25 366.75
  C 415.23 369.78 412.45 372.97 410.71 375.37
  Q 409.98 376.38 410.55 377.33
  A 1.45 1.44 74.6 0 0 411.79 378.04
  L 455.45 378.01
  A 2.00 2.00 0.0 0 0 457.42 376.37
  Q 459.42 365.67 461.27 355.96
  Q 461.48 354.85 461.33 353.70
  A 1.27 1.26 -20.8 0 0 459.36 352.82
  C 456.85 354.54 455.42 357.50 452.00 357.49
  Q 445.47 357.47 438.96 357.47
  A 0.98 0.98 0.0 0 1 437.98 356.48
  Q 438.39 311.92 438.03 267.56
  Q 438.00 264.07 439.02 262.19
  Q 440.36 259.71 442.17 257.33
  A 1.34 1.33 -61.3 0 0 441.57 255.27
  Q 440.74 254.97 439.86 254.94
  Q 425.94 254.52 412.24 254.93
  C 411.32 254.96 410.53 255.52 410.61 256.53
  A 2.14 2.12 -63.8 0 0 410.95 257.54
  Z
  M 377.90 331.83
  L 377.81 367.13
  Q 377.81 368.78 376.82 370.11
  Q 374.83 372.77 373.01 375.51
  Q 372.26 376.64 373.34 377.56
  A 1.89 1.84 64.9 0 0 374.56 378.02
  L 404.08 378.02
  A 1.27 1.26 -13.0 0 0 405.22 376.20
  C 403.73 373.15 400.32 370.58 400.31 366.90
  Q 400.26 319.76 400.25 278.70
  Q 400.25 272.96 399.97 266.98
  C 399.63 259.58 387.43 255.54 381.38 255.10
  Q 374.22 254.59 361.19 254.91
  C 353.74 255.10 339.92 258.22 339.79 267.74
  Q 339.57 283.99 339.76 307.78
  Q 339.78 310.50 338.93 312.75
  Q 335.79 320.96 332.86 329.45
  A 1.23 1.22 9.5 0 0 334.02 331.07
  L 338.32 331.08
  A 1.38 1.38 0.0 0 1 339.69 332.46
  L 339.72 367.19
  A 4.95 4.91 -28.2 0 1 338.88 369.94
  Q 337.07 372.66 335.45 375.24
  Q 334.70 376.44 335.13 377.36
  A 1.04 1.04 0.0 0 0 336.05 377.95
  Q 351.91 378.15 364.95 377.93
  Q 365.95 377.91 366.76 377.67
  A 1.32 1.32 0.0 0 0 367.49 375.70
  C 365.76 373.00 362.76 369.75 362.79 366.50
  Q 362.93 348.97 362.79 332.17
  A 0.71 0.71 0.0 0 1 363.49 331.45
  L 377.33 331.26
  Q 377.90 331.26 377.90 331.83
  Z
  M 366.31 334.33
  A 0.54 0.53 0.5 0 0 365.77 334.85
  Q 365.38 350.18 365.70 365.68
  C 365.76 368.70 367.79 370.95 369.50 373.24
  A 0.60 0.60 0.0 0 0 370.41 373.30
  C 372.11 371.59 374.82 368.59 374.80 366.30
  Q 374.69 351.00 374.73 334.89
  A 0.55 0.55 0.0 0 0 374.18 334.34
  L 366.31 334.33
  Z"
/>
<path fill="#c68d03" d="
  M 467.49 380.98
  Q 462.81 380.75 463.06 375.94
  C 463.26 372.10 467.72 369.93 467.72 365.32
  Q 467.75 316.03 467.69 267.63
  C 467.68 265.97 467.45 264.37 466.41 263.01
  C 464.26 260.18 461.69 256.99 463.90 253.27
  C 464.81 251.76 466.84 251.64 468.41 251.64
  Q 480.69 251.69 494.93 251.58
  C 497.69 251.56 499.92 252.22 500.90 255.17
  C 502.27 259.31 496.04 262.13 496.02 266.14
  Q 495.79 316.10 495.94 365.73
  C 495.96 370.17 500.64 372.26 500.79 376.47
  C 500.89 379.06 498.80 381.00 496.25 381.03
  Q 473.99 381.30 467.49 380.98
  Z
  M 496.45 378.05
  A 1.34 1.34 0.0 0 0 497.60 376.01
  Q 495.81 373.06 493.92 370.12
  Q 492.90 368.52 492.91 366.73
  Q 493.19 313.78 492.79 266.84
  C 492.76 262.89 495.31 260.38 497.50 257.42
  Q 498.15 256.55 497.59 255.57
  A 1.19 1.19 0.0 0 0 496.55 254.96
  Q 483.46 254.86 469.98 254.86
  Q 468.51 254.86 467.08 255.20
  A 1.25 1.25 0.0 0 0 466.29 257.06
  C 467.96 259.87 470.70 262.54 470.70 265.92
  Q 470.71 317.21 470.71 367.66
  A 3.57 3.53 63.6 0 1 470.01 369.78
  Q 467.90 372.61 466.11 376.13
  A 1.30 1.30 0.0 0 0 467.27 378.02
  L 496.45 378.05
  Z"
/>
<path fill="#ffffff" d="
  M 297.43 275.50
  A 0.41 0.41 0.0 0 0 297.05 276.06
  L 326.30 353.80
  Q 326.70 354.87 326.76 356.02
  Q 327.02 361.36 326.98 367.48
  C 326.94 372.94 324.86 377.89 318.50 377.94
  Q 297.99 378.11 276.39 377.97
  Q 275.44 377.97 274.98 377.14
  Q 274.82 376.85 274.82 376.52
  Q 274.92 365.32 274.95 353.74
  A 1.09 1.09 0.0 0 1 276.71 352.88
  C 279.48 355.04 281.42 357.75 285.37 357.68
  Q 294.59 357.53 303.42 357.47
  Q 304.73 357.46 304.29 356.22
  Q 299.25 342.07 295.25 331.27
  Q 286.85 308.57 277.09 282.87
  Q 275.70 279.22 275.66 276.44
  Q 275.60 271.49 275.49 266.28
  Q 275.42 262.94 276.96 260.49
  Q 280.52 254.83 286.80 254.82
  Q 305.82 254.79 325.57 254.98
  Q 327.30 254.99 327.31 256.72
  L 327.35 276.51
  Q 327.36 282.63 323.09 278.24
  C 321.77 276.88 320.42 275.55 318.42 275.52
  Q 306.89 275.35 297.43 275.50
  Z"
/>
<path fill="#ffffff" d="
  M 410.95 257.54
  A 2.14 2.12 -63.8 0 1 410.61 256.53
  C 410.53 255.52 411.32 254.96 412.24 254.93
  Q 425.94 254.52 439.86 254.94
  Q 440.74 254.97 441.57 255.27
  A 1.34 1.33 -61.3 0 1 442.17 257.33
  Q 440.36 259.71 439.02 262.19
  Q 438.00 264.07 438.03 267.56
  Q 438.39 311.92 437.98 356.48
  A 0.98 0.98 0.0 0 0 438.96 357.47
  Q 445.47 357.47 452.00 357.49
  C 455.42 357.50 456.85 354.54 459.36 352.82
  A 1.27 1.26 -20.8 0 1 461.33 353.70
  Q 461.48 354.85 461.27 355.96
  Q 459.42 365.67 457.42 376.37
  A 2.00 2.00 0.0 0 1 455.45 378.01
  L 411.79 378.04
  A 1.45 1.44 74.6 0 1 410.55 377.33
  Q 409.98 376.38 410.71 375.37
  C 412.45 372.97 415.23 369.78 415.25 366.75
  Q 415.58 312.17 415.26 265.22
  C 415.24 262.66 412.36 259.71 410.95 257.54
  Z"
/>
<path fill="#ffffff" d="
  M 202.79 331.04
  L 198.27 331.17
  A 1.59 1.59 0.0 0 1 196.74 329.01
  L 202.97 312.65
  A 10.60 10.52 -35.0 0 0 203.65 308.87
  Q 203.56 288.01 203.74 267.82
  C 203.78 263.61 206.34 260.68 209.99 258.82
  Q 217.13 255.16 224.75 254.98
  Q 235.79 254.72 244.49 255.09
  Q 251.94 255.41 258.63 259.53
  Q 264.22 262.97 264.23 269.16
  Q 264.27 318.57 264.26 367.37
  C 264.26 370.44 267.35 373.37 269.05 375.74
  A 1.69 1.62 46.5 0 1 269.04 377.73
  Q 268.95 377.84 268.22 377.86
  Q 252.86 378.12 237.99 377.99
  A 1.26 1.25 82.2 0 1 236.80 377.08
  Q 236.49 376.01 237.24 375.05
  C 239.17 372.57 241.74 369.81 241.76 366.63
  Q 241.85 348.71 241.72 332.28
  A 0.86 0.85 -0.0 0 0 240.86 331.43
  L 227.65 331.43
  A 0.79 0.79 0.0 0 0 226.86 332.22
  Q 226.88 350.01 226.77 366.32
  C 226.74 369.89 229.60 372.84 231.42 375.74
  Q 232.24 377.03 230.84 377.64
  Q 230.00 377.99 229.08 378.00
  Q 214.85 378.07 200.15 378.04
  A 1.24 1.23 -6.9 0 1 198.95 377.10
  Q 198.75 376.26 199.27 375.46
  Q 201.11 372.61 203.11 369.57
  A 3.38 3.32 62.3 0 0 203.67 367.71
  L 203.73 331.95
  A 0.91 0.91 0.0 0 0 202.79 331.04
  Z
  M 241.7711 275.7969
  A 0.96 0.96 0.0 0 0 240.8095 274.8386
  L 227.7295 274.8614
  A 0.96 0.96 0.0 0 0 226.7712 275.8231
  L 226.8289 308.8831
  A 0.96 0.96 0.0 0 0 227.7905 309.8414
  L 240.8705 309.8186
  A 0.96 0.96 0.0 0 0 241.8288 308.8569
  L 241.7711 275.7969
  Z"
/>
<path fill="#ffffff" d="
  M 377.33 331.26
  L 363.49 331.45
  A 0.71 0.71 0.0 0 0 362.79 332.17
  Q 362.93 348.97 362.79 366.50
  C 362.76 369.75 365.76 373.00 367.49 375.70
  A 1.32 1.32 0.0 0 1 366.76 377.67
  Q 365.95 377.91 364.95 377.93
  Q 351.91 378.15 336.05 377.95
  A 1.04 1.04 0.0 0 1 335.13 377.36
  Q 334.70 376.44 335.45 375.24
  Q 337.07 372.66 338.88 369.94
  A 4.95 4.91 -28.2 0 0 339.72 367.19
  L 339.69 332.46
  A 1.38 1.38 0.0 0 0 338.32 331.08
  L 334.02 331.07
  A 1.23 1.22 9.5 0 1 332.86 329.45
  Q 335.79 320.96 338.93 312.75
  Q 339.78 310.50 339.76 307.78
  Q 339.57 283.99 339.79 267.74
  C 339.92 258.22 353.74 255.10 361.19 254.91
  Q 374.22 254.59 381.38 255.10
  C 387.43 255.54 399.63 259.58 399.97 266.98
  Q 400.25 272.96 400.25 278.70
  Q 400.26 319.76 400.31 366.90
  C 400.32 370.58 403.73 373.15 405.22 376.20
  A 1.27 1.26 -13.0 0 1 404.08 378.02
  L 374.56 378.02
  A 1.89 1.84 64.9 0 1 373.34 377.56
  Q 372.26 376.64 373.01 375.51
  Q 374.83 372.77 376.82 370.11
  Q 377.81 368.78 377.81 367.13
  L 377.90 331.83
  Q 377.90 331.26 377.33 331.26
  Z
  M 377.8012 275.5538
  A 0.69 0.69 0.0 0 0 377.1088 274.8662
  L 363.4089 274.9140
  A 0.69 0.69 0.0 0 0 362.7213 275.6064
  L 362.8388 309.2662
  A 0.69 0.69 0.0 0 0 363.5312 309.9538
  L 377.2311 309.9060
  A 0.69 0.69 0.0 0 0 377.9187 309.2136
  L 377.8012 275.5538
  Z"
/>
<path fill="#ffffff" d="
  M 496.45 378.05
  L 467.27 378.02
  A 1.30 1.30 0.0 0 1 466.11 376.13
  Q 467.90 372.61 470.01 369.78
  A 3.57 3.53 63.6 0 0 470.71 367.66
  Q 470.71 317.21 470.70 265.92
  C 470.70 262.54 467.96 259.87 466.29 257.06
  A 1.25 1.25 0.0 0 1 467.08 255.20
  Q 468.51 254.86 469.98 254.86
  Q 483.46 254.86 496.55 254.96
  A 1.19 1.19 0.0 0 1 497.59 255.57
  Q 498.15 256.55 497.50 257.42
  C 495.31 260.38 492.76 262.89 492.79 266.84
  Q 493.19 313.78 492.91 366.73
  Q 492.90 368.52 493.92 370.12
  Q 495.81 373.06 497.60 376.01
  A 1.34 1.34 0.0 0 1 496.45 378.05
  Z"
/>
<path fill="#c68d03" d="
  M 241.8288 308.8569
  A 0.96 0.96 0.0 0 1 240.8705 309.8186
  L 227.7905 309.8414
  A 0.96 0.96 0.0 0 1 226.8289 308.8831
  L 226.7712 275.8231
  A 0.96 0.96 0.0 0 1 227.7295 274.8614
  L 240.8095 274.8386
  A 0.96 0.96 0.0 0 1 241.7711 275.7969
  L 241.8288 308.8569
  Z
  M 238.8139 278.6582
  A 0.86 0.86 0.0 0 0 237.9554 277.7967
  L 230.3554 277.7834
  A 0.86 0.86 0.0 0 0 229.4939 278.6419
  L 229.4461 306.0218
  A 0.86 0.86 0.0 0 0 230.3046 306.8833
  L 237.9046 306.8966
  A 0.86 0.86 0.0 0 0 238.7661 306.0381
  L 238.8139 278.6582
  Z"
/>
<path fill="#c68d03" d="
  M 377.9187 309.2136
  A 0.69 0.69 0.0 0 1 377.2311 309.9060
  L 363.5312 309.9538
  A 0.69 0.69 0.0 0 1 362.8388 309.2662
  L 362.7213 275.6064
  A 0.69 0.69 0.0 0 1 363.4089 274.9140
  L 377.1088 274.8662
  A 0.69 0.69 0.0 0 1 377.8012 275.5538
  L 377.9187 309.2136
  Z
  M 374.7538 278.7479
  A 0.88 0.88 0.0 0 0 373.8753 277.8664
  L 366.5553 277.8536
  A 0.88 0.88 0.0 0 0 365.6738 278.7321
  L 365.6262 306.0121
  A 0.88 0.88 0.0 0 0 366.5047 306.8936
  L 373.8247 306.9064
  A 0.88 0.88 0.0 0 0 374.7062 306.0279
  L 374.7538 278.7479
  Z"
/>
<rect fill="#011423" x="-4.66" y="-14.55" transform="translate(234.13,292.34) rotate(0.1)" width="9.32" height="29.10" rx="0.86"/>
<rect fill="#011423" x="-4.54" y="-14.52" transform="translate(370.19,292.38) rotate(0.1)" width="9.08" height="29.04" rx="0.88"/>
<path fill="#011423" d="
  M 237.81 334.18
  A 1.00 1.00 0.0 0 1 238.81 335.18
  L 238.85 360.04
  A 13.58 4.68 89.9 0 1 234.19 373.63
  L 234.09 373.63
  A 13.58 4.68 89.9 0 1 229.39 360.06
  L 229.35 335.20
  A 1.00 1.00 0.0 0 1 230.35 334.20
  L 237.81 334.18
  Z"
/>
<path fill="#011423" d="
  M 366.31 334.33
  L 374.18 334.34
  A 0.55 0.55 0.0 0 1 374.73 334.89
  Q 374.69 351.00 374.80 366.30
  C 374.82 368.59 372.11 371.59 370.41 373.30
  A 0.60 0.60 0.0 0 1 369.50 373.24
  C 367.79 370.95 365.76 368.70 365.70 365.68
  Q 365.38 350.18 365.77 334.85
  A 0.54 0.53 0.5 0 1 366.31 334.33
  Z"
/>
<path fill="#ffffff" d="
  M 376.70 415.45
  L 371.65 415.50
  A 0.93 0.93 0.0 0 0 370.79 416.11
  L 370.41 417.17
  Q 370.13 417.95 369.31 417.97
  L 365.81 418.03
  Q 365.05 418.04 365.39 417.36
  Q 368.35 411.39 371.24 405.20
  Q 372.80 401.89 376.32 403.49
  Q 376.99 403.79 377.30 404.45
  L 383.50 417.44
  A 0.47 0.46 79.8 0 1 383.04 418.11
  L 379.44 417.76
  Q 378.76 417.69 378.45 417.09
  Q 378.04 416.30 377.40 415.72
  A 1.05 1.04 65.7 0 0 376.70 415.45
  Z
  M 375.00 409.48
  A 0.58 0.57 46.3 0 0 373.93 409.45
  L 373.08 411.59
  Q 372.90 412.02 373.37 412.10
  Q 374.31 412.27 375.33 412.10
  A 0.48 0.48 0.0 0 0 375.71 411.47
  L 375.00 409.48
  Z"
/>
<path fill="#ffffff" d="
  M 230.90 414.73
  L 230.70 417.23
  A 0.71 0.70 1.4 0 1 230.02 417.87
  L 227.05 417.95
  Q 226.39 417.96 226.28 417.31
  Q 226.11 416.26 226.10 415.17
  Q 226.06 409.45 226.26 404.03
  Q 226.28 403.48 226.83 403.45
  C 230.26 403.29 234.30 402.73 237.47 404.14
  C 240.92 405.67 241.25 410.89 237.89 412.66
  Q 235.19 414.08 231.74 413.98
  Q 230.96 413.95 230.90 414.73
  Z
  M 235.3528 408.2543
  A 1.45 1.45 0.0 0 0 233.8194 406.8928
  L 232.1224 406.9936
  A 1.45 1.45 0.0 0 0 230.7609 408.5271
  L 230.8072 409.3057
  A 1.45 1.45 0.0 0 0 232.3406 410.6672
  L 234.0376 410.5664
  A 1.45 1.45 0.0 0 0 235.3991 409.0329
  L 235.3528 408.2543
  Z"
/>
<path fill="#ffffff" d="
  M 258.94 412.39
  A 1.02 1.02 0.0 0 0 258.62 413.90
  L 260.99 417.02
  Q 261.75 418.02 260.50 418.02
  L 257.61 418.04
  Q 256.42 418.05 255.69 417.11
  L 253.24 413.97
  A 1.21 1.20 62.6 0 0 251.94 413.55
  Q 250.84 413.89 251.04 415.26
  Q 251.23 416.62 251.17 417.35
  A 0.69 0.68 1.3 0 1 250.49 417.99
  L 247.19 418.01
  A 0.81 0.81 0.0 0 1 246.37 417.19
  L 246.52 404.00
  Q 246.53 403.32 247.22 403.32
  Q 250.66 403.35 254.40 403.37
  C 257.58 403.39 260.70 404.26 261.02 408.07
  Q 261.27 411.10 258.94 412.39
  Z
  M 256.2422 408.1844
  A 1.10 1.10 0.0 0 0 255.1694 407.0579
  L 252.1103 406.9831
  A 1.10 1.10 0.0 0 0 250.9837 408.0559
  L 250.9578 409.1156
  A 1.10 1.10 0.0 0 0 252.0306 410.2421
  L 255.0897 410.3169
  A 1.10 1.10 0.0 0 0 256.2163 409.2441
  L 256.2422 408.1844
  Z"
/>
<path fill="#ffffff" d="
  M 285.1199 410.7313
  A 8.97 7.62 0.2 0 1 276.1234 418.3200
  A 8.97 7.62 0.2 0 1 267.1801 410.6687
  A 8.97 7.62 0.2 0 1 276.1766 403.0800
  A 8.97 7.62 0.2 0 1 285.1199 410.7313
  Z
  M 280.17 410.69
  A 4.06 4.06 0.0 0 0 276.11 406.63
  A 4.06 4.06 0.0 0 0 272.05 410.69
  A 4.06 4.06 0.0 0 0 276.11 414.75
  A 4.06 4.06 0.0 0 0 280.17 410.69
  Z"
/>
<path fill="#ffffff" d="
  M 296.40 414.79
  L 296.23 416.81
  Q 296.15 417.78 295.19 417.86
  L 292.70 418.08
  Q 291.73 418.17 291.73 417.20
  L 291.74 404.04
  A 0.76 0.75 -0.8 0 1 292.48 403.29
  C 295.66 403.22 299.63 402.90 302.61 403.98
  C 306.67 405.45 306.76 411.73 302.59 413.14
  Q 300.01 414.01 297.29 413.98
  Q 296.46 413.97 296.40 414.79
  Z
  M 296.45 407.60
  L 296.39 409.82
  A 0.78 0.78 0.0 0 0 297.14 410.62
  L 298.67 410.67
  A 2.27 1.80 1.7 0 0 301.00 408.94
  L 301.00 408.76
  A 2.27 1.80 1.7 0 0 298.79 406.89
  L 297.26 406.85
  A 0.78 0.78 0.0 0 0 296.45 407.60
  Z"
/>
<path fill="#ffffff" d="
  M 329.09 407.01
  Q 328.57 407.03 328.57 407.56
  L 328.56 408.02
  Q 328.56 408.82 329.35 408.85
  L 335.32 409.07
  Q 336.52 409.12 336.54 410.32
  L 336.54 410.94
  Q 336.56 412.19 335.31 412.24
  L 329.30 412.43
  A 0.82 0.81 -77.0 0 0 328.62 412.86
  Q 328.29 413.51 328.73 414.00
  Q 328.95 414.24 329.30 414.28
  Q 333.04 414.68 336.35 414.46
  Q 337.14 414.40 337.26 415.20
  L 337.52 417.05
  Q 337.65 418.00 336.70 418.00
  L 324.75 418.02
  A 0.77 0.77 0.0 0 1 323.98 417.25
  L 324.01 404.03
  Q 324.01 403.32 324.72 403.33
  L 336.46 403.49
  Q 337.68 403.51 337.48 404.71
  L 337.29 405.80
  Q 337.14 406.72 336.21 406.75
  L 329.09 407.01
  Z"
/>
<path fill="#ffffff" d="
  M 344.08 404.37
  A 1.07 1.07 0.0 0 1 345.15 403.30
  L 351.25 403.30
  A 8.67 7.22 -0.0 0 1 359.92 410.52
  L 359.92 410.80
  A 8.67 7.22 -0.0 0 1 351.25 418.02
  L 345.15 418.02
  A 1.07 1.07 0.0 0 1 344.08 416.95
  L 344.08 404.37
  Z
  M 348.77 408.09
  L 348.71 413.31
  A 1.14 1.14 0.0 0 0 349.83 414.46
  L 350.53 414.47
  A 4.56 3.59 0.7 0 0 355.14 410.94
  L 355.14 410.62
  A 4.56 3.59 0.7 0 0 350.63 406.97
  L 349.93 406.97
  A 1.14 1.14 0.0 0 0 348.77 408.09
  Z"
/>
<path fill="#ffffff" d="
  M 389.66 404.20
  A 0.86 0.86 0.0 0 1 390.53 403.35
  L 397.14 403.37
  A 8.19 6.89 0.2 0 1 405.30 410.29
  L 405.30 411.13
  A 8.19 6.89 0.2 0 1 397.08 417.99
  L 390.47 417.97
  A 0.86 0.86 0.0 0 1 389.62 417.10
  L 389.66 404.20
  Z
  M 394.33 408.02
  L 394.23 413.14
  A 1.14 1.14 0.0 0 0 395.34 414.31
  L 396.53 414.33
  A 4.07 3.54 1.2 0 0 400.68 410.88
  L 400.68 410.56
  A 4.07 3.54 1.2 0 0 396.69 406.93
  L 395.50 406.91
  A 1.14 1.14 0.0 0 0 394.33 408.02
  Z"
/>
<path fill="#ffffff" d="
  M 417.48 406.88
  A 0.89 0.88 -0.6 0 0 416.60 407.77
  L 416.60 408.21
  A 0.74 0.73 0.8 0 0 417.31 408.93
  Q 420.51 409.04 423.48 409.02
  Q 424.69 409.02 424.68 410.26
  Q 424.68 410.29 424.68 410.96
  Q 424.67 412.18 423.46 412.24
  L 417.27 412.51
  Q 416.67 412.54 416.61 413.13
  L 416.57 413.52
  Q 416.49 414.28 417.25 414.30
  L 424.77 414.55
  Q 425.46 414.58 425.48 415.27
  L 425.52 417.09
  Q 425.53 417.97 424.66 417.98
  L 412.69 418.06
  Q 412.06 418.06 412.06 417.44
  L 412.10 404.02
  A 0.64 0.63 0.0 0 1 412.74 403.39
  L 424.25 403.49
  Q 425.49 403.50 425.47 404.75
  L 425.45 405.56
  Q 425.42 406.78 424.19 406.79
  L 417.48 406.88
  Z"
/>
<path fill="#ffffff" d="
  M 439.69 413.00
  C 436.68 412.30 431.80 412.04 431.80 407.80
  C 431.79 401.90 440.10 402.88 443.81 404.18
  Q 445.09 404.63 444.41 405.80
  L 443.81 406.85
  Q 443.35 407.65 442.44 407.48
  L 437.14 406.53
  A 0.43 0.43 0.0 0 0 436.63 406.91
  L 436.59 407.28
  A 0.96 0.95 -80.0 0 0 437.31 408.31
  C 439.67 408.89 444.83 409.59 445.24 412.65
  Q 445.71 416.07 443.00 417.27
  Q 438.24 419.37 432.30 416.78
  A 1.44 1.44 0.0 0 1 431.52 414.96
  Q 431.63 414.67 431.81 414.41
  Q 432.80 412.92 434.46 413.58
  Q 436.86 414.53 439.35 414.78
  Q 439.80 414.83 440.09 414.49
  Q 440.41 414.12 440.25 413.54
  A 0.76 0.75 88.6 0 0 439.69 413.00
  Z"
/>
<rect fill="#ffffff" x="-2.26" y="-7.27" transform="translate(314.38,410.71) rotate(-0.1)" width="4.52" height="14.54" rx="0.85"/>
<circle fill="#c68d03" cx="276.11" cy="410.69" r="4.06"/>
<path fill="#c68d03" d="
  M 296.45 407.60
  A 0.78 0.78 0.0 0 1 297.26 406.85
  L 298.79 406.89
  A 2.27 1.80 1.7 0 1 301.00 408.76
  L 301.00 408.94
  A 2.27 1.80 1.7 0 1 298.67 410.67
  L 297.14 410.62
  A 0.78 0.78 0.0 0 1 296.39 409.82
  L 296.45 407.60
  Z"
/>
<rect fill="#c68d03" x="-2.30" y="-1.84" transform="translate(233.08,408.78) rotate(-3.4)" width="4.60" height="3.68" rx="1.45"/>
<rect fill="#c68d03" x="-2.63" y="-1.63" transform="translate(253.60,408.65) rotate(1.4)" width="5.26" height="3.26" rx="1.10"/>
<path fill="#c68d03" d="
  M 348.77 408.09
  A 1.14 1.14 0.0 0 1 349.93 406.97
  L 350.63 406.97
  A 4.56 3.59 0.7 0 1 355.14 410.62
  L 355.14 410.94
  A 4.56 3.59 0.7 0 1 350.53 414.47
  L 349.83 414.46
  A 1.14 1.14 0.0 0 1 348.71 413.31
  L 348.77 408.09
  Z"
/>
<path fill="#c68d03" d="
  M 394.33 408.02
  A 1.14 1.14 0.0 0 1 395.50 406.91
  L 396.69 406.93
  A 4.07 3.54 1.2 0 1 400.68 410.56
  L 400.68 410.88
  A 4.07 3.54 1.2 0 1 396.53 414.33
  L 395.34 414.31
  A 1.14 1.14 0.0 0 1 394.23 413.14
  L 394.33 408.02
  Z"
/>
<path fill="#c68d03" d="
  M 375.00 409.48
  L 375.71 411.47
  A 0.48 0.48 0.0 0 1 375.33 412.10
  Q 374.31 412.27 373.37 412.10
  Q 372.90 412.02 373.08 411.59
  L 373.93 409.45
  A 0.58 0.57 46.3 0 1 375.00 409.48
  Z"
/>
</svg>
